ISO-10303-21;
HEADER;
FILE_DESCRIPTION(('FreeCAD Model'),'2;1');
FILE_NAME('Open CASCADE Shape Model','2026-08-29T12:42:07',(''),(''),
  'Open CASCADE STEP processor 7.8','FreeCAD','Unknown');
FILE_SCHEMA(('AUTOMOTIVE_DESIGN { 1 0 10303 214 1 1 1 1 }'));
ENDSEC;
DATA;
#1 = APPLICATION_PROTOCOL_DEFINITION('international standard',
  'automotive_design',2000,#2);
#2 = APPLICATION_CONTEXT(
  'core data for automotive mechanical design processes');
#3 = SHAPE_DEFINITION_REPRESENTATION(#4,#10);
#4 = PRODUCT_DEFINITION_SHAPE('','',#5);
#5 = PRODUCT_DEFINITION('design','',#6,#9);
#6 = PRODUCT_DEFINITION_FORMATION('','',#7);
#7 = PRODUCT('knob','knob','',(#8));
#8 = PRODUCT_CONTEXT('',#2,'mechanical');
#9 = PRODUCT_DEFINITION_CONTEXT('part definition',#2,'design');
#10 = ADVANCED_BREP_SHAPE_REPRESENTATION('',(#11,#15),#2115);
#11 = AXIS2_PLACEMENT_3D('',#12,#13,#14);
#12 = CARTESIAN_POINT('',(0.,0.,0.));
#13 = DIRECTION('',(0.,0.,1.));
#14 = DIRECTION('',(1.,0.,-0.));
#15 = MANIFOLD_SOLID_BREP('',#16);
#16 = CLOSED_SHELL('',(#17,#59,#165,#191,#226,#377,#545,#570,#595,#619,
    #720,#744,#768,#792,#809,#874,#907,#925,#960,#1007,#1038,#1073,#1098
    ,#1115,#1148,#1179,#1235,#1259,#1308,#1367,#1391,#1438,#1503,#1536,
    #1566,#1591,#1617,#1633,#1650,#1666,#1683,#1694,#1717,#1734,#1760,
    #1776,#1788,#1844,#1856,#1894,#1911,#1928,#1945,#1962,#1979,#1996,
    #2008,#2025,#2042,#2054,#2072,#2084,#2093,#2104));
#17 = ADVANCED_FACE('',(#18),#54,.T.);
#18 = FACE_BOUND('',#19,.F.);
#19 = EDGE_LOOP('',(#20,#30,#39,#47));
#20 = ORIENTED_EDGE('',*,*,#21,.T.);
#21 = EDGE_CURVE('',#22,#24,#26,.T.);
#22 = VERTEX_POINT('',#23);
#23 = CARTESIAN_POINT('',(-47.001,14.926566691819,5.144346912769));
#24 = VERTEX_POINT('',#25);
#25 = CARTESIAN_POINT('',(-47.021,14.926566691819,5.144346912769));
#26 = LINE('',#27,#28);
#27 = CARTESIAN_POINT('',(-47.001,14.926566691819,5.144346912769));
#28 = VECTOR('',#29,1.);
#29 = DIRECTION('',(-1.,8.5E-16,2.86E-15));
#30 = ORIENTED_EDGE('',*,*,#31,.T.);
#31 = EDGE_CURVE('',#24,#32,#34,.T.);
#32 = VERTEX_POINT('',#33);
#33 = CARTESIAN_POINT('',(-47.021,16.425971404805,4.2));
#34 = CIRCLE('',#35,7.7);
#35 = AXIS2_PLACEMENT_3D('',#36,#37,#38);
#36 = CARTESIAN_POINT('',(-47.021,11.6,-1.8));
#37 = DIRECTION('',(-1.,8.5E-16,2.86E-15));
#38 = DIRECTION('',(2.946547254359E-15,0.432021648288,0.901863235425));
#39 = ORIENTED_EDGE('',*,*,#40,.F.);
#40 = EDGE_CURVE('',#41,#32,#43,.T.);
#41 = VERTEX_POINT('',#42);
#42 = CARTESIAN_POINT('',(-47.001,16.425971404805,4.2));
#43 = LINE('',#44,#45);
#44 = CARTESIAN_POINT('',(-47.001,16.425971404805,4.2));
#45 = VECTOR('',#46,1.);
#46 = DIRECTION('',(-1.,8.5E-16,2.86E-15));
#47 = ORIENTED_EDGE('',*,*,#48,.F.);
#48 = EDGE_CURVE('',#22,#41,#49,.T.);
#49 = CIRCLE('',#50,7.7);
#50 = AXIS2_PLACEMENT_3D('',#51,#52,#53);
#51 = CARTESIAN_POINT('',(-47.001,11.6,-1.8));
#52 = DIRECTION('',(-1.,0.,0.));
#53 = DIRECTION('',(0.,0.436251405131,0.899824822685));
#54 = CYLINDRICAL_SURFACE('',#55,7.7);
#55 = AXIS2_PLACEMENT_3D('',#56,#57,#58);
#56 = CARTESIAN_POINT('',(-47.001,11.6,-1.8));
#57 = DIRECTION('',(1.,0.,0.));
#58 = DIRECTION('',(0.,0.436251405131,0.899824822685));
#59 = ADVANCED_FACE('',(#60),#160,.T.);
#60 = FACE_BOUND('',#61,.T.);
#61 = EDGE_LOOP('',(#62,#63,#72,#80,#88,#96,#104,#112,#120,#128,#136,
    #145,#153));
#62 = ORIENTED_EDGE('',*,*,#21,.T.);
#63 = ORIENTED_EDGE('',*,*,#64,.T.);
#64 = EDGE_CURVE('',#24,#65,#67,.T.);
#65 = VERTEX_POINT('',#66);
#66 = CARTESIAN_POINT('',(-47.201,14.836293825915,4.987989560418));
#67 = HYPERBOLA('',#68,0.591278748304,0.591278748304);
#68 = AXIS2_PLACEMENT_3D('',#69,#70,#71);
#69 = CARTESIAN_POINT('',(-54.721,11.087937450567,-1.504360855664));
#70 = DIRECTION('',(0.,0.866025628186,-0.499999611325));
#71 = DIRECTION('',(1.,-1.449360754922E-15,-2.510369067935E-15));
#72 = ORIENTED_EDGE('',*,*,#73,.F.);
#73 = EDGE_CURVE('',#74,#65,#76,.T.);
#74 = VERTEX_POINT('',#75);
#75 = CARTESIAN_POINT('',(-47.201,14.926566691819,5.144346912769));
#76 = LINE('',#77,#78);
#77 = CARTESIAN_POINT('',(-47.201,14.919701734837,5.132456446161));
#78 = VECTOR('',#79,1.);
#79 = DIRECTION('',(-2.9E-15,-0.499999611325,-0.866025628186));
#80 = ORIENTED_EDGE('',*,*,#81,.F.);
#81 = EDGE_CURVE('',#82,#74,#84,.T.);
#82 = VERTEX_POINT('',#83);
#83 = CARTESIAN_POINT('',(-47.201,15.660000419769,6.414692710234));
#84 = LINE('',#85,#86);
#85 = CARTESIAN_POINT('',(-47.201,16.2,7.350000388675));
#86 = VECTOR('',#87,1.);
#87 = DIRECTION('',(0.,-0.499999611325,-0.866025628186));
#88 = ORIENTED_EDGE('',*,*,#89,.T.);
#89 = EDGE_CURVE('',#82,#90,#92,.T.);
#90 = VERTEX_POINT('',#91);
#91 = CARTESIAN_POINT('',(-47.021,15.750000349808,6.570577323308));
#92 = LINE('',#93,#94);
#93 = CARTESIAN_POINT('',(-46.53459813745,15.99320109203,6.991813801872)
  );
#94 = VECTOR('',#95,1.);
#95 = DIRECTION('',(0.707106781187,0.353553115758,0.612372594372));
#96 = ORIENTED_EDGE('',*,*,#97,.F.);
#97 = EDGE_CURVE('',#98,#90,#100,.T.);
#98 = VERTEX_POINT('',#99);
#99 = CARTESIAN_POINT('',(-47.001,15.750000349808,6.570577323308));
#100 = LINE('',#101,#102);
#101 = CARTESIAN_POINT('',(-47.001,15.750000349808,6.570577323308));
#102 = VECTOR('',#103,1.);
#103 = DIRECTION('',(-1.,8.5E-16,2.86E-15));
#104 = ORIENTED_EDGE('',*,*,#105,.F.);
#105 = EDGE_CURVE('',#106,#98,#108,.T.);
#106 = VERTEX_POINT('',#107);
#107 = CARTESIAN_POINT('',(-46.101,16.2,7.350000388675));
#108 = LINE('',#109,#110);
#109 = CARTESIAN_POINT('',(-45.276,16.612499679343,8.064471531929));
#110 = VECTOR('',#111,1.);
#111 = DIRECTION('',(-0.707106781187,-0.353553115758,-0.612372594372));
#112 = ORIENTED_EDGE('',*,*,#113,.F.);
#113 = EDGE_CURVE('',#114,#106,#116,.T.);
#114 = VERTEX_POINT('',#115);
#115 = CARTESIAN_POINT('',(-42.701,16.2,7.350000388675));
#116 = LINE('',#117,#118);
#117 = CARTESIAN_POINT('',(-41.901,16.2,7.350000388675));
#118 = VECTOR('',#119,1.);
#119 = DIRECTION('',(-1.,0.,0.));
#120 = ORIENTED_EDGE('',*,*,#121,.T.);
#121 = EDGE_CURVE('',#114,#122,#124,.T.);
#122 = VERTEX_POINT('',#123);
#123 = CARTESIAN_POINT('',(-41.901,15.80000031094,6.657179886126));
#124 = LINE('',#125,#126);
#125 = CARTESIAN_POINT('',(-42.301,16.00000015547,7.003590137401));
#126 = VECTOR('',#127,1.);
#127 = DIRECTION('',(0.707106781187,-0.353553115758,-0.612372594372));
#128 = ORIENTED_EDGE('',*,*,#129,.T.);
#129 = EDGE_CURVE('',#122,#130,#132,.T.);
#130 = VERTEX_POINT('',#131);
#131 = CARTESIAN_POINT('',(-41.901,14.926566691819,5.144346912769));
#132 = LINE('',#133,#134);
#133 = CARTESIAN_POINT('',(-41.901,15.263210061846,5.727430938034));
#134 = VECTOR('',#135,1.);
#135 = DIRECTION('',(0.,-0.499999611325,-0.866025628186));
#136 = ORIENTED_EDGE('',*,*,#137,.T.);
#137 = EDGE_CURVE('',#130,#138,#140,.T.);
#138 = VERTEX_POINT('',#139);
#139 = CARTESIAN_POINT('',(-42.401,15.177261522077,5.578563546021));
#140 = HYPERBOLA('',#141,0.591278748304,0.591278748304);
#141 = AXIS2_PLACEMENT_3D('',#142,#143,#144);
#142 = CARTESIAN_POINT('',(-34.201,11.087937450567,-1.504360855664));
#143 = DIRECTION('',(0.,0.866025628186,-0.499999611325));
#144 = DIRECTION('',(-1.,0.,0.));
#145 = ORIENTED_EDGE('',*,*,#146,.T.);
#146 = EDGE_CURVE('',#138,#147,#149,.T.);
#147 = VERTEX_POINT('',#148);
#148 = CARTESIAN_POINT('',(-46.501,15.177261522077,5.578563546021));
#149 = LINE('',#150,#151);
#150 = CARTESIAN_POINT('',(-41.901,15.177261522077,5.578563546021));
#151 = VECTOR('',#152,1.);
#152 = DIRECTION('',(-1.,0.,0.));
#153 = ORIENTED_EDGE('',*,*,#154,.F.);
#154 = EDGE_CURVE('',#22,#147,#155,.T.);
#155 = HYPERBOLA('',#156,0.591278748304,0.591278748304);
#156 = AXIS2_PLACEMENT_3D('',#157,#158,#159);
#157 = CARTESIAN_POINT('',(-54.701,11.087937450567,-1.504360855664));
#158 = DIRECTION('',(0.,-0.866025628186,0.499999611325));
#159 = DIRECTION('',(1.,0.,0.));
#160 = PLANE('',#161);
#161 = AXIS2_PLACEMENT_3D('',#162,#163,#164);
#162 = CARTESIAN_POINT('',(-44.53071308506,15.567660759181,
    6.254755560772));
#163 = DIRECTION('',(0.,0.866025628186,-0.499999611325));
#164 = DIRECTION('',(0.,0.499999611325,0.866025628186));
#165 = ADVANCED_FACE('',(#166),#186,.T.);
#166 = FACE_BOUND('',#167,.T.);
#167 = EDGE_LOOP('',(#168,#169,#170,#179));
#168 = ORIENTED_EDGE('',*,*,#64,.F.);
#169 = ORIENTED_EDGE('',*,*,#31,.T.);
#170 = ORIENTED_EDGE('',*,*,#171,.T.);
#171 = EDGE_CURVE('',#32,#172,#174,.T.);
#172 = VERTEX_POINT('',#173);
#173 = CARTESIAN_POINT('',(-47.201,16.133254901282,4.2));
#174 = HYPERBOLA('',#175,6.,6.);
#175 = AXIS2_PLACEMENT_3D('',#176,#177,#178);
#176 = CARTESIAN_POINT('',(-54.721,11.6,4.2));
#177 = DIRECTION('',(-3.5E-16,6.1E-16,-1.));
#178 = DIRECTION('',(1.,-8.5E-16,-3.5E-16));
#179 = ORIENTED_EDGE('',*,*,#180,.F.);
#180 = EDGE_CURVE('',#65,#172,#181,.T.);
#181 = CIRCLE('',#182,7.52);
#182 = AXIS2_PLACEMENT_3D('',#183,#184,#185);
#183 = CARTESIAN_POINT('',(-47.201,11.6,-1.8));
#184 = DIRECTION('',(-1.,8.5E-16,2.86E-15));
#185 = DIRECTION('',(2.946547254359E-15,0.432021648288,0.901863235425));
#186 = CONICAL_SURFACE('',#187,7.7,0.785398163397);
#187 = AXIS2_PLACEMENT_3D('',#188,#189,#190);
#188 = CARTESIAN_POINT('',(-47.021,11.6,-1.8));
#189 = DIRECTION('',(1.,-8.5E-16,-2.86E-15));
#190 = DIRECTION('',(2.946547254359E-15,0.432021648288,0.901863235425));
#191 = ADVANCED_FACE('',(#192),#221,.T.);
#192 = FACE_BOUND('',#193,.F.);
#193 = EDGE_LOOP('',(#194,#203,#212,#219,#220));
#194 = ORIENTED_EDGE('',*,*,#195,.T.);
#195 = EDGE_CURVE('',#41,#196,#198,.T.);
#196 = VERTEX_POINT('',#197);
#197 = CARTESIAN_POINT('',(-46.89075032409,16.6,4.2));
#198 = HYPERBOLA('',#199,6.,6.);
#199 = AXIS2_PLACEMENT_3D('',#200,#201,#202);
#200 = CARTESIAN_POINT('',(-54.701,11.6,4.2));
#201 = DIRECTION('',(0.,-1.95E-15,1.));
#202 = DIRECTION('',(1.,0.,0.));
#203 = ORIENTED_EDGE('',*,*,#204,.T.);
#204 = EDGE_CURVE('',#196,#205,#207,.T.);
#205 = VERTEX_POINT('',#206);
#206 = CARTESIAN_POINT('',(-46.501,16.6,4.699230723709));
#207 = HYPERBOLA('',#208,5.,5.);
#208 = AXIS2_PLACEMENT_3D('',#209,#210,#211);
#209 = CARTESIAN_POINT('',(-54.701,16.6,-1.8));
#210 = DIRECTION('',(0.,-1.,-7.12E-15));
#211 = DIRECTION('',(1.,0.,0.));
#212 = ORIENTED_EDGE('',*,*,#213,.F.);
#213 = EDGE_CURVE('',#147,#205,#214,.T.);
#214 = CIRCLE('',#215,8.2);
#215 = AXIS2_PLACEMENT_3D('',#216,#217,#218);
#216 = CARTESIAN_POINT('',(-46.501,11.6,-1.8));
#217 = DIRECTION('',(-1.,0.,0.));
#218 = DIRECTION('',(0.,0.436251405131,0.899824822685));
#219 = ORIENTED_EDGE('',*,*,#154,.F.);
#220 = ORIENTED_EDGE('',*,*,#48,.T.);
#221 = CONICAL_SURFACE('',#222,8.2,0.785398163397);
#222 = AXIS2_PLACEMENT_3D('',#223,#224,#225);
#223 = CARTESIAN_POINT('',(-46.501,11.6,-1.8));
#224 = DIRECTION('',(1.,0.,0.));
#225 = DIRECTION('',(0.,0.436251405131,0.899824822685));
#226 = ADVANCED_FACE('',(#227,#338),#372,.T.);
#227 = FACE_BOUND('',#228,.T.);
#228 = EDGE_LOOP('',(#229,#239,#248,#256,#264,#272,#280,#286,#287,#288,
    #289,#297,#306,#314,#323,#331));
#229 = ORIENTED_EDGE('',*,*,#230,.T.);
#230 = EDGE_CURVE('',#231,#233,#235,.T.);
#231 = VERTEX_POINT('',#232);
#232 = CARTESIAN_POINT('',(-47.001,6.774028595195,4.2));
#233 = VERTEX_POINT('',#234);
#234 = CARTESIAN_POINT('',(-47.021,6.774028595195,4.2));
#235 = LINE('',#236,#237);
#236 = CARTESIAN_POINT('',(-47.001,6.774028595195,4.2));
#237 = VECTOR('',#238,1.);
#238 = DIRECTION('',(-1.,8.5E-16,2.86E-15));
#239 = ORIENTED_EDGE('',*,*,#240,.F.);
#240 = EDGE_CURVE('',#241,#233,#243,.T.);
#241 = VERTEX_POINT('',#242);
#242 = CARTESIAN_POINT('',(-47.201,7.066745098718,4.2));
#243 = HYPERBOLA('',#244,6.,6.);
#244 = AXIS2_PLACEMENT_3D('',#245,#246,#247);
#245 = CARTESIAN_POINT('',(-54.721,11.6,4.2));
#246 = DIRECTION('',(-3.5E-16,6.1E-16,-1.));
#247 = DIRECTION('',(1.,-8.5E-16,-3.5E-16));
#248 = ORIENTED_EDGE('',*,*,#249,.F.);
#249 = EDGE_CURVE('',#250,#241,#252,.T.);
#250 = VERTEX_POINT('',#251);
#251 = CARTESIAN_POINT('',(-47.201,10.75,4.2));
#252 = LINE('',#253,#254);
#253 = CARTESIAN_POINT('',(-47.201,11.6,4.2));
#254 = VECTOR('',#255,1.);
#255 = DIRECTION('',(0.,-1.,0.));
#256 = ORIENTED_EDGE('',*,*,#257,.F.);
#257 = EDGE_CURVE('',#258,#250,#260,.T.);
#258 = VERTEX_POINT('',#259);
#259 = CARTESIAN_POINT('',(-46.001,10.75,4.2));
#260 = LINE('',#261,#262);
#261 = CARTESIAN_POINT('',(-47.001,10.75,4.2));
#262 = VECTOR('',#263,1.);
#263 = DIRECTION('',(-1.,8.5E-16,2.86E-15));
#264 = ORIENTED_EDGE('',*,*,#265,.T.);
#265 = EDGE_CURVE('',#258,#266,#268,.T.);
#266 = VERTEX_POINT('',#267);
#267 = CARTESIAN_POINT('',(-46.001,12.45,4.2));
#268 = LINE('',#269,#270);
#269 = CARTESIAN_POINT('',(-46.001,11.6,4.2));
#270 = VECTOR('',#271,1.);
#271 = DIRECTION('',(0.,1.,9.9E-16));
#272 = ORIENTED_EDGE('',*,*,#273,.F.);
#273 = EDGE_CURVE('',#274,#266,#276,.T.);
#274 = VERTEX_POINT('',#275);
#275 = CARTESIAN_POINT('',(-47.201,12.45,4.2));
#276 = LINE('',#277,#278);
#277 = CARTESIAN_POINT('',(-47.001,12.45,4.2));
#278 = VECTOR('',#279,1.);
#279 = DIRECTION('',(1.,0.,0.));
#280 = ORIENTED_EDGE('',*,*,#281,.F.);
#281 = EDGE_CURVE('',#172,#274,#282,.T.);
#282 = LINE('',#283,#284);
#283 = CARTESIAN_POINT('',(-47.201,16.6,4.2));
#284 = VECTOR('',#285,1.);
#285 = DIRECTION('',(0.,-1.,-1.95E-15));
#286 = ORIENTED_EDGE('',*,*,#171,.F.);
#287 = ORIENTED_EDGE('',*,*,#40,.F.);
#288 = ORIENTED_EDGE('',*,*,#195,.T.);
#289 = ORIENTED_EDGE('',*,*,#290,.F.);
#290 = EDGE_CURVE('',#291,#196,#293,.T.);
#291 = VERTEX_POINT('',#292);
#292 = CARTESIAN_POINT('',(-42.0112496759,16.6,4.2));
#293 = LINE('',#294,#295);
#294 = CARTESIAN_POINT('',(-41.901,16.6,4.2));
#295 = VECTOR('',#296,1.);
#296 = DIRECTION('',(-1.,0.,0.));
#297 = ORIENTED_EDGE('',*,*,#298,.F.);
#298 = EDGE_CURVE('',#299,#291,#301,.T.);
#299 = VERTEX_POINT('',#300);
#300 = CARTESIAN_POINT('',(-41.901,16.425971404805,4.2));
#301 = HYPERBOLA('',#302,6.,6.);
#302 = AXIS2_PLACEMENT_3D('',#303,#304,#305);
#303 = CARTESIAN_POINT('',(-34.201,11.6,4.2));
#304 = DIRECTION('',(0.,1.95E-15,-1.));
#305 = DIRECTION('',(-1.,0.,0.));
#306 = ORIENTED_EDGE('',*,*,#307,.T.);
#307 = EDGE_CURVE('',#299,#308,#310,.T.);
#308 = VERTEX_POINT('',#309);
#309 = CARTESIAN_POINT('',(-41.901,6.774028595195,4.2));
#310 = LINE('',#311,#312);
#311 = CARTESIAN_POINT('',(-41.901,11.6,4.2));
#312 = VECTOR('',#313,1.);
#313 = DIRECTION('',(0.,-1.,0.));
#314 = ORIENTED_EDGE('',*,*,#315,.T.);
#315 = EDGE_CURVE('',#308,#316,#318,.T.);
#316 = VERTEX_POINT('',#317);
#317 = CARTESIAN_POINT('',(-42.0112496759,6.6,4.2));
#318 = HYPERBOLA('',#319,6.,6.);
#319 = AXIS2_PLACEMENT_3D('',#320,#321,#322);
#320 = CARTESIAN_POINT('',(-34.201,11.6,4.2));
#321 = DIRECTION('',(0.,0.,1.));
#322 = DIRECTION('',(-1.,0.,0.));
#323 = ORIENTED_EDGE('',*,*,#324,.T.);
#324 = EDGE_CURVE('',#316,#325,#327,.T.);
#325 = VERTEX_POINT('',#326);
#326 = CARTESIAN_POINT('',(-46.89075032409,6.6,4.2));
#327 = LINE('',#328,#329);
#328 = CARTESIAN_POINT('',(-41.901,6.6,4.2));
#329 = VECTOR('',#330,1.);
#330 = DIRECTION('',(-1.,0.,0.));
#331 = ORIENTED_EDGE('',*,*,#332,.F.);
#332 = EDGE_CURVE('',#231,#325,#333,.T.);
#333 = HYPERBOLA('',#334,6.,6.);
#334 = AXIS2_PLACEMENT_3D('',#335,#336,#337);
#335 = CARTESIAN_POINT('',(-54.701,11.6,4.2));
#336 = DIRECTION('',(0.,0.,-1.));
#337 = DIRECTION('',(1.,0.,0.));
#338 = FACE_BOUND('',#339,.T.);
#339 = EDGE_LOOP('',(#340,#350,#358,#366));
#340 = ORIENTED_EDGE('',*,*,#341,.F.);
#341 = EDGE_CURVE('',#342,#344,#346,.T.);
#342 = VERTEX_POINT('',#343);
#343 = CARTESIAN_POINT('',(-43.501,10.7,4.2));
#344 = VERTEX_POINT('',#345);
#345 = CARTESIAN_POINT('',(-45.401,10.7,4.2));
#346 = LINE('',#347,#348);
#347 = CARTESIAN_POINT('',(-43.501,10.7,4.2));
#348 = VECTOR('',#349,1.);
#349 = DIRECTION('',(-1.,0.,0.));
#350 = ORIENTED_EDGE('',*,*,#351,.F.);
#351 = EDGE_CURVE('',#352,#342,#354,.T.);
#352 = VERTEX_POINT('',#353);
#353 = CARTESIAN_POINT('',(-43.501,12.5,4.2));
#354 = LINE('',#355,#356);
#355 = CARTESIAN_POINT('',(-43.501,12.5,4.2));
#356 = VECTOR('',#357,1.);
#357 = DIRECTION('',(0.,-1.,0.));
#358 = ORIENTED_EDGE('',*,*,#359,.F.);
#359 = EDGE_CURVE('',#360,#352,#362,.T.);
#360 = VERTEX_POINT('',#361);
#361 = CARTESIAN_POINT('',(-45.401,12.5,4.2));
#362 = LINE('',#363,#364);
#363 = CARTESIAN_POINT('',(-45.401,12.5,4.2));
#364 = VECTOR('',#365,1.);
#365 = DIRECTION('',(1.,0.,0.));
#366 = ORIENTED_EDGE('',*,*,#367,.F.);
#367 = EDGE_CURVE('',#344,#360,#368,.T.);
#368 = LINE('',#369,#370);
#369 = CARTESIAN_POINT('',(-45.401,10.7,4.2));
#370 = VECTOR('',#371,1.);
#371 = DIRECTION('',(0.,1.,0.));
#372 = PLANE('',#373);
#373 = AXIS2_PLACEMENT_3D('',#374,#375,#376);
#374 = CARTESIAN_POINT('',(-44.63793670897,11.6,4.2));
#375 = DIRECTION('',(-3.5E-16,6.1E-16,-1.));
#376 = DIRECTION('',(0.,-1.,-6.1E-16));
#377 = ADVANCED_FACE('',(#378),#540,.T.);
#378 = FACE_BOUND('',#379,.T.);
#379 = EDGE_LOOP('',(#380,#390,#398,#406,#415,#423,#431,#440,#448,#456,
    #465,#473,#479,#480,#481,#482,#483,#491,#500,#509,#518,#524,#525,
    #534));
#380 = ORIENTED_EDGE('',*,*,#381,.F.);
#381 = EDGE_CURVE('',#382,#384,#386,.T.);
#382 = VERTEX_POINT('',#383);
#383 = CARTESIAN_POINT('',(-47.201,7.539999580231,6.414692710234));
#384 = VERTEX_POINT('',#385);
#385 = CARTESIAN_POINT('',(-47.201,8.273433308181,5.144346912769));
#386 = LINE('',#387,#388);
#387 = CARTESIAN_POINT('',(-47.201,7.936789938154,5.727430938034));
#388 = VECTOR('',#389,1.);
#389 = DIRECTION('',(0.,0.499999611325,-0.866025628186));
#390 = ORIENTED_EDGE('',*,*,#391,.F.);
#391 = EDGE_CURVE('',#392,#382,#394,.T.);
#392 = VERTEX_POINT('',#393);
#393 = CARTESIAN_POINT('',(-47.201,8.406025208417,6.914692321559));
#394 = LINE('',#395,#396);
#395 = CARTESIAN_POINT('',(-47.201,8.406025208417,6.914692321559));
#396 = VECTOR('',#397,1.);
#397 = DIRECTION('',(0.,-0.866025628186,-0.499999611325));
#398 = ORIENTED_EDGE('',*,*,#399,.F.);
#399 = EDGE_CURVE('',#400,#392,#402,.T.);
#400 = VERTEX_POINT('',#401);
#401 = CARTESIAN_POINT('',(-47.201,8.893990063116,6.06951152491));
#402 = LINE('',#403,#404);
#403 = CARTESIAN_POINT('',(-47.201,8.893990063116,6.06951152491));
#404 = VECTOR('',#405,1.);
#405 = DIRECTION('',(0.,-0.499999611325,0.866025628186));
#406 = ORIENTED_EDGE('',*,*,#407,.T.);
#407 = EDGE_CURVE('',#400,#408,#410,.T.);
#408 = VERTEX_POINT('',#409);
#409 = CARTESIAN_POINT('',(-47.201,9.004434556741,6.152891784133));
#410 = CIRCLE('',#411,4.4);
#411 = AXIS2_PLACEMENT_3D('',#412,#413,#414);
#412 = CARTESIAN_POINT('',(-47.201,11.6,2.6));
#413 = DIRECTION('',(-1.,0.,0.));
#414 = DIRECTION('',(0.,-1.,0.));
#415 = ORIENTED_EDGE('',*,*,#416,.F.);
#416 = EDGE_CURVE('',#417,#408,#419,.T.);
#417 = VERTEX_POINT('',#418);
#418 = CARTESIAN_POINT('',(-47.201,9.299385175279,5.749154081409));
#419 = LINE('',#420,#421);
#420 = CARTESIAN_POINT('',(-47.201,9.299385175279,5.749154081409));
#421 = VECTOR('',#422,1.);
#422 = DIRECTION('',(0.,-0.589901237104,0.807475405485));
#423 = ORIENTED_EDGE('',*,*,#424,.T.);
#424 = EDGE_CURVE('',#417,#425,#427,.T.);
#425 = VERTEX_POINT('',#426);
#426 = CARTESIAN_POINT('',(-47.201,9.405567397958,5.603808508422));
#427 = LINE('',#428,#429);
#428 = CARTESIAN_POINT('',(-47.201,9.655229744854,5.26206281929));
#429 = VECTOR('',#430,1.);
#430 = DIRECTION('',(-1.81E-15,0.589901237104,-0.807475405485));
#431 = ORIENTED_EDGE('',*,*,#432,.T.);
#432 = EDGE_CURVE('',#425,#433,#435,.T.);
#433 = VERTEX_POINT('',#434);
#434 = CARTESIAN_POINT('',(-47.201,13.794432602042,5.603808508422));
#435 = CIRCLE('',#436,3.720000000023);
#436 = AXIS2_PLACEMENT_3D('',#437,#438,#439);
#437 = CARTESIAN_POINT('',(-47.201,11.6,2.6));
#438 = DIRECTION('',(-1.,8.5E-16,2.86E-15));
#439 = DIRECTION('',(1.807963608148E-15,-0.589901237104,0.807475405485)
  );
#440 = ORIENTED_EDGE('',*,*,#441,.F.);
#441 = EDGE_CURVE('',#442,#433,#444,.T.);
#442 = VERTEX_POINT('',#443);
#443 = CARTESIAN_POINT('',(-47.201,13.900614824721,5.749154081409));
#444 = LINE('',#445,#446);
#445 = CARTESIAN_POINT('',(-47.201,13.544770255146,5.26206281929));
#446 = VECTOR('',#447,1.);
#447 = DIRECTION('',(-2.81E-15,-0.589901237104,-0.807475405485));
#448 = ORIENTED_EDGE('',*,*,#449,.T.);
#449 = EDGE_CURVE('',#442,#450,#452,.T.);
#450 = VERTEX_POINT('',#451);
#451 = CARTESIAN_POINT('',(-47.201,14.195565443259,6.152891784133));
#452 = LINE('',#453,#454);
#453 = CARTESIAN_POINT('',(-47.201,13.900614824721,5.749154081409));
#454 = VECTOR('',#455,1.);
#455 = DIRECTION('',(0.,0.589901237104,0.807475405485));
#456 = ORIENTED_EDGE('',*,*,#457,.T.);
#457 = EDGE_CURVE('',#450,#458,#460,.T.);
#458 = VERTEX_POINT('',#459);
#459 = CARTESIAN_POINT('',(-47.201,14.306009936884,6.06951152491));
#460 = CIRCLE('',#461,4.4);
#461 = AXIS2_PLACEMENT_3D('',#462,#463,#464);
#462 = CARTESIAN_POINT('',(-47.201,11.6,2.6));
#463 = DIRECTION('',(-1.,0.,0.));
#464 = DIRECTION('',(0.,-1.,0.));
#465 = ORIENTED_EDGE('',*,*,#466,.T.);
#466 = EDGE_CURVE('',#458,#467,#469,.T.);
#467 = VERTEX_POINT('',#468);
#468 = CARTESIAN_POINT('',(-47.201,14.793974791583,6.914692321559));
#469 = LINE('',#470,#471);
#470 = CARTESIAN_POINT('',(-47.201,14.306009936884,6.06951152491));
#471 = VECTOR('',#472,1.);
#472 = DIRECTION('',(0.,0.499999611325,0.866025628186));
#473 = ORIENTED_EDGE('',*,*,#474,.T.);
#474 = EDGE_CURVE('',#467,#82,#475,.T.);
#475 = LINE('',#476,#477);
#476 = CARTESIAN_POINT('',(-47.201,14.793974791583,6.914692321559));
#477 = VECTOR('',#478,1.);
#478 = DIRECTION('',(0.,0.866025628186,-0.499999611325));
#479 = ORIENTED_EDGE('',*,*,#81,.T.);
#480 = ORIENTED_EDGE('',*,*,#73,.T.);
#481 = ORIENTED_EDGE('',*,*,#180,.T.);
#482 = ORIENTED_EDGE('',*,*,#281,.T.);
#483 = ORIENTED_EDGE('',*,*,#484,.T.);
#484 = EDGE_CURVE('',#274,#485,#487,.T.);
#485 = VERTEX_POINT('',#486);
#486 = CARTESIAN_POINT('',(-47.201,12.45,4.));
#487 = LINE('',#488,#489);
#488 = CARTESIAN_POINT('',(-47.201,12.45,4.2));
#489 = VECTOR('',#490,1.);
#490 = DIRECTION('',(0.,0.,-1.));
#491 = ORIENTED_EDGE('',*,*,#492,.F.);
#492 = EDGE_CURVE('',#493,#485,#495,.T.);
#493 = VERTEX_POINT('',#494);
#494 = CARTESIAN_POINT('',(-47.201,12.426135582093,4.2));
#495 = CIRCLE('',#496,0.85);
#496 = AXIS2_PLACEMENT_3D('',#497,#498,#499);
#497 = CARTESIAN_POINT('',(-47.201,11.6,4.));
#498 = DIRECTION('',(-1.,0.,0.));
#499 = DIRECTION('',(0.,-1.,0.));
#500 = ORIENTED_EDGE('',*,*,#501,.F.);
#501 = EDGE_CURVE('',#502,#493,#504,.T.);
#502 = VERTEX_POINT('',#503);
#503 = CARTESIAN_POINT('',(-47.201,10.773864417907,4.2));
#504 = CIRCLE('',#505,0.85);
#505 = AXIS2_PLACEMENT_3D('',#506,#507,#508);
#506 = CARTESIAN_POINT('',(-47.201,11.6,4.));
#507 = DIRECTION('',(-1.,0.,0.));
#508 = DIRECTION('',(0.,-1.,0.));
#509 = ORIENTED_EDGE('',*,*,#510,.F.);
#510 = EDGE_CURVE('',#511,#502,#513,.T.);
#511 = VERTEX_POINT('',#512);
#512 = CARTESIAN_POINT('',(-47.201,10.75,4.));
#513 = CIRCLE('',#514,0.85);
#514 = AXIS2_PLACEMENT_3D('',#515,#516,#517);
#515 = CARTESIAN_POINT('',(-47.201,11.6,4.));
#516 = DIRECTION('',(-1.,0.,0.));
#517 = DIRECTION('',(0.,-1.,0.));
#518 = ORIENTED_EDGE('',*,*,#519,.F.);
#519 = EDGE_CURVE('',#250,#511,#520,.T.);
#520 = LINE('',#521,#522);
#521 = CARTESIAN_POINT('',(-47.201,10.75,4.2));
#522 = VECTOR('',#523,1.);
#523 = DIRECTION('',(0.,0.,-1.));
#524 = ORIENTED_EDGE('',*,*,#249,.T.);
#525 = ORIENTED_EDGE('',*,*,#526,.T.);
#526 = EDGE_CURVE('',#241,#527,#529,.T.);
#527 = VERTEX_POINT('',#528);
#528 = CARTESIAN_POINT('',(-47.201,8.363706174085,4.987989560418));
#529 = CIRCLE('',#530,7.52);
#530 = AXIS2_PLACEMENT_3D('',#531,#532,#533);
#531 = CARTESIAN_POINT('',(-47.201,11.6,-1.8));
#532 = DIRECTION('',(-1.,8.5E-16,2.86E-15));
#533 = DIRECTION('',(1.695834325444E-15,-0.626749533092,0.779220779221)
  );
#534 = ORIENTED_EDGE('',*,*,#535,.F.);
#535 = EDGE_CURVE('',#384,#527,#536,.T.);
#536 = LINE('',#537,#538);
#537 = CARTESIAN_POINT('',(-47.201,8.280298265163,5.132456446161));
#538 = VECTOR('',#539,1.);
#539 = DIRECTION('',(-2.05E-15,0.499999611325,-0.866025628186));
#540 = PLANE('',#541);
#541 = AXIS2_PLACEMENT_3D('',#542,#543,#544);
#542 = CARTESIAN_POINT('',(-47.201,11.6,5.552687105876));
#543 = DIRECTION('',(-1.,8.5E-16,2.86E-15));
#544 = DIRECTION('',(-2.86E-15,0.,-1.));
#545 = ADVANCED_FACE('',(#546),#565,.T.);
#546 = FACE_BOUND('',#547,.F.);
#547 = EDGE_LOOP('',(#548,#549,#550,#558));
#548 = ORIENTED_EDGE('',*,*,#146,.T.);
#549 = ORIENTED_EDGE('',*,*,#213,.T.);
#550 = ORIENTED_EDGE('',*,*,#551,.F.);
#551 = EDGE_CURVE('',#552,#205,#554,.T.);
#552 = VERTEX_POINT('',#553);
#553 = CARTESIAN_POINT('',(-42.401,16.6,4.699230723709));
#554 = LINE('',#555,#556);
#555 = CARTESIAN_POINT('',(-41.901,16.6,4.699230723709));
#556 = VECTOR('',#557,1.);
#557 = DIRECTION('',(-1.,0.,0.));
#558 = ORIENTED_EDGE('',*,*,#559,.F.);
#559 = EDGE_CURVE('',#138,#552,#560,.T.);
#560 = CIRCLE('',#561,8.2);
#561 = AXIS2_PLACEMENT_3D('',#562,#563,#564);
#562 = CARTESIAN_POINT('',(-42.401,11.6,-1.8));
#563 = DIRECTION('',(-1.,0.,0.));
#564 = DIRECTION('',(0.,0.436251405131,0.899824822685));
#565 = CYLINDRICAL_SURFACE('',#566,8.2);
#566 = AXIS2_PLACEMENT_3D('',#567,#568,#569);
#567 = CARTESIAN_POINT('',(-41.901,11.6,-1.8));
#568 = DIRECTION('',(1.,0.,0.));
#569 = DIRECTION('',(0.,-1.,0.));
#570 = ADVANCED_FACE('',(#571),#590,.T.);
#571 = FACE_BOUND('',#572,.T.);
#572 = EDGE_LOOP('',(#573,#574,#581,#582,#583));
#573 = ORIENTED_EDGE('',*,*,#298,.T.);
#574 = ORIENTED_EDGE('',*,*,#575,.T.);
#575 = EDGE_CURVE('',#291,#552,#576,.T.);
#576 = HYPERBOLA('',#577,5.,5.);
#577 = AXIS2_PLACEMENT_3D('',#578,#579,#580);
#578 = CARTESIAN_POINT('',(-34.201,16.6,-1.8));
#579 = DIRECTION('',(0.,1.,7.12E-15));
#580 = DIRECTION('',(-1.,0.,0.));
#581 = ORIENTED_EDGE('',*,*,#559,.F.);
#582 = ORIENTED_EDGE('',*,*,#137,.F.);
#583 = ORIENTED_EDGE('',*,*,#584,.T.);
#584 = EDGE_CURVE('',#130,#299,#585,.T.);
#585 = CIRCLE('',#586,7.7);
#586 = AXIS2_PLACEMENT_3D('',#587,#588,#589);
#587 = CARTESIAN_POINT('',(-41.901,11.6,-1.8));
#588 = DIRECTION('',(-1.,0.,0.));
#589 = DIRECTION('',(0.,0.436251405131,0.899824822685));
#590 = CONICAL_SURFACE('',#591,8.2,0.785398163397);
#591 = AXIS2_PLACEMENT_3D('',#592,#593,#594);
#592 = CARTESIAN_POINT('',(-42.401,11.6,-1.8));
#593 = DIRECTION('',(-1.,0.,0.));
#594 = DIRECTION('',(0.,0.436251405131,0.899824822685));
#595 = ADVANCED_FACE('',(#596),#614,.F.);
#596 = FACE_BOUND('',#597,.F.);
#597 = EDGE_LOOP('',(#598,#606,#607,#608));
#598 = ORIENTED_EDGE('',*,*,#599,.F.);
#599 = EDGE_CURVE('',#467,#600,#602,.T.);
#600 = VERTEX_POINT('',#601);
#601 = CARTESIAN_POINT('',(-47.021,14.883974721622,7.070576934633));
#602 = LINE('',#603,#604);
#603 = CARTESIAN_POINT('',(-46.50307421209,15.142937414269,
    7.519113940456));
#604 = VECTOR('',#605,1.);
#605 = DIRECTION('',(0.707106781187,0.353553115758,0.612372594372));
#606 = ORIENTED_EDGE('',*,*,#474,.T.);
#607 = ORIENTED_EDGE('',*,*,#89,.T.);
#608 = ORIENTED_EDGE('',*,*,#609,.F.);
#609 = EDGE_CURVE('',#600,#90,#610,.T.);
#610 = LINE('',#611,#612);
#611 = CARTESIAN_POINT('',(-47.021,14.883974721622,7.070576934633));
#612 = VECTOR('',#613,1.);
#613 = DIRECTION('',(0.,0.866025628186,-0.499999611325));
#614 = PLANE('',#615);
#615 = AXIS2_PLACEMENT_3D('',#616,#617,#618);
#616 = CARTESIAN_POINT('',(-47.111,14.838974756602,6.992634628096));
#617 = DIRECTION('',(0.707106781187,-0.353553115758,-0.612372594372));
#618 = DIRECTION('',(-3.608224830032E-16,0.866025628186,-0.499999611325)
  );
#619 = ADVANCED_FACE('',(#620),#715,.T.);
#620 = FACE_BOUND('',#621,.T.);
#621 = EDGE_LOOP('',(#622,#631,#632,#633,#634,#642,#650,#659,#667,#676,
    #684,#693,#701,#709));
#622 = ORIENTED_EDGE('',*,*,#623,.F.);
#623 = EDGE_CURVE('',#308,#624,#626,.T.);
#624 = VERTEX_POINT('',#625);
#625 = CARTESIAN_POINT('',(-41.901,8.273433308181,5.144346912769));
#626 = CIRCLE('',#627,7.7);
#627 = AXIS2_PLACEMENT_3D('',#628,#629,#630);
#628 = CARTESIAN_POINT('',(-41.901,11.6,-1.8));
#629 = DIRECTION('',(-1.,0.,0.));
#630 = DIRECTION('',(0.,-0.609756097561,0.792589112647));
#631 = ORIENTED_EDGE('',*,*,#307,.F.);
#632 = ORIENTED_EDGE('',*,*,#584,.F.);
#633 = ORIENTED_EDGE('',*,*,#129,.F.);
#634 = ORIENTED_EDGE('',*,*,#635,.F.);
#635 = EDGE_CURVE('',#636,#122,#638,.T.);
#636 = VERTEX_POINT('',#637);
#637 = CARTESIAN_POINT('',(-41.901,14.933974682754,7.157179497451));
#638 = LINE('',#639,#640);
#639 = CARTESIAN_POINT('',(-41.901,14.933974682754,7.157179497451));
#640 = VECTOR('',#641,1.);
#641 = DIRECTION('',(0.,0.866025628186,-0.499999611325));
#642 = ORIENTED_EDGE('',*,*,#643,.F.);
#643 = EDGE_CURVE('',#644,#636,#646,.T.);
#644 = VERTEX_POINT('',#645);
#645 = CARTESIAN_POINT('',(-41.901,14.306009936884,6.06951152491));
#646 = LINE('',#647,#648);
#647 = CARTESIAN_POINT('',(-41.901,14.306009936884,6.06951152491));
#648 = VECTOR('',#649,1.);
#649 = DIRECTION('',(0.,0.499999611325,0.866025628186));
#650 = ORIENTED_EDGE('',*,*,#651,.F.);
#651 = EDGE_CURVE('',#652,#644,#654,.T.);
#652 = VERTEX_POINT('',#653);
#653 = CARTESIAN_POINT('',(-41.901,14.195565443259,6.152891784133));
#654 = CIRCLE('',#655,4.4);
#655 = AXIS2_PLACEMENT_3D('',#656,#657,#658);
#656 = CARTESIAN_POINT('',(-41.901,11.6,2.6));
#657 = DIRECTION('',(-1.,0.,0.));
#658 = DIRECTION('',(0.,-1.,0.));
#659 = ORIENTED_EDGE('',*,*,#660,.T.);
#660 = EDGE_CURVE('',#652,#661,#663,.T.);
#661 = VERTEX_POINT('',#662);
#662 = CARTESIAN_POINT('',(-41.901,13.900614824707,5.74915408139));
#663 = LINE('',#664,#665);
#664 = CARTESIAN_POINT('',(-41.901,14.195565443259,6.152891784133));
#665 = VECTOR('',#666,1.);
#666 = DIRECTION('',(0.,-0.589901237104,-0.807475405485));
#667 = ORIENTED_EDGE('',*,*,#668,.F.);
#668 = EDGE_CURVE('',#669,#661,#671,.T.);
#669 = VERTEX_POINT('',#670);
#670 = CARTESIAN_POINT('',(-41.901,9.299385175293,5.74915408139));
#671 = CIRCLE('',#672,3.9);
#672 = AXIS2_PLACEMENT_3D('',#673,#674,#675);
#673 = CARTESIAN_POINT('',(-41.901,11.6,2.6));
#674 = DIRECTION('',(-1.,0.,0.));
#675 = DIRECTION('',(0.,-0.589901237104,0.807475405485));
#676 = ORIENTED_EDGE('',*,*,#677,.F.);
#677 = EDGE_CURVE('',#678,#669,#680,.T.);
#678 = VERTEX_POINT('',#679);
#679 = CARTESIAN_POINT('',(-41.901,9.004434556741,6.152891784133));
#680 = LINE('',#681,#682);
#681 = CARTESIAN_POINT('',(-41.901,9.004434556741,6.152891784133));
#682 = VECTOR('',#683,1.);
#683 = DIRECTION('',(0.,0.589901237104,-0.807475405485));
#684 = ORIENTED_EDGE('',*,*,#685,.F.);
#685 = EDGE_CURVE('',#686,#678,#688,.T.);
#686 = VERTEX_POINT('',#687);
#687 = CARTESIAN_POINT('',(-41.901,8.893990063116,6.06951152491));
#688 = CIRCLE('',#689,4.4);
#689 = AXIS2_PLACEMENT_3D('',#690,#691,#692);
#690 = CARTESIAN_POINT('',(-41.901,11.6,2.6));
#691 = DIRECTION('',(-1.,0.,0.));
#692 = DIRECTION('',(0.,-1.,0.));
#693 = ORIENTED_EDGE('',*,*,#694,.T.);
#694 = EDGE_CURVE('',#686,#695,#697,.T.);
#695 = VERTEX_POINT('',#696);
#696 = CARTESIAN_POINT('',(-41.901,8.266025317246,7.157179497451));
#697 = LINE('',#698,#699);
#698 = CARTESIAN_POINT('',(-41.901,8.893990063116,6.06951152491));
#699 = VECTOR('',#700,1.);
#700 = DIRECTION('',(0.,-0.499999611325,0.866025628186));
#701 = ORIENTED_EDGE('',*,*,#702,.T.);
#702 = EDGE_CURVE('',#695,#703,#705,.T.);
#703 = VERTEX_POINT('',#704);
#704 = CARTESIAN_POINT('',(-41.901,7.39999968906,6.657179886126));
#705 = LINE('',#706,#707);
#706 = CARTESIAN_POINT('',(-41.901,8.266025317246,7.157179497451));
#707 = VECTOR('',#708,1.);
#708 = DIRECTION('',(0.,-0.866025628186,-0.499999611325));
#709 = ORIENTED_EDGE('',*,*,#710,.T.);
#710 = EDGE_CURVE('',#703,#624,#711,.T.);
#711 = LINE('',#712,#713);
#712 = CARTESIAN_POINT('',(-41.901,7.936789938154,5.727430938034));
#713 = VECTOR('',#714,1.);
#714 = DIRECTION('',(0.,0.499999611325,-0.866025628186));
#715 = PLANE('',#716);
#716 = AXIS2_PLACEMENT_3D('',#717,#718,#719);
#717 = CARTESIAN_POINT('',(-41.901,11.6,5.678959248228));
#718 = DIRECTION('',(1.,0.,0.));
#719 = DIRECTION('',(0.,0.,1.));
#720 = ADVANCED_FACE('',(#721),#739,.F.);
#721 = FACE_BOUND('',#722,.F.);
#722 = EDGE_LOOP('',(#723,#731,#732,#733));
#723 = ORIENTED_EDGE('',*,*,#724,.T.);
#724 = EDGE_CURVE('',#725,#600,#727,.T.);
#725 = VERTEX_POINT('',#726);
#726 = CARTESIAN_POINT('',(-47.001,14.883974721622,7.070576934633));
#727 = LINE('',#728,#729);
#728 = CARTESIAN_POINT('',(-47.001,14.883974721622,7.070576934633));
#729 = VECTOR('',#730,1.);
#730 = DIRECTION('',(-1.,8.5E-16,2.86E-15));
#731 = ORIENTED_EDGE('',*,*,#609,.T.);
#732 = ORIENTED_EDGE('',*,*,#97,.F.);
#733 = ORIENTED_EDGE('',*,*,#734,.F.);
#734 = EDGE_CURVE('',#725,#98,#735,.T.);
#735 = LINE('',#736,#737);
#736 = CARTESIAN_POINT('',(-47.001,14.883974721622,7.070576934633));
#737 = VECTOR('',#738,1.);
#738 = DIRECTION('',(0.,0.866025628186,-0.499999611325));
#739 = PLANE('',#740);
#740 = AXIS2_PLACEMENT_3D('',#741,#742,#743);
#741 = CARTESIAN_POINT('',(-47.001,14.883974721622,7.070576934633));
#742 = DIRECTION('',(-2.9E-15,-0.499999611325,-0.866025628186));
#743 = DIRECTION('',(0.,0.866025628186,-0.499999611325));
#744 = ADVANCED_FACE('',(#745),#763,.F.);
#745 = FACE_BOUND('',#746,.F.);
#746 = EDGE_LOOP('',(#747,#755,#761,#762));
#747 = ORIENTED_EDGE('',*,*,#748,.F.);
#748 = EDGE_CURVE('',#749,#636,#751,.T.);
#749 = VERTEX_POINT('',#750);
#750 = CARTESIAN_POINT('',(-42.701,15.333974371814,7.85));
#751 = LINE('',#752,#753);
#752 = CARTESIAN_POINT('',(-41.78701738299,14.876983418552,
    7.058467629953));
#753 = VECTOR('',#754,1.);
#754 = DIRECTION('',(0.707106781187,-0.353553115758,-0.612372594372));
#755 = ORIENTED_EDGE('',*,*,#756,.T.);
#756 = EDGE_CURVE('',#749,#114,#757,.T.);
#757 = LINE('',#758,#759);
#758 = CARTESIAN_POINT('',(-42.701,15.333974371814,7.85));
#759 = VECTOR('',#760,1.);
#760 = DIRECTION('',(0.,0.866025628186,-0.499999611325));
#761 = ORIENTED_EDGE('',*,*,#121,.T.);
#762 = ORIENTED_EDGE('',*,*,#635,.F.);
#763 = PLANE('',#764);
#764 = AXIS2_PLACEMENT_3D('',#765,#766,#767);
#765 = CARTESIAN_POINT('',(-42.301,15.133974527284,7.503589748726));
#766 = DIRECTION('',(-0.707106781187,-0.353553115758,-0.612372594372));
#767 = DIRECTION('',(2.775557561563E-17,0.866025628186,-0.499999611325)
  );
#768 = ADVANCED_FACE('',(#769),#787,.F.);
#769 = FACE_BOUND('',#770,.T.);
#770 = EDGE_LOOP('',(#771,#779,#785,#786));
#771 = ORIENTED_EDGE('',*,*,#772,.F.);
#772 = EDGE_CURVE('',#773,#725,#775,.T.);
#773 = VERTEX_POINT('',#774);
#774 = CARTESIAN_POINT('',(-46.101,15.333974371814,7.85));
#775 = LINE('',#776,#777);
#776 = CARTESIAN_POINT('',(-45.78998261701,15.489482942424,
    8.119349024481));
#777 = VECTOR('',#778,1.);
#778 = DIRECTION('',(-0.707106781187,-0.353553115758,-0.612372594372));
#779 = ORIENTED_EDGE('',*,*,#780,.T.);
#780 = EDGE_CURVE('',#773,#106,#781,.T.);
#781 = LINE('',#782,#783);
#782 = CARTESIAN_POINT('',(-46.101,15.333974371814,7.85));
#783 = VECTOR('',#784,1.);
#784 = DIRECTION('',(0.,0.866025628186,-0.499999611325));
#785 = ORIENTED_EDGE('',*,*,#105,.T.);
#786 = ORIENTED_EDGE('',*,*,#734,.F.);
#787 = PLANE('',#788);
#788 = AXIS2_PLACEMENT_3D('',#789,#790,#791);
#789 = CARTESIAN_POINT('',(-46.551,15.108974546718,7.460288467316));
#790 = DIRECTION('',(0.707106781187,-0.353553115758,-0.612372594372));
#791 = DIRECTION('',(3.053113317719E-16,-0.866025628186,0.499999611325)
  );
#792 = ADVANCED_FACE('',(#793),#804,.F.);
#793 = FACE_BOUND('',#794,.F.);
#794 = EDGE_LOOP('',(#795,#801,#802,#803));
#795 = ORIENTED_EDGE('',*,*,#796,.T.);
#796 = EDGE_CURVE('',#749,#773,#797,.T.);
#797 = LINE('',#798,#799);
#798 = CARTESIAN_POINT('',(-41.901,15.333974371814,7.85));
#799 = VECTOR('',#800,1.);
#800 = DIRECTION('',(-1.,0.,0.));
#801 = ORIENTED_EDGE('',*,*,#780,.T.);
#802 = ORIENTED_EDGE('',*,*,#113,.F.);
#803 = ORIENTED_EDGE('',*,*,#756,.F.);
#804 = PLANE('',#805);
#805 = AXIS2_PLACEMENT_3D('',#806,#807,#808);
#806 = CARTESIAN_POINT('',(-41.901,15.333974371814,7.85));
#807 = DIRECTION('',(-0.,-0.499999611325,-0.866025628186));
#808 = DIRECTION('',(0.,0.866025628186,-0.499999611325));
#809 = ADVANCED_FACE('',(#810),#869,.T.);
#810 = FACE_BOUND('',#811,.T.);
#811 = EDGE_LOOP('',(#812,#822,#830,#836,#837,#838,#839,#847,#855,#863)
  );
#812 = ORIENTED_EDGE('',*,*,#813,.F.);
#813 = EDGE_CURVE('',#814,#816,#818,.T.);
#814 = VERTEX_POINT('',#815);
#815 = CARTESIAN_POINT('',(-46.94631360007,16.6,4.333324591569));
#816 = VERTEX_POINT('',#817);
#817 = CARTESIAN_POINT('',(-46.601,16.6,4.7));
#818 = LINE('',#819,#820);
#819 = CARTESIAN_POINT('',(-46.97617232835,16.6,4.301618741043));
#820 = VECTOR('',#821,1.);
#821 = DIRECTION('',(0.685582949624,0.,0.72799451865));
#822 = ORIENTED_EDGE('',*,*,#823,.F.);
#823 = EDGE_CURVE('',#824,#814,#826,.T.);
#824 = VERTEX_POINT('',#825);
#825 = CARTESIAN_POINT('',(-46.89430604047,16.6,4.2));
#826 = LINE('',#827,#828);
#827 = CARTESIAN_POINT('',(-46.91476660238,16.6,4.252451914329));
#828 = VECTOR('',#829,1.);
#829 = DIRECTION('',(-0.36341180363,0.,0.931628606786));
#830 = ORIENTED_EDGE('',*,*,#831,.T.);
#831 = EDGE_CURVE('',#824,#196,#832,.T.);
#832 = LINE('',#833,#834);
#833 = CARTESIAN_POINT('',(-47.001,16.6,4.2));
#834 = VECTOR('',#835,1.);
#835 = DIRECTION('',(1.,0.,0.));
#836 = ORIENTED_EDGE('',*,*,#204,.T.);
#837 = ORIENTED_EDGE('',*,*,#551,.F.);
#838 = ORIENTED_EDGE('',*,*,#575,.F.);
#839 = ORIENTED_EDGE('',*,*,#840,.T.);
#840 = EDGE_CURVE('',#291,#841,#843,.T.);
#841 = VERTEX_POINT('',#842);
#842 = CARTESIAN_POINT('',(-42.00769395952,16.6,4.2));
#843 = LINE('',#844,#845);
#844 = CARTESIAN_POINT('',(-47.001,16.6,4.2));
#845 = VECTOR('',#846,1.);
#846 = DIRECTION('',(1.,0.,0.));
#847 = ORIENTED_EDGE('',*,*,#848,.T.);
#848 = EDGE_CURVE('',#841,#849,#851,.T.);
#849 = VERTEX_POINT('',#850);
#850 = CARTESIAN_POINT('',(-41.95568639993,16.6,4.333324591569));
#851 = LINE('',#852,#853);
#852 = CARTESIAN_POINT('',(-42.3144698651,16.6,3.413561016297));
#853 = VECTOR('',#854,1.);
#854 = DIRECTION('',(0.36341180363,0.,0.931628606786));
#855 = ORIENTED_EDGE('',*,*,#856,.F.);
#856 = EDGE_CURVE('',#857,#849,#859,.T.);
#857 = VERTEX_POINT('',#858);
#858 = CARTESIAN_POINT('',(-42.301,16.6,4.7));
#859 = LINE('',#860,#861);
#860 = CARTESIAN_POINT('',(-43.12438882272,16.6,5.574325346029));
#861 = VECTOR('',#862,1.);
#862 = DIRECTION('',(0.685582949624,0.,-0.72799451865));
#863 = ORIENTED_EDGE('',*,*,#864,.F.);
#864 = EDGE_CURVE('',#816,#857,#865,.T.);
#865 = LINE('',#866,#867);
#866 = CARTESIAN_POINT('',(-47.001,16.6,4.7));
#867 = VECTOR('',#868,1.);
#868 = DIRECTION('',(1.,0.,0.));
#869 = PLANE('',#870);
#870 = AXIS2_PLACEMENT_3D('',#871,#872,#873);
#871 = CARTESIAN_POINT('',(-47.001,16.6,4.2));
#872 = DIRECTION('',(0.,-1.,0.));
#873 = DIRECTION('',(0.,0.,1.));
#874 = ADVANCED_FACE('',(#875),#902,.T.);
#875 = FACE_BOUND('',#876,.F.);
#876 = EDGE_LOOP('',(#877,#878,#887,#895));
#877 = ORIENTED_EDGE('',*,*,#230,.T.);
#878 = ORIENTED_EDGE('',*,*,#879,.T.);
#879 = EDGE_CURVE('',#233,#880,#882,.T.);
#880 = VERTEX_POINT('',#881);
#881 = CARTESIAN_POINT('',(-47.021,8.273433308181,5.144346912769));
#882 = CIRCLE('',#883,7.7);
#883 = AXIS2_PLACEMENT_3D('',#884,#885,#886);
#884 = CARTESIAN_POINT('',(-47.021,11.6,-1.8));
#885 = DIRECTION('',(-1.,8.5E-16,2.86E-15));
#886 = DIRECTION('',(1.695834325444E-15,-0.626749533092,0.779220779221)
  );
#887 = ORIENTED_EDGE('',*,*,#888,.F.);
#888 = EDGE_CURVE('',#889,#880,#891,.T.);
#889 = VERTEX_POINT('',#890);
#890 = CARTESIAN_POINT('',(-47.001,8.273433308181,5.144346912769));
#891 = LINE('',#892,#893);
#892 = CARTESIAN_POINT('',(-47.001,8.273433308181,5.144346912769));
#893 = VECTOR('',#894,1.);
#894 = DIRECTION('',(-1.,8.5E-16,2.86E-15));
#895 = ORIENTED_EDGE('',*,*,#896,.F.);
#896 = EDGE_CURVE('',#231,#889,#897,.T.);
#897 = CIRCLE('',#898,7.7);
#898 = AXIS2_PLACEMENT_3D('',#899,#900,#901);
#899 = CARTESIAN_POINT('',(-47.001,11.6,-1.8));
#900 = DIRECTION('',(-1.,0.,0.));
#901 = DIRECTION('',(0.,-0.609756097561,0.792589112647));
#902 = CYLINDRICAL_SURFACE('',#903,7.7);
#903 = AXIS2_PLACEMENT_3D('',#904,#905,#906);
#904 = CARTESIAN_POINT('',(-47.001,11.6,-1.8));
#905 = DIRECTION('',(1.,0.,0.));
#906 = DIRECTION('',(0.,-0.609756097561,0.792589112647));
#907 = ADVANCED_FACE('',(#908),#920,.T.);
#908 = FACE_BOUND('',#909,.F.);
#909 = EDGE_LOOP('',(#910,#911,#912,#919));
#910 = ORIENTED_EDGE('',*,*,#240,.F.);
#911 = ORIENTED_EDGE('',*,*,#526,.T.);
#912 = ORIENTED_EDGE('',*,*,#913,.T.);
#913 = EDGE_CURVE('',#527,#880,#914,.T.);
#914 = HYPERBOLA('',#915,0.591278748304,0.591278748304);
#915 = AXIS2_PLACEMENT_3D('',#916,#917,#918);
#916 = CARTESIAN_POINT('',(-54.721,12.112062549433,-1.504360855664));
#917 = DIRECTION('',(0.,-0.866025628186,-0.499999611325));
#918 = DIRECTION('',(1.,1.028261809598E-15,-1.781003543657E-15));
#919 = ORIENTED_EDGE('',*,*,#879,.F.);
#920 = CONICAL_SURFACE('',#921,7.7,0.785398163397);
#921 = AXIS2_PLACEMENT_3D('',#922,#923,#924);
#922 = CARTESIAN_POINT('',(-47.021,11.6,-1.8));
#923 = DIRECTION('',(1.,-8.5E-16,-2.86E-15));
#924 = DIRECTION('',(1.695834325444E-15,-0.626749533092,0.779220779221)
  );
#925 = ADVANCED_FACE('',(#926),#955,.T.);
#926 = FACE_BOUND('',#927,.F.);
#927 = EDGE_LOOP('',(#928,#929,#930,#939,#948));
#928 = ORIENTED_EDGE('',*,*,#332,.F.);
#929 = ORIENTED_EDGE('',*,*,#896,.T.);
#930 = ORIENTED_EDGE('',*,*,#931,.T.);
#931 = EDGE_CURVE('',#889,#932,#934,.T.);
#932 = VERTEX_POINT('',#933);
#933 = CARTESIAN_POINT('',(-46.501,8.022738477923,5.578563546021));
#934 = HYPERBOLA('',#935,0.591278748304,0.591278748304);
#935 = AXIS2_PLACEMENT_3D('',#936,#937,#938);
#936 = CARTESIAN_POINT('',(-54.701,12.112062549433,-1.504360855664));
#937 = DIRECTION('',(0.,-0.866025628186,-0.499999611325));
#938 = DIRECTION('',(1.,0.,0.));
#939 = ORIENTED_EDGE('',*,*,#940,.F.);
#940 = EDGE_CURVE('',#941,#932,#943,.T.);
#941 = VERTEX_POINT('',#942);
#942 = CARTESIAN_POINT('',(-46.501,6.6,4.699230723709));
#943 = CIRCLE('',#944,8.2);
#944 = AXIS2_PLACEMENT_3D('',#945,#946,#947);
#945 = CARTESIAN_POINT('',(-46.501,11.6,-1.8));
#946 = DIRECTION('',(-1.,0.,0.));
#947 = DIRECTION('',(0.,-0.609756097561,0.792589112647));
#948 = ORIENTED_EDGE('',*,*,#949,.F.);
#949 = EDGE_CURVE('',#325,#941,#950,.T.);
#950 = HYPERBOLA('',#951,5.,5.);
#951 = AXIS2_PLACEMENT_3D('',#952,#953,#954);
#952 = CARTESIAN_POINT('',(-54.701,6.6,-1.8));
#953 = DIRECTION('',(0.,-1.,0.));
#954 = DIRECTION('',(1.,0.,0.));
#955 = CONICAL_SURFACE('',#956,8.2,0.785398163397);
#956 = AXIS2_PLACEMENT_3D('',#957,#958,#959);
#957 = CARTESIAN_POINT('',(-46.501,11.6,-1.8));
#958 = DIRECTION('',(1.,0.,0.));
#959 = DIRECTION('',(0.,-0.609756097561,0.792589112647));
#960 = ADVANCED_FACE('',(#961),#1002,.F.);
#961 = FACE_BOUND('',#962,.F.);
#962 = EDGE_LOOP('',(#963,#973,#981,#987,#988,#996));
#963 = ORIENTED_EDGE('',*,*,#964,.T.);
#964 = EDGE_CURVE('',#965,#967,#969,.T.);
#965 = VERTEX_POINT('',#966);
#966 = CARTESIAN_POINT('',(-46.42343508467,5.9,4.45));
#967 = VERTEX_POINT('',#968);
#968 = CARTESIAN_POINT('',(-42.47856491532,5.9,4.45));
#969 = LINE('',#970,#971);
#970 = CARTESIAN_POINT('',(-47.001,5.9,4.45));
#971 = VECTOR('',#972,1.);
#972 = DIRECTION('',(1.,0.,0.));
#973 = ORIENTED_EDGE('',*,*,#974,.T.);
#974 = EDGE_CURVE('',#967,#975,#977,.T.);
#975 = VERTEX_POINT('',#976);
#976 = CARTESIAN_POINT('',(-42.00769395952,6.6,4.2));
#977 = LINE('',#978,#979);
#978 = CARTESIAN_POINT('',(-42.42771422143,5.975594991118,4.423001788886
    ));
#979 = VECTOR('',#980,1.);
#980 = DIRECTION('',(0.535143016628,0.795547287484,-0.284124031244));
#981 = ORIENTED_EDGE('',*,*,#982,.F.);
#982 = EDGE_CURVE('',#316,#975,#983,.T.);
#983 = LINE('',#984,#985);
#984 = CARTESIAN_POINT('',(-47.001,6.6,4.2));
#985 = VECTOR('',#986,1.);
#986 = DIRECTION('',(1.,0.,0.));
#987 = ORIENTED_EDGE('',*,*,#324,.T.);
#988 = ORIENTED_EDGE('',*,*,#989,.F.);
#989 = EDGE_CURVE('',#990,#325,#992,.T.);
#990 = VERTEX_POINT('',#991);
#991 = CARTESIAN_POINT('',(-46.89430604047,6.6,4.2));
#992 = LINE('',#993,#994);
#993 = CARTESIAN_POINT('',(-47.001,6.6,4.2));
#994 = VECTOR('',#995,1.);
#995 = DIRECTION('',(1.,0.,0.));
#996 = ORIENTED_EDGE('',*,*,#997,.T.);
#997 = EDGE_CURVE('',#990,#965,#998,.T.);
#998 = LINE('',#999,#1000);
#999 = CARTESIAN_POINT('',(-46.87428577856,6.570237741011,4.21062937821)
  );
#1000 = VECTOR('',#1001,1.);
#1001 = DIRECTION('',(0.535143016628,-0.795547287484,0.284124031244));
#1002 = PLANE('',#1003);
#1003 = AXIS2_PLACEMENT_3D('',#1004,#1005,#1006);
#1004 = CARTESIAN_POINT('',(-47.001,5.9,4.45));
#1005 = DIRECTION('',(0.,0.336336396998,0.941741911595));
#1006 = DIRECTION('',(0.,0.941741911595,-0.336336396998));
#1007 = ADVANCED_FACE('',(#1008),#1033,.T.);
#1008 = FACE_BOUND('',#1009,.T.);
#1009 = EDGE_LOOP('',(#1010,#1011,#1012,#1019,#1027));
#1010 = ORIENTED_EDGE('',*,*,#257,.T.);
#1011 = ORIENTED_EDGE('',*,*,#519,.T.);
#1012 = ORIENTED_EDGE('',*,*,#1013,.T.);
#1013 = EDGE_CURVE('',#511,#1014,#1016,.T.);
#1014 = VERTEX_POINT('',#1015);
#1015 = CARTESIAN_POINT('',(-47.001,10.75,4.));
#1016 = B_SPLINE_CURVE_WITH_KNOTS('',1,(#1017,#1018),.UNSPECIFIED.,.F.,
  .F.,(2,2),(-1.5,3.55E-15),.PIECEWISE_BEZIER_KNOTS.);
#1017 = CARTESIAN_POINT('',(-48.501,10.75,4.));
#1018 = CARTESIAN_POINT('',(-47.001,10.75,4.));
#1019 = ORIENTED_EDGE('',*,*,#1020,.T.);
#1020 = EDGE_CURVE('',#1014,#1021,#1023,.T.);
#1021 = VERTEX_POINT('',#1022);
#1022 = CARTESIAN_POINT('',(-46.11647005383,10.75,4.));
#1023 = LINE('',#1024,#1025);
#1024 = CARTESIAN_POINT('',(-47.001,10.75,4.));
#1025 = VECTOR('',#1026,1.);
#1026 = DIRECTION('',(1.,0.,0.));
#1027 = ORIENTED_EDGE('',*,*,#1028,.F.);
#1028 = EDGE_CURVE('',#258,#1021,#1029,.T.);
#1029 = LINE('',#1030,#1031);
#1030 = CARTESIAN_POINT('',(-46.22284982303,10.75,3.815744834852));
#1031 = VECTOR('',#1032,1.);
#1032 = DIRECTION('',(-0.5,0.,-0.866025403784));
#1033 = PLANE('',#1034);
#1034 = AXIS2_PLACEMENT_3D('',#1035,#1036,#1037);
#1035 = CARTESIAN_POINT('',(-46.62213248654,10.75,4.104252304446));
#1036 = DIRECTION('',(-2.4E-16,-1.,-1.3E-15));
#1037 = DIRECTION('',(0.,1.3E-15,-1.));
#1038 = ADVANCED_FACE('',(#1039),#1068,.T.);
#1039 = FACE_BOUND('',#1040,.T.);
#1040 = EDGE_LOOP('',(#1041,#1042,#1043,#1052,#1061));
#1041 = ORIENTED_EDGE('',*,*,#315,.F.);
#1042 = ORIENTED_EDGE('',*,*,#623,.T.);
#1043 = ORIENTED_EDGE('',*,*,#1044,.T.);
#1044 = EDGE_CURVE('',#624,#1045,#1047,.T.);
#1045 = VERTEX_POINT('',#1046);
#1046 = CARTESIAN_POINT('',(-42.401,8.022738477923,5.578563546021));
#1047 = HYPERBOLA('',#1048,0.591278748304,0.591278748304);
#1048 = AXIS2_PLACEMENT_3D('',#1049,#1050,#1051);
#1049 = CARTESIAN_POINT('',(-34.201,12.112062549433,-1.504360855664));
#1050 = DIRECTION('',(0.,0.866025628186,0.499999611325));
#1051 = DIRECTION('',(-1.,0.,0.));
#1052 = ORIENTED_EDGE('',*,*,#1053,.F.);
#1053 = EDGE_CURVE('',#1054,#1045,#1056,.T.);
#1054 = VERTEX_POINT('',#1055);
#1055 = CARTESIAN_POINT('',(-42.401,6.6,4.699230723709));
#1056 = CIRCLE('',#1057,8.2);
#1057 = AXIS2_PLACEMENT_3D('',#1058,#1059,#1060);
#1058 = CARTESIAN_POINT('',(-42.401,11.6,-1.8));
#1059 = DIRECTION('',(-1.,0.,0.));
#1060 = DIRECTION('',(0.,-0.609756097561,0.792589112647));
#1061 = ORIENTED_EDGE('',*,*,#1062,.F.);
#1062 = EDGE_CURVE('',#316,#1054,#1063,.T.);
#1063 = HYPERBOLA('',#1064,5.,5.);
#1064 = AXIS2_PLACEMENT_3D('',#1065,#1066,#1067);
#1065 = CARTESIAN_POINT('',(-34.201,6.6,-1.8));
#1066 = DIRECTION('',(0.,1.,-0.));
#1067 = DIRECTION('',(-1.,0.,0.));
#1068 = CONICAL_SURFACE('',#1069,8.2,0.785398163397);
#1069 = AXIS2_PLACEMENT_3D('',#1070,#1071,#1072);
#1070 = CARTESIAN_POINT('',(-42.401,11.6,-1.8));
#1071 = DIRECTION('',(-1.,0.,0.));
#1072 = DIRECTION('',(0.,-0.609756097561,0.792589112647));
#1073 = ADVANCED_FACE('',(#1074),#1093,.T.);
#1074 = FACE_BOUND('',#1075,.F.);
#1075 = EDGE_LOOP('',(#1076,#1077,#1085,#1092));
#1076 = ORIENTED_EDGE('',*,*,#265,.T.);
#1077 = ORIENTED_EDGE('',*,*,#1078,.T.);
#1078 = EDGE_CURVE('',#266,#1079,#1081,.T.);
#1079 = VERTEX_POINT('',#1080);
#1080 = CARTESIAN_POINT('',(-46.11647005383,12.45,4.));
#1081 = LINE('',#1082,#1083);
#1082 = CARTESIAN_POINT('',(-46.22284982303,12.45,3.815744834852));
#1083 = VECTOR('',#1084,1.);
#1084 = DIRECTION('',(-0.5,0.,-0.866025403784));
#1085 = ORIENTED_EDGE('',*,*,#1086,.F.);
#1086 = EDGE_CURVE('',#1021,#1079,#1087,.T.);
#1087 = ELLIPSE('',#1088,0.981495457622,0.85);
#1088 = AXIS2_PLACEMENT_3D('',#1089,#1090,#1091);
#1089 = CARTESIAN_POINT('',(-46.11647005383,11.6,4.));
#1090 = DIRECTION('',(0.866025403784,4.9E-16,-0.5));
#1091 = DIRECTION('',(0.5,-8.6E-16,0.866025403784));
#1092 = ORIENTED_EDGE('',*,*,#1028,.F.);
#1093 = PLANE('',#1094);
#1094 = AXIS2_PLACEMENT_3D('',#1095,#1096,#1097);
#1095 = CARTESIAN_POINT('',(-46.19469964607,11.6,3.864502371595));
#1096 = DIRECTION('',(0.866025403784,4.9E-16,-0.5));
#1097 = DIRECTION('',(0.5,1.3E-16,0.866025403784));
#1098 = ADVANCED_FACE('',(#1099),#1110,.T.);
#1099 = FACE_BOUND('',#1100,.T.);
#1100 = EDGE_LOOP('',(#1101,#1102,#1103,#1109));
#1101 = ORIENTED_EDGE('',*,*,#273,.T.);
#1102 = ORIENTED_EDGE('',*,*,#1078,.T.);
#1103 = ORIENTED_EDGE('',*,*,#1104,.T.);
#1104 = EDGE_CURVE('',#1079,#485,#1105,.T.);
#1105 = LINE('',#1106,#1107);
#1106 = CARTESIAN_POINT('',(-47.001,12.45,4.));
#1107 = VECTOR('',#1108,1.);
#1108 = DIRECTION('',(-1.,8.5E-16,2.86E-15));
#1109 = ORIENTED_EDGE('',*,*,#484,.F.);
#1110 = PLANE('',#1111);
#1111 = AXIS2_PLACEMENT_3D('',#1112,#1113,#1114);
#1112 = CARTESIAN_POINT('',(-46.62213248654,12.45,4.104252304446));
#1113 = DIRECTION('',(0.,1.,0.));
#1114 = DIRECTION('',(0.,0.,1.));
#1115 = ADVANCED_FACE('',(#1116),#1143,.T.);
#1116 = FACE_BOUND('',#1117,.T.);
#1117 = EDGE_LOOP('',(#1118,#1128,#1134,#1135,#1136,#1137));
#1118 = ORIENTED_EDGE('',*,*,#1119,.T.);
#1119 = EDGE_CURVE('',#1120,#1122,#1124,.T.);
#1120 = VERTEX_POINT('',#1121);
#1121 = CARTESIAN_POINT('',(-46.42343508467,17.3,4.45));
#1122 = VERTEX_POINT('',#1123);
#1123 = CARTESIAN_POINT('',(-42.47856491532,17.3,4.45));
#1124 = LINE('',#1125,#1126);
#1125 = CARTESIAN_POINT('',(-47.001,17.3,4.45));
#1126 = VECTOR('',#1127,1.);
#1127 = DIRECTION('',(1.,0.,0.));
#1128 = ORIENTED_EDGE('',*,*,#1129,.T.);
#1129 = EDGE_CURVE('',#1122,#841,#1130,.T.);
#1130 = LINE('',#1131,#1132);
#1131 = CARTESIAN_POINT('',(-42.42771422143,17.224405008882,
    4.423001788886));
#1132 = VECTOR('',#1133,1.);
#1133 = DIRECTION('',(0.535143016628,-0.795547287484,-0.284124031244));
#1134 = ORIENTED_EDGE('',*,*,#840,.F.);
#1135 = ORIENTED_EDGE('',*,*,#290,.T.);
#1136 = ORIENTED_EDGE('',*,*,#831,.F.);
#1137 = ORIENTED_EDGE('',*,*,#1138,.T.);
#1138 = EDGE_CURVE('',#824,#1120,#1139,.T.);
#1139 = LINE('',#1140,#1141);
#1140 = CARTESIAN_POINT('',(-46.87428577856,16.629762258989,
    4.21062937821));
#1141 = VECTOR('',#1142,1.);
#1142 = DIRECTION('',(0.535143016628,0.795547287484,0.284124031244));
#1143 = PLANE('',#1144);
#1144 = AXIS2_PLACEMENT_3D('',#1145,#1146,#1147);
#1145 = CARTESIAN_POINT('',(-47.001,17.3,4.45));
#1146 = DIRECTION('',(0.,0.336336396998,-0.941741911595));
#1147 = DIRECTION('',(0.,-0.941741911595,-0.336336396998));
#1148 = ADVANCED_FACE('',(#1149),#1174,.F.);
#1149 = FACE_BOUND('',#1150,.F.);
#1150 = EDGE_LOOP('',(#1151,#1152,#1160,#1168));
#1151 = ORIENTED_EDGE('',*,*,#341,.F.);
#1152 = ORIENTED_EDGE('',*,*,#1153,.T.);
#1153 = EDGE_CURVE('',#342,#1154,#1156,.T.);
#1154 = VERTEX_POINT('',#1155);
#1155 = CARTESIAN_POINT('',(-43.501,10.7,5.692105413952));
#1156 = LINE('',#1157,#1158);
#1157 = CARTESIAN_POINT('',(-43.501,10.7,4.2));
#1158 = VECTOR('',#1159,1.);
#1159 = DIRECTION('',(0.,0.,1.));
#1160 = ORIENTED_EDGE('',*,*,#1161,.T.);
#1161 = EDGE_CURVE('',#1154,#1162,#1164,.T.);
#1162 = VERTEX_POINT('',#1163);
#1163 = CARTESIAN_POINT('',(-45.401,10.7,5.692105413952));
#1164 = LINE('',#1165,#1166);
#1165 = CARTESIAN_POINT('',(-43.501,10.7,5.692105413952));
#1166 = VECTOR('',#1167,1.);
#1167 = DIRECTION('',(-1.,-0.,-0.));
#1168 = ORIENTED_EDGE('',*,*,#1169,.F.);
#1169 = EDGE_CURVE('',#344,#1162,#1170,.T.);
#1170 = LINE('',#1171,#1172);
#1171 = CARTESIAN_POINT('',(-45.401,10.7,4.2));
#1172 = VECTOR('',#1173,1.);
#1173 = DIRECTION('',(0.,0.,1.));
#1174 = PLANE('',#1175);
#1175 = AXIS2_PLACEMENT_3D('',#1176,#1177,#1178);
#1176 = CARTESIAN_POINT('',(-43.501,10.7,4.2));
#1177 = DIRECTION('',(0.,-1.,0.));
#1178 = DIRECTION('',(-1.,0.,0.));
#1179 = ADVANCED_FACE('',(#1180),#1230,.T.);
#1180 = FACE_BOUND('',#1181,.T.);
#1181 = EDGE_LOOP('',(#1182,#1190,#1191,#1192,#1200,#1208,#1216,#1224));
#1182 = ORIENTED_EDGE('',*,*,#1183,.F.);
#1183 = EDGE_CURVE('',#352,#1184,#1186,.T.);
#1184 = VERTEX_POINT('',#1185);
#1185 = CARTESIAN_POINT('',(-43.501,12.5,5.692105413952));
#1186 = LINE('',#1187,#1188);
#1187 = CARTESIAN_POINT('',(-43.501,12.5,4.2));
#1188 = VECTOR('',#1189,1.);
#1189 = DIRECTION('',(0.,0.,1.));
#1190 = ORIENTED_EDGE('',*,*,#351,.T.);
#1191 = ORIENTED_EDGE('',*,*,#1153,.T.);
#1192 = ORIENTED_EDGE('',*,*,#1193,.F.);
#1193 = EDGE_CURVE('',#1194,#1154,#1196,.T.);
#1194 = VERTEX_POINT('',#1195);
#1195 = CARTESIAN_POINT('',(-43.501,10.615147186258,6.184852813742));
#1196 = LINE('',#1197,#1198);
#1197 = CARTESIAN_POINT('',(-43.501,10.615147186258,6.184852813742));
#1198 = VECTOR('',#1199,1.);
#1199 = DIRECTION('',(-0.,0.169705627485,-0.98549479958));
#1200 = ORIENTED_EDGE('',*,*,#1201,.T.);
#1201 = EDGE_CURVE('',#1194,#1202,#1204,.T.);
#1202 = VERTEX_POINT('',#1203);
#1203 = CARTESIAN_POINT('',(-43.501,11.107894586048,6.1));
#1204 = LINE('',#1205,#1206);
#1205 = CARTESIAN_POINT('',(-43.501,10.615147186258,6.184852813742));
#1206 = VECTOR('',#1207,1.);
#1207 = DIRECTION('',(-0.,0.98549479958,-0.169705627485));
#1208 = ORIENTED_EDGE('',*,*,#1209,.F.);
#1209 = EDGE_CURVE('',#1210,#1202,#1212,.T.);
#1210 = VERTEX_POINT('',#1211);
#1211 = CARTESIAN_POINT('',(-43.501,12.092105413952,6.1));
#1212 = LINE('',#1213,#1214);
#1213 = CARTESIAN_POINT('',(-43.501,12.5,6.1));
#1214 = VECTOR('',#1215,1.);
#1215 = DIRECTION('',(0.,-1.,0.));
#1216 = ORIENTED_EDGE('',*,*,#1217,.F.);
#1217 = EDGE_CURVE('',#1218,#1210,#1220,.T.);
#1218 = VERTEX_POINT('',#1219);
#1219 = CARTESIAN_POINT('',(-43.501,12.584852813742,6.184852813742));
#1220 = LINE('',#1221,#1222);
#1221 = CARTESIAN_POINT('',(-43.501,12.584852813742,6.184852813742));
#1222 = VECTOR('',#1223,1.);
#1223 = DIRECTION('',(0.,-0.98549479958,-0.169705627485));
#1224 = ORIENTED_EDGE('',*,*,#1225,.T.);
#1225 = EDGE_CURVE('',#1218,#1184,#1226,.T.);
#1226 = LINE('',#1227,#1228);
#1227 = CARTESIAN_POINT('',(-43.501,12.584852813742,6.184852813742));
#1228 = VECTOR('',#1229,1.);
#1229 = DIRECTION('',(0.,-0.169705627485,-0.98549479958));
#1230 = PLANE('',#1231);
#1231 = AXIS2_PLACEMENT_3D('',#1232,#1233,#1234);
#1232 = CARTESIAN_POINT('',(-43.501,11.6,5.201140901546));
#1233 = DIRECTION('',(-1.,-0.,-0.));
#1234 = DIRECTION('',(0.,0.,-1.));
#1235 = ADVANCED_FACE('',(#1236),#1254,.F.);
#1236 = FACE_BOUND('',#1237,.F.);
#1237 = EDGE_LOOP('',(#1238,#1239,#1247,#1253));
#1238 = ORIENTED_EDGE('',*,*,#359,.F.);
#1239 = ORIENTED_EDGE('',*,*,#1240,.T.);
#1240 = EDGE_CURVE('',#360,#1241,#1243,.T.);
#1241 = VERTEX_POINT('',#1242);
#1242 = CARTESIAN_POINT('',(-45.401,12.5,5.692105413952));
#1243 = LINE('',#1244,#1245);
#1244 = CARTESIAN_POINT('',(-45.401,12.5,4.2));
#1245 = VECTOR('',#1246,1.);
#1246 = DIRECTION('',(0.,0.,1.));
#1247 = ORIENTED_EDGE('',*,*,#1248,.F.);
#1248 = EDGE_CURVE('',#1184,#1241,#1249,.T.);
#1249 = LINE('',#1250,#1251);
#1250 = CARTESIAN_POINT('',(-43.501,12.5,5.692105413952));
#1251 = VECTOR('',#1252,1.);
#1252 = DIRECTION('',(-1.,-0.,-0.));
#1253 = ORIENTED_EDGE('',*,*,#1183,.F.);
#1254 = PLANE('',#1255);
#1255 = AXIS2_PLACEMENT_3D('',#1256,#1257,#1258);
#1256 = CARTESIAN_POINT('',(-45.401,12.5,4.2));
#1257 = DIRECTION('',(0.,1.,0.));
#1258 = DIRECTION('',(1.,0.,0.));
#1259 = ADVANCED_FACE('',(#1260),#1303,.T.);
#1260 = FACE_BOUND('',#1261,.T.);
#1261 = EDGE_LOOP('',(#1262,#1263,#1264,#1265,#1273,#1281,#1289,#1297));
#1262 = ORIENTED_EDGE('',*,*,#1169,.F.);
#1263 = ORIENTED_EDGE('',*,*,#367,.T.);
#1264 = ORIENTED_EDGE('',*,*,#1240,.T.);
#1265 = ORIENTED_EDGE('',*,*,#1266,.F.);
#1266 = EDGE_CURVE('',#1267,#1241,#1269,.T.);
#1267 = VERTEX_POINT('',#1268);
#1268 = CARTESIAN_POINT('',(-45.401,12.584852813742,6.184852813742));
#1269 = LINE('',#1270,#1271);
#1270 = CARTESIAN_POINT('',(-45.401,12.584852813742,6.184852813742));
#1271 = VECTOR('',#1272,1.);
#1272 = DIRECTION('',(0.,-0.169705627485,-0.98549479958));
#1273 = ORIENTED_EDGE('',*,*,#1274,.T.);
#1274 = EDGE_CURVE('',#1267,#1275,#1277,.T.);
#1275 = VERTEX_POINT('',#1276);
#1276 = CARTESIAN_POINT('',(-45.401,12.092105413952,6.1));
#1277 = LINE('',#1278,#1279);
#1278 = CARTESIAN_POINT('',(-45.401,12.584852813742,6.184852813742));
#1279 = VECTOR('',#1280,1.);
#1280 = DIRECTION('',(0.,-0.98549479958,-0.169705627485));
#1281 = ORIENTED_EDGE('',*,*,#1282,.F.);
#1282 = EDGE_CURVE('',#1283,#1275,#1285,.T.);
#1283 = VERTEX_POINT('',#1284);
#1284 = CARTESIAN_POINT('',(-45.401,11.107894586048,6.1));
#1285 = LINE('',#1286,#1287);
#1286 = CARTESIAN_POINT('',(-45.401,10.7,6.1));
#1287 = VECTOR('',#1288,1.);
#1288 = DIRECTION('',(0.,1.,0.));
#1289 = ORIENTED_EDGE('',*,*,#1290,.F.);
#1290 = EDGE_CURVE('',#1291,#1283,#1293,.T.);
#1291 = VERTEX_POINT('',#1292);
#1292 = CARTESIAN_POINT('',(-45.401,10.615147186258,6.184852813742));
#1293 = LINE('',#1294,#1295);
#1294 = CARTESIAN_POINT('',(-45.401,10.615147186258,6.184852813742));
#1295 = VECTOR('',#1296,1.);
#1296 = DIRECTION('',(-0.,0.98549479958,-0.169705627485));
#1297 = ORIENTED_EDGE('',*,*,#1298,.T.);
#1298 = EDGE_CURVE('',#1291,#1162,#1299,.T.);
#1299 = LINE('',#1300,#1301);
#1300 = CARTESIAN_POINT('',(-45.401,10.615147186258,6.184852813742));
#1301 = VECTOR('',#1302,1.);
#1302 = DIRECTION('',(-0.,0.169705627485,-0.98549479958));
#1303 = PLANE('',#1304);
#1304 = AXIS2_PLACEMENT_3D('',#1305,#1306,#1307);
#1305 = CARTESIAN_POINT('',(-45.401,11.6,5.201140901546));
#1306 = DIRECTION('',(1.,0.,0.));
#1307 = DIRECTION('',(0.,0.,1.));
#1308 = ADVANCED_FACE('',(#1309),#1362,.T.);
#1309 = FACE_BOUND('',#1310,.T.);
#1310 = EDGE_LOOP('',(#1311,#1321,#1327,#1328,#1329,#1330,#1331,#1332,
    #1338,#1339,#1340,#1348,#1356));
#1311 = ORIENTED_EDGE('',*,*,#1312,.T.);
#1312 = EDGE_CURVE('',#1313,#1315,#1317,.T.);
#1313 = VERTEX_POINT('',#1314);
#1314 = CARTESIAN_POINT('',(-47.001,7.449999650192,6.570577323308));
#1315 = VERTEX_POINT('',#1316);
#1316 = CARTESIAN_POINT('',(-47.021,7.449999650192,6.570577323308));
#1317 = LINE('',#1318,#1319);
#1318 = CARTESIAN_POINT('',(-47.001,7.449999650192,6.570577323308));
#1319 = VECTOR('',#1320,1.);
#1320 = DIRECTION('',(-1.,8.5E-16,2.86E-15));
#1321 = ORIENTED_EDGE('',*,*,#1322,.F.);
#1322 = EDGE_CURVE('',#382,#1315,#1323,.T.);
#1323 = LINE('',#1324,#1325);
#1324 = CARTESIAN_POINT('',(-46.53459813745,7.20679890797,6.991813801872
    ));
#1325 = VECTOR('',#1326,1.);
#1326 = DIRECTION('',(0.707106781187,-0.353553115758,0.612372594372));
#1327 = ORIENTED_EDGE('',*,*,#381,.T.);
#1328 = ORIENTED_EDGE('',*,*,#535,.T.);
#1329 = ORIENTED_EDGE('',*,*,#913,.T.);
#1330 = ORIENTED_EDGE('',*,*,#888,.F.);
#1331 = ORIENTED_EDGE('',*,*,#931,.T.);
#1332 = ORIENTED_EDGE('',*,*,#1333,.F.);
#1333 = EDGE_CURVE('',#1045,#932,#1334,.T.);
#1334 = LINE('',#1335,#1336);
#1335 = CARTESIAN_POINT('',(-41.901,8.022738477923,5.578563546021));
#1336 = VECTOR('',#1337,1.);
#1337 = DIRECTION('',(-1.,0.,0.));
#1338 = ORIENTED_EDGE('',*,*,#1044,.F.);
#1339 = ORIENTED_EDGE('',*,*,#710,.F.);
#1340 = ORIENTED_EDGE('',*,*,#1341,.F.);
#1341 = EDGE_CURVE('',#1342,#703,#1344,.T.);
#1342 = VERTEX_POINT('',#1343);
#1343 = CARTESIAN_POINT('',(-42.701,7.,7.350000388675));
#1344 = LINE('',#1345,#1346);
#1345 = CARTESIAN_POINT('',(-42.301,7.19999984453,7.003590137401));
#1346 = VECTOR('',#1347,1.);
#1347 = DIRECTION('',(0.707106781187,0.353553115758,-0.612372594372));
#1348 = ORIENTED_EDGE('',*,*,#1349,.T.);
#1349 = EDGE_CURVE('',#1342,#1350,#1352,.T.);
#1350 = VERTEX_POINT('',#1351);
#1351 = CARTESIAN_POINT('',(-46.101,7.,7.350000388675));
#1352 = LINE('',#1353,#1354);
#1353 = CARTESIAN_POINT('',(-41.901,7.,7.350000388675));
#1354 = VECTOR('',#1355,1.);
#1355 = DIRECTION('',(-1.,0.,0.));
#1356 = ORIENTED_EDGE('',*,*,#1357,.T.);
#1357 = EDGE_CURVE('',#1350,#1313,#1358,.T.);
#1358 = LINE('',#1359,#1360);
#1359 = CARTESIAN_POINT('',(-45.276,6.587500320657,8.064471531929));
#1360 = VECTOR('',#1361,1.);
#1361 = DIRECTION('',(-0.707106781187,0.353553115758,-0.612372594372));
#1362 = PLANE('',#1363);
#1363 = AXIS2_PLACEMENT_3D('',#1364,#1365,#1366);
#1364 = CARTESIAN_POINT('',(-44.53071308506,7.632339240819,
    6.254755560772));
#1365 = DIRECTION('',(-0.,-0.866025628186,-0.499999611325));
#1366 = DIRECTION('',(0.,0.499999611325,-0.866025628186));
#1367 = ADVANCED_FACE('',(#1368),#1386,.T.);
#1368 = FACE_BOUND('',#1369,.T.);
#1369 = EDGE_LOOP('',(#1370,#1378,#1379,#1380));
#1370 = ORIENTED_EDGE('',*,*,#1371,.F.);
#1371 = EDGE_CURVE('',#392,#1372,#1374,.T.);
#1372 = VERTEX_POINT('',#1373);
#1373 = CARTESIAN_POINT('',(-47.021,8.316025278378,7.070576934633));
#1374 = LINE('',#1375,#1376);
#1375 = CARTESIAN_POINT('',(-46.50307421209,8.057062585731,
    7.519113940456));
#1376 = VECTOR('',#1377,1.);
#1377 = DIRECTION('',(0.707106781187,-0.353553115758,0.612372594372));
#1378 = ORIENTED_EDGE('',*,*,#391,.T.);
#1379 = ORIENTED_EDGE('',*,*,#1322,.T.);
#1380 = ORIENTED_EDGE('',*,*,#1381,.F.);
#1381 = EDGE_CURVE('',#1372,#1315,#1382,.T.);
#1382 = LINE('',#1383,#1384);
#1383 = CARTESIAN_POINT('',(-47.021,8.316025278378,7.070576934633));
#1384 = VECTOR('',#1385,1.);
#1385 = DIRECTION('',(0.,-0.866025628186,-0.499999611325));
#1386 = PLANE('',#1387);
#1387 = AXIS2_PLACEMENT_3D('',#1388,#1389,#1390);
#1388 = CARTESIAN_POINT('',(-47.111,8.361025243398,6.992634628096));
#1389 = DIRECTION('',(-0.707106781187,-0.353553115758,0.612372594372));
#1390 = DIRECTION('',(-1.137978600241E-15,-0.866025628186,
    -0.499999611325));
#1391 = ADVANCED_FACE('',(#1392),#1433,.T.);
#1392 = FACE_BOUND('',#1393,.T.);
#1393 = EDGE_LOOP('',(#1394,#1395,#1396,#1404,#1412,#1420,#1426,#1427));
#1394 = ORIENTED_EDGE('',*,*,#399,.T.);
#1395 = ORIENTED_EDGE('',*,*,#1371,.T.);
#1396 = ORIENTED_EDGE('',*,*,#1397,.F.);
#1397 = EDGE_CURVE('',#1398,#1372,#1400,.T.);
#1398 = VERTEX_POINT('',#1399);
#1399 = CARTESIAN_POINT('',(-47.001,8.316025278378,7.070576934633));
#1400 = LINE('',#1401,#1402);
#1401 = CARTESIAN_POINT('',(-47.001,8.316025278378,7.070576934633));
#1402 = VECTOR('',#1403,1.);
#1403 = DIRECTION('',(-1.,8.5E-16,2.86E-15));
#1404 = ORIENTED_EDGE('',*,*,#1405,.F.);
#1405 = EDGE_CURVE('',#1406,#1398,#1408,.T.);
#1406 = VERTEX_POINT('',#1407);
#1407 = CARTESIAN_POINT('',(-46.101,7.866025628186,7.85));
#1408 = LINE('',#1409,#1410);
#1409 = CARTESIAN_POINT('',(-45.78998261701,7.710517057576,
    8.119349024481));
#1410 = VECTOR('',#1411,1.);
#1411 = DIRECTION('',(-0.707106781187,0.353553115758,-0.612372594372));
#1412 = ORIENTED_EDGE('',*,*,#1413,.F.);
#1413 = EDGE_CURVE('',#1414,#1406,#1416,.T.);
#1414 = VERTEX_POINT('',#1415);
#1415 = CARTESIAN_POINT('',(-42.701,7.866025628186,7.85));
#1416 = LINE('',#1417,#1418);
#1417 = CARTESIAN_POINT('',(-41.901,7.866025628186,7.85));
#1418 = VECTOR('',#1419,1.);
#1419 = DIRECTION('',(-1.,0.,0.));
#1420 = ORIENTED_EDGE('',*,*,#1421,.T.);
#1421 = EDGE_CURVE('',#1414,#695,#1422,.T.);
#1422 = LINE('',#1423,#1424);
#1423 = CARTESIAN_POINT('',(-41.78701738299,8.323016581448,
    7.058467629953));
#1424 = VECTOR('',#1425,1.);
#1425 = DIRECTION('',(0.707106781187,0.353553115758,-0.612372594372));
#1426 = ORIENTED_EDGE('',*,*,#694,.F.);
#1427 = ORIENTED_EDGE('',*,*,#1428,.T.);
#1428 = EDGE_CURVE('',#686,#400,#1429,.T.);
#1429 = LINE('',#1430,#1431);
#1430 = CARTESIAN_POINT('',(-41.901,8.893990063116,6.06951152491));
#1431 = VECTOR('',#1432,1.);
#1432 = DIRECTION('',(-1.,0.,0.));
#1433 = PLANE('',#1434);
#1434 = AXIS2_PLACEMENT_3D('',#1435,#1436,#1437);
#1435 = CARTESIAN_POINT('',(-44.53167953219,8.434833844118,
    6.864794249109));
#1436 = DIRECTION('',(0.,0.866025628186,0.499999611325));
#1437 = DIRECTION('',(0.,-0.499999611325,0.866025628186));
#1438 = ADVANCED_FACE('',(#1439),#1498,.T.);
#1439 = FACE_BOUND('',#1440,.F.);
#1440 = EDGE_LOOP('',(#1441,#1449,#1458,#1464,#1465,#1471,#1472,#1480,
    #1489,#1495,#1496,#1497));
#1441 = ORIENTED_EDGE('',*,*,#1442,.F.);
#1442 = EDGE_CURVE('',#1443,#408,#1445,.T.);
#1443 = VERTEX_POINT('',#1444);
#1444 = CARTESIAN_POINT('',(-46.501,9.004434556741,6.152891784133));
#1445 = LINE('',#1446,#1447);
#1446 = CARTESIAN_POINT('',(-47.001,9.004434556741,6.152891784133));
#1447 = VECTOR('',#1448,1.);
#1448 = DIRECTION('',(-1.,8.5E-16,2.86E-15));
#1449 = ORIENTED_EDGE('',*,*,#1450,.T.);
#1450 = EDGE_CURVE('',#1443,#1451,#1453,.T.);
#1451 = VERTEX_POINT('',#1452);
#1452 = CARTESIAN_POINT('',(-46.501,14.195565443259,6.152891784133));
#1453 = CIRCLE('',#1454,4.4);
#1454 = AXIS2_PLACEMENT_3D('',#1455,#1456,#1457);
#1455 = CARTESIAN_POINT('',(-46.501,11.6,2.6));
#1456 = DIRECTION('',(-1.,0.,0.));
#1457 = DIRECTION('',(0.,-0.589901237104,0.807475405485));
#1458 = ORIENTED_EDGE('',*,*,#1459,.F.);
#1459 = EDGE_CURVE('',#450,#1451,#1460,.T.);
#1460 = LINE('',#1461,#1462);
#1461 = CARTESIAN_POINT('',(-47.001,14.195565443259,6.152891784133));
#1462 = VECTOR('',#1463,1.);
#1463 = DIRECTION('',(1.,2.08E-15,2.99E-15));
#1464 = ORIENTED_EDGE('',*,*,#457,.T.);
#1465 = ORIENTED_EDGE('',*,*,#1466,.F.);
#1466 = EDGE_CURVE('',#644,#458,#1467,.T.);
#1467 = LINE('',#1468,#1469);
#1468 = CARTESIAN_POINT('',(-47.001,14.306009936884,6.06951152491));
#1469 = VECTOR('',#1470,1.);
#1470 = DIRECTION('',(-1.,8.5E-16,2.86E-15));
#1471 = ORIENTED_EDGE('',*,*,#651,.F.);
#1472 = ORIENTED_EDGE('',*,*,#1473,.F.);
#1473 = EDGE_CURVE('',#1474,#652,#1476,.T.);
#1474 = VERTEX_POINT('',#1475);
#1475 = CARTESIAN_POINT('',(-42.401,14.195565443259,6.152891784133));
#1476 = LINE('',#1477,#1478);
#1477 = CARTESIAN_POINT('',(-42.401,14.195565443259,6.152891784133));
#1478 = VECTOR('',#1479,1.);
#1479 = DIRECTION('',(1.,-1.050024202046E-15,-1.437306221763E-15));
#1480 = ORIENTED_EDGE('',*,*,#1481,.F.);
#1481 = EDGE_CURVE('',#1482,#1474,#1484,.T.);
#1482 = VERTEX_POINT('',#1483);
#1483 = CARTESIAN_POINT('',(-42.401,9.004434556741,6.152891784133));
#1484 = CIRCLE('',#1485,4.4);
#1485 = AXIS2_PLACEMENT_3D('',#1486,#1487,#1488);
#1486 = CARTESIAN_POINT('',(-42.401,11.6,2.6));
#1487 = DIRECTION('',(-1.,0.,0.));
#1488 = DIRECTION('',(0.,-0.589901237104,0.807475405485));
#1489 = ORIENTED_EDGE('',*,*,#1490,.T.);
#1490 = EDGE_CURVE('',#1482,#678,#1491,.T.);
#1491 = LINE('',#1492,#1493);
#1492 = CARTESIAN_POINT('',(-42.401,9.004434556741,6.152891784133));
#1493 = VECTOR('',#1494,1.);
#1494 = DIRECTION('',(1.,1.050024202046E-15,-1.437306221763E-15));
#1495 = ORIENTED_EDGE('',*,*,#685,.F.);
#1496 = ORIENTED_EDGE('',*,*,#1428,.T.);
#1497 = ORIENTED_EDGE('',*,*,#407,.T.);
#1498 = CYLINDRICAL_SURFACE('',#1499,4.4);
#1499 = AXIS2_PLACEMENT_3D('',#1500,#1501,#1502);
#1500 = CARTESIAN_POINT('',(-41.901,11.6,2.6));
#1501 = DIRECTION('',(1.,0.,0.));
#1502 = DIRECTION('',(0.,-1.,0.));
#1503 = ADVANCED_FACE('',(#1504),#1531,.T.);
#1504 = FACE_BOUND('',#1505,.T.);
#1505 = EDGE_LOOP('',(#1506,#1516,#1522,#1523,#1524,#1525));
#1506 = ORIENTED_EDGE('',*,*,#1507,.T.);
#1507 = EDGE_CURVE('',#1508,#1510,#1512,.T.);
#1508 = VERTEX_POINT('',#1509);
#1509 = CARTESIAN_POINT('',(-47.001,9.299385175279,5.749154081409));
#1510 = VERTEX_POINT('',#1511);
#1511 = CARTESIAN_POINT('',(-47.021,9.299385175279,5.749154081409));
#1512 = LINE('',#1513,#1514);
#1513 = CARTESIAN_POINT('',(-47.001,9.299385175279,5.749154081409));
#1514 = VECTOR('',#1515,1.);
#1515 = DIRECTION('',(-1.,8.5E-16,2.86E-15));
#1516 = ORIENTED_EDGE('',*,*,#1517,.F.);
#1517 = EDGE_CURVE('',#425,#1510,#1518,.T.);
#1518 = LINE('',#1519,#1520);
#1519 = CARTESIAN_POINT('',(-50.92100000002,11.6,2.6));
#1520 = VECTOR('',#1521,1.);
#1521 = DIRECTION('',(0.707106781187,-0.417123164987,0.57097133486));
#1522 = ORIENTED_EDGE('',*,*,#424,.F.);
#1523 = ORIENTED_EDGE('',*,*,#416,.T.);
#1524 = ORIENTED_EDGE('',*,*,#1442,.F.);
#1525 = ORIENTED_EDGE('',*,*,#1526,.T.);
#1526 = EDGE_CURVE('',#1443,#1508,#1527,.T.);
#1527 = LINE('',#1528,#1529);
#1528 = CARTESIAN_POINT('',(-46.501,9.004434556741,6.152891784133));
#1529 = VECTOR('',#1530,1.);
#1530 = DIRECTION('',(-0.707106781203,0.417123164977,-0.570971334847));
#1531 = PLANE('',#1532);
#1532 = AXIS2_PLACEMENT_3D('',#1533,#1534,#1535);
#1533 = CARTESIAN_POINT('',(-46.9242233047,9.116915125689,5.998924836264
    ));
#1534 = DIRECTION('',(2.06E-15,0.807475405485,0.589901237104));
#1535 = DIRECTION('',(0.,-0.589901237104,0.807475405485));
#1536 = ADVANCED_FACE('',(#1537),#1561,.T.);
#1537 = FACE_BOUND('',#1538,.F.);
#1538 = EDGE_LOOP('',(#1539,#1540,#1541,#1542,#1543,#1544,#1551,#1558,
    #1559,#1560));
#1539 = ORIENTED_EDGE('',*,*,#1086,.T.);
#1540 = ORIENTED_EDGE('',*,*,#1104,.T.);
#1541 = ORIENTED_EDGE('',*,*,#492,.F.);
#1542 = ORIENTED_EDGE('',*,*,#501,.F.);
#1543 = ORIENTED_EDGE('',*,*,#510,.F.);
#1544 = ORIENTED_EDGE('',*,*,#1545,.F.);
#1545 = EDGE_CURVE('',#1546,#511,#1548,.T.);
#1546 = VERTEX_POINT('',#1547);
#1547 = CARTESIAN_POINT('',(-48.501,10.75,4.));
#1548 = B_SPLINE_CURVE_WITH_KNOTS('',1,(#1549,#1550),.UNSPECIFIED.,.F.,
  .F.,(2,2),(-1.5,3.55E-15),.PIECEWISE_BEZIER_KNOTS.);
#1549 = CARTESIAN_POINT('',(-48.501,10.75,4.));
#1550 = CARTESIAN_POINT('',(-47.001,10.75,4.));
#1551 = ORIENTED_EDGE('',*,*,#1552,.T.);
#1552 = EDGE_CURVE('',#1546,#1546,#1553,.T.);
#1553 = CIRCLE('',#1554,0.85);
#1554 = AXIS2_PLACEMENT_3D('',#1555,#1556,#1557);
#1555 = CARTESIAN_POINT('',(-48.501,11.6,4.));
#1556 = DIRECTION('',(-1.,0.,0.));
#1557 = DIRECTION('',(0.,-1.,0.));
#1558 = ORIENTED_EDGE('',*,*,#1545,.T.);
#1559 = ORIENTED_EDGE('',*,*,#1013,.T.);
#1560 = ORIENTED_EDGE('',*,*,#1020,.T.);
#1561 = CYLINDRICAL_SURFACE('',#1562,0.85);
#1562 = AXIS2_PLACEMENT_3D('',#1563,#1564,#1565);
#1563 = CARTESIAN_POINT('',(-47.001,11.6,4.));
#1564 = DIRECTION('',(1.,0.,0.));
#1565 = DIRECTION('',(0.,-1.,0.));
#1566 = ADVANCED_FACE('',(#1567),#1586,.T.);
#1567 = FACE_BOUND('',#1568,.F.);
#1568 = EDGE_LOOP('',(#1569,#1570,#1571,#1579));
#1569 = ORIENTED_EDGE('',*,*,#1517,.F.);
#1570 = ORIENTED_EDGE('',*,*,#432,.T.);
#1571 = ORIENTED_EDGE('',*,*,#1572,.T.);
#1572 = EDGE_CURVE('',#433,#1573,#1575,.T.);
#1573 = VERTEX_POINT('',#1574);
#1574 = CARTESIAN_POINT('',(-47.021,13.900614824721,5.749154081409));
#1575 = LINE('',#1576,#1577);
#1576 = CARTESIAN_POINT('',(-50.92100000002,11.6,2.6));
#1577 = VECTOR('',#1578,1.);
#1578 = DIRECTION('',(0.707106781187,0.417123164987,0.57097133486));
#1579 = ORIENTED_EDGE('',*,*,#1580,.F.);
#1580 = EDGE_CURVE('',#1510,#1573,#1581,.T.);
#1581 = CIRCLE('',#1582,3.900000000023);
#1582 = AXIS2_PLACEMENT_3D('',#1583,#1584,#1585);
#1583 = CARTESIAN_POINT('',(-47.021,11.6,2.6));
#1584 = DIRECTION('',(-1.,8.5E-16,2.86E-15));
#1585 = DIRECTION('',(1.807963608148E-15,-0.589901237104,0.807475405485)
  );
#1586 = CONICAL_SURFACE('',#1587,3.900000000023,0.785398163397);
#1587 = AXIS2_PLACEMENT_3D('',#1588,#1589,#1590);
#1588 = CARTESIAN_POINT('',(-47.021,11.6,2.6));
#1589 = DIRECTION('',(1.,-8.5E-16,-2.86E-15));
#1590 = DIRECTION('',(1.807963608148E-15,-0.589901237104,0.807475405485)
  );
#1591 = ADVANCED_FACE('',(#1592),#1612,.T.);
#1592 = FACE_BOUND('',#1593,.T.);
#1593 = EDGE_LOOP('',(#1594,#1602,#1608,#1609,#1610,#1611));
#1594 = ORIENTED_EDGE('',*,*,#1595,.F.);
#1595 = EDGE_CURVE('',#1596,#1573,#1598,.T.);
#1596 = VERTEX_POINT('',#1597);
#1597 = CARTESIAN_POINT('',(-47.001,13.900614824721,5.749154081409));
#1598 = LINE('',#1599,#1600);
#1599 = CARTESIAN_POINT('',(-47.001,13.900614824721,5.749154081409));
#1600 = VECTOR('',#1601,1.);
#1601 = DIRECTION('',(-1.,8.5E-16,2.86E-15));
#1602 = ORIENTED_EDGE('',*,*,#1603,.F.);
#1603 = EDGE_CURVE('',#1451,#1596,#1604,.T.);
#1604 = LINE('',#1605,#1606);
#1605 = CARTESIAN_POINT('',(-46.501,14.195565443259,6.152891784133));
#1606 = VECTOR('',#1607,1.);
#1607 = DIRECTION('',(-0.707106781203,-0.417123164977,-0.570971334847));
#1608 = ORIENTED_EDGE('',*,*,#1459,.F.);
#1609 = ORIENTED_EDGE('',*,*,#449,.F.);
#1610 = ORIENTED_EDGE('',*,*,#441,.T.);
#1611 = ORIENTED_EDGE('',*,*,#1572,.T.);
#1612 = PLANE('',#1613);
#1613 = AXIS2_PLACEMENT_3D('',#1614,#1615,#1616);
#1614 = CARTESIAN_POINT('',(-46.9242233047,14.083084874311,
    5.998924836264));
#1615 = DIRECTION('',(1.44E-15,-0.807475405485,0.589901237104));
#1616 = DIRECTION('',(-9.860761315263E-32,-0.589901237104,
    -0.807475405485));
#1617 = ADVANCED_FACE('',(#1618),#1628,.T.);
#1618 = FACE_BOUND('',#1619,.T.);
#1619 = EDGE_LOOP('',(#1620,#1621,#1622,#1623,#1624,#1625,#1626,#1627));
#1620 = ORIENTED_EDGE('',*,*,#724,.T.);
#1621 = ORIENTED_EDGE('',*,*,#599,.F.);
#1622 = ORIENTED_EDGE('',*,*,#466,.F.);
#1623 = ORIENTED_EDGE('',*,*,#1466,.F.);
#1624 = ORIENTED_EDGE('',*,*,#643,.T.);
#1625 = ORIENTED_EDGE('',*,*,#748,.F.);
#1626 = ORIENTED_EDGE('',*,*,#796,.T.);
#1627 = ORIENTED_EDGE('',*,*,#772,.T.);
#1628 = PLANE('',#1629);
#1629 = AXIS2_PLACEMENT_3D('',#1630,#1631,#1632);
#1630 = CARTESIAN_POINT('',(-44.53167953219,14.765166155882,
    6.864794249109));
#1631 = DIRECTION('',(0.,-0.866025628186,0.499999611325));
#1632 = DIRECTION('',(0.,-0.499999611325,-0.866025628186));
#1633 = ADVANCED_FACE('',(#1634),#1645,.T.);
#1634 = FACE_BOUND('',#1635,.T.);
#1635 = EDGE_LOOP('',(#1636,#1637,#1643,#1644));
#1636 = ORIENTED_EDGE('',*,*,#1421,.F.);
#1637 = ORIENTED_EDGE('',*,*,#1638,.T.);
#1638 = EDGE_CURVE('',#1414,#1342,#1639,.T.);
#1639 = LINE('',#1640,#1641);
#1640 = CARTESIAN_POINT('',(-42.701,7.866025628186,7.85));
#1641 = VECTOR('',#1642,1.);
#1642 = DIRECTION('',(0.,-0.866025628186,-0.499999611325));
#1643 = ORIENTED_EDGE('',*,*,#1341,.T.);
#1644 = ORIENTED_EDGE('',*,*,#702,.F.);
#1645 = PLANE('',#1646);
#1646 = AXIS2_PLACEMENT_3D('',#1647,#1648,#1649);
#1647 = CARTESIAN_POINT('',(-42.301,8.066025472716,7.503589748726));
#1648 = DIRECTION('',(0.707106781187,-0.353553115758,0.612372594372));
#1649 = DIRECTION('',(-8.326672684689E-17,-0.866025628186,
    -0.499999611325));
#1650 = ADVANCED_FACE('',(#1651),#1661,.T.);
#1651 = FACE_BOUND('',#1652,.T.);
#1652 = EDGE_LOOP('',(#1653,#1654,#1660));
#1653 = ORIENTED_EDGE('',*,*,#677,.T.);
#1654 = ORIENTED_EDGE('',*,*,#1655,.T.);
#1655 = EDGE_CURVE('',#669,#1482,#1656,.T.);
#1656 = LINE('',#1657,#1658);
#1657 = CARTESIAN_POINT('',(-41.901,9.299385175293,5.74915408139));
#1658 = VECTOR('',#1659,1.);
#1659 = DIRECTION('',(-0.707106781187,-0.417123164987,0.57097133486));
#1660 = ORIENTED_EDGE('',*,*,#1490,.T.);
#1661 = PLANE('',#1662);
#1662 = AXIS2_PLACEMENT_3D('',#1663,#1664,#1665);
#1663 = CARTESIAN_POINT('',(-44.45099999997,9.108715347985,
    6.010148950422));
#1664 = DIRECTION('',(0.,0.807475405485,0.589901237104));
#1665 = DIRECTION('',(0.,-0.589901237104,0.807475405485));
#1666 = ADVANCED_FACE('',(#1667),#1678,.T.);
#1667 = FACE_BOUND('',#1668,.T.);
#1668 = EDGE_LOOP('',(#1669,#1670,#1676,#1677));
#1669 = ORIENTED_EDGE('',*,*,#668,.T.);
#1670 = ORIENTED_EDGE('',*,*,#1671,.T.);
#1671 = EDGE_CURVE('',#661,#1474,#1672,.T.);
#1672 = LINE('',#1673,#1674);
#1673 = CARTESIAN_POINT('',(-41.901,13.900614824707,5.74915408139));
#1674 = VECTOR('',#1675,1.);
#1675 = DIRECTION('',(-0.707106781187,0.417123164987,0.57097133486));
#1676 = ORIENTED_EDGE('',*,*,#1481,.F.);
#1677 = ORIENTED_EDGE('',*,*,#1655,.F.);
#1678 = CONICAL_SURFACE('',#1679,3.9,0.785398163397);
#1679 = AXIS2_PLACEMENT_3D('',#1680,#1681,#1682);
#1680 = CARTESIAN_POINT('',(-41.901,11.6,2.6));
#1681 = DIRECTION('',(-1.,0.,0.));
#1682 = DIRECTION('',(0.,-0.589901237104,0.807475405485));
#1683 = ADVANCED_FACE('',(#1684),#1689,.F.);
#1684 = FACE_BOUND('',#1685,.F.);
#1685 = EDGE_LOOP('',(#1686,#1687,#1688));
#1686 = ORIENTED_EDGE('',*,*,#660,.T.);
#1687 = ORIENTED_EDGE('',*,*,#1671,.T.);
#1688 = ORIENTED_EDGE('',*,*,#1473,.T.);
#1689 = PLANE('',#1690);
#1690 = AXIS2_PLACEMENT_3D('',#1691,#1692,#1693);
#1691 = CARTESIAN_POINT('',(-44.45099999997,14.091284652015,
    6.010148950422));
#1692 = DIRECTION('',(0.,0.807475405485,-0.589901237104));
#1693 = DIRECTION('',(0.,0.589901237104,0.807475405485));
#1694 = ADVANCED_FACE('',(#1695),#1712,.T.);
#1695 = FACE_BOUND('',#1696,.T.);
#1696 = EDGE_LOOP('',(#1697,#1705,#1711));
#1697 = ORIENTED_EDGE('',*,*,#1698,.F.);
#1698 = EDGE_CURVE('',#1699,#816,#1701,.T.);
#1699 = VERTEX_POINT('',#1700);
#1700 = CARTESIAN_POINT('',(-46.601,17.113345571803,4.516662295785));
#1701 = LINE('',#1702,#1703);
#1702 = CARTESIAN_POINT('',(-46.601,17.3,4.45));
#1703 = VECTOR('',#1704,1.);
#1704 = DIRECTION('',(0.,-0.941741911595,0.336336396998));
#1705 = ORIENTED_EDGE('',*,*,#1706,.F.);
#1706 = EDGE_CURVE('',#814,#1699,#1707,.T.);
#1707 = LINE('',#1708,#1709);
#1708 = CARTESIAN_POINT('',(-46.93167111774,16.621767614885,
    4.341098739743));
#1709 = VECTOR('',#1710,1.);
#1710 = DIRECTION('',(0.535143016628,0.795547287484,0.284124031244));
#1711 = ORIENTED_EDGE('',*,*,#813,.T.);
#1712 = PLANE('',#1713);
#1713 = AXIS2_PLACEMENT_3D('',#1714,#1715,#1716);
#1714 = CARTESIAN_POINT('',(-46.801,17.2327327206,4.261651617681));
#1715 = DIRECTION('',(-0.707106781187,0.237825747077,0.665912091816));
#1716 = DIRECTION('',(5.551115123126E-17,-0.941741911595,0.336336396998)
  );
#1717 = ADVANCED_FACE('',(#1718),#1729,.T.);
#1718 = FACE_BOUND('',#1719,.F.);
#1719 = EDGE_LOOP('',(#1720,#1721,#1722,#1728));
#1720 = ORIENTED_EDGE('',*,*,#823,.F.);
#1721 = ORIENTED_EDGE('',*,*,#1138,.T.);
#1722 = ORIENTED_EDGE('',*,*,#1723,.T.);
#1723 = EDGE_CURVE('',#1120,#1699,#1724,.T.);
#1724 = LINE('',#1725,#1726);
#1725 = CARTESIAN_POINT('',(-46.8020024979,16.902053795816,
    4.592123644351));
#1726 = VECTOR('',#1727,1.);
#1727 = DIRECTION('',(-0.667268387369,-0.701425724054,0.250509187162));
#1728 = ORIENTED_EDGE('',*,*,#1706,.F.);
#1729 = PLANE('',#1730);
#1730 = AXIS2_PLACEMENT_3D('',#1731,#1732,#1733);
#1731 = CARTESIAN_POINT('',(-46.90297844815,16.625764936937,
    4.275864058976));
#1732 = DIRECTION('',(-0.742988698169,0.603297826176,-0.28982671948));
#1733 = DIRECTION('',(-0.535143016628,-0.795547287484,-0.284124031244));
#1734 = ADVANCED_FACE('',(#1735),#1755,.F.);
#1735 = FACE_BOUND('',#1736,.F.);
#1736 = EDGE_LOOP('',(#1737,#1738,#1746,#1752,#1753,#1754));
#1737 = ORIENTED_EDGE('',*,*,#1119,.T.);
#1738 = ORIENTED_EDGE('',*,*,#1739,.T.);
#1739 = EDGE_CURVE('',#1122,#1740,#1742,.T.);
#1740 = VERTEX_POINT('',#1741);
#1741 = CARTESIAN_POINT('',(-42.301,17.113345571803,4.516662295785));
#1742 = LINE('',#1743,#1744);
#1743 = CARTESIAN_POINT('',(-43.44583533841,18.316784804607,
    4.086862569783));
#1744 = VECTOR('',#1745,1.);
#1745 = DIRECTION('',(0.667268387369,-0.701425724054,0.250509187162));
#1746 = ORIENTED_EDGE('',*,*,#1747,.T.);
#1747 = EDGE_CURVE('',#1740,#857,#1748,.T.);
#1748 = LINE('',#1749,#1750);
#1749 = CARTESIAN_POINT('',(-42.301,17.3,4.45));
#1750 = VECTOR('',#1751,1.);
#1751 = DIRECTION('',(0.,-0.941741911595,0.336336396998));
#1752 = ORIENTED_EDGE('',*,*,#864,.F.);
#1753 = ORIENTED_EDGE('',*,*,#1698,.F.);
#1754 = ORIENTED_EDGE('',*,*,#1723,.F.);
#1755 = PLANE('',#1756);
#1756 = AXIS2_PLACEMENT_3D('',#1757,#1758,#1759);
#1757 = CARTESIAN_POINT('',(-47.001,17.3,4.45));
#1758 = DIRECTION('',(-0.,-0.336336396998,-0.941741911595));
#1759 = DIRECTION('',(0.,-0.941741911595,0.336336396998));
#1760 = ADVANCED_FACE('',(#1761),#1771,.F.);
#1761 = FACE_BOUND('',#1762,.T.);
#1762 = EDGE_LOOP('',(#1763,#1764,#1765));
#1763 = ORIENTED_EDGE('',*,*,#1747,.T.);
#1764 = ORIENTED_EDGE('',*,*,#856,.T.);
#1765 = ORIENTED_EDGE('',*,*,#1766,.F.);
#1766 = EDGE_CURVE('',#1740,#849,#1767,.T.);
#1767 = LINE('',#1768,#1769);
#1768 = CARTESIAN_POINT('',(-42.37032888225,17.216410364778,
    4.553471150419));
#1769 = VECTOR('',#1770,1.);
#1770 = DIRECTION('',(0.535143016628,-0.795547287484,-0.284124031244));
#1771 = PLANE('',#1772);
#1772 = AXIS2_PLACEMENT_3D('',#1773,#1774,#1775);
#1773 = CARTESIAN_POINT('',(-42.101,17.2327327206,4.261651617681));
#1774 = DIRECTION('',(-0.707106781187,-0.237825747077,-0.665912091816));
#1775 = DIRECTION('',(2.775557561563E-17,0.941741911595,-0.336336396998)
  );
#1776 = ADVANCED_FACE('',(#1777),#1783,.T.);
#1777 = FACE_BOUND('',#1778,.F.);
#1778 = EDGE_LOOP('',(#1779,#1780,#1781,#1782));
#1779 = ORIENTED_EDGE('',*,*,#1739,.F.);
#1780 = ORIENTED_EDGE('',*,*,#1129,.T.);
#1781 = ORIENTED_EDGE('',*,*,#848,.T.);
#1782 = ORIENTED_EDGE('',*,*,#1766,.F.);
#1783 = PLANE('',#1784);
#1784 = AXIS2_PLACEMENT_3D('',#1785,#1786,#1787);
#1785 = CARTESIAN_POINT('',(-42.39902155184,17.22040768683,
    4.488236469652));
#1786 = DIRECTION('',(0.742988698169,0.603297826176,-0.28982671948));
#1787 = DIRECTION('',(-0.535143016628,0.795547287484,0.284124031244));
#1788 = ADVANCED_FACE('',(#1789),#1839,.F.);
#1789 = FACE_BOUND('',#1790,.F.);
#1790 = EDGE_LOOP('',(#1791,#1801,#1807,#1808,#1809,#1815,#1816,#1817,
    #1825,#1833));
#1791 = ORIENTED_EDGE('',*,*,#1792,.F.);
#1792 = EDGE_CURVE('',#1793,#1795,#1797,.T.);
#1793 = VERTEX_POINT('',#1794);
#1794 = CARTESIAN_POINT('',(-46.94631360007,6.6,4.333324591569));
#1795 = VERTEX_POINT('',#1796);
#1796 = CARTESIAN_POINT('',(-46.601,6.6,4.7));
#1797 = LINE('',#1798,#1799);
#1798 = CARTESIAN_POINT('',(-46.91378474967,6.6,4.367865743441));
#1799 = VECTOR('',#1800,1.);
#1800 = DIRECTION('',(0.685582949624,0.,0.72799451865));
#1801 = ORIENTED_EDGE('',*,*,#1802,.F.);
#1802 = EDGE_CURVE('',#990,#1793,#1803,.T.);
#1803 = LINE('',#1804,#1805);
#1804 = CARTESIAN_POINT('',(-46.91476660238,6.6,4.252451914329));
#1805 = VECTOR('',#1806,1.);
#1806 = DIRECTION('',(-0.36341180363,0.,0.931628606786));
#1807 = ORIENTED_EDGE('',*,*,#989,.T.);
#1808 = ORIENTED_EDGE('',*,*,#949,.T.);
#1809 = ORIENTED_EDGE('',*,*,#1810,.F.);
#1810 = EDGE_CURVE('',#1054,#941,#1811,.T.);
#1811 = LINE('',#1812,#1813);
#1812 = CARTESIAN_POINT('',(-41.901,6.6,4.699230723709));
#1813 = VECTOR('',#1814,1.);
#1814 = DIRECTION('',(-1.,0.,0.));
#1815 = ORIENTED_EDGE('',*,*,#1062,.F.);
#1816 = ORIENTED_EDGE('',*,*,#982,.T.);
#1817 = ORIENTED_EDGE('',*,*,#1818,.T.);
#1818 = EDGE_CURVE('',#975,#1819,#1821,.T.);
#1819 = VERTEX_POINT('',#1820);
#1820 = CARTESIAN_POINT('',(-41.95568639993,6.6,4.333324591569));
#1821 = LINE('',#1822,#1823);
#1822 = CARTESIAN_POINT('',(-42.3144698651,6.6,3.413561016297));
#1823 = VECTOR('',#1824,1.);
#1824 = DIRECTION('',(0.36341180363,0.,0.931628606786));
#1825 = ORIENTED_EDGE('',*,*,#1826,.F.);
#1826 = EDGE_CURVE('',#1827,#1819,#1829,.T.);
#1827 = VERTEX_POINT('',#1828);
#1828 = CARTESIAN_POINT('',(-42.301,6.6,4.7));
#1829 = LINE('',#1830,#1831);
#1830 = CARTESIAN_POINT('',(-43.1867764014,6.6,5.640572348428));
#1831 = VECTOR('',#1832,1.);
#1832 = DIRECTION('',(0.685582949624,0.,-0.72799451865));
#1833 = ORIENTED_EDGE('',*,*,#1834,.F.);
#1834 = EDGE_CURVE('',#1795,#1827,#1835,.T.);
#1835 = LINE('',#1836,#1837);
#1836 = CARTESIAN_POINT('',(-47.001,6.6,4.7));
#1837 = VECTOR('',#1838,1.);
#1838 = DIRECTION('',(1.,0.,0.));
#1839 = PLANE('',#1840);
#1840 = AXIS2_PLACEMENT_3D('',#1841,#1842,#1843);
#1841 = CARTESIAN_POINT('',(-47.001,6.6,4.2));
#1842 = DIRECTION('',(0.,-1.,0.));
#1843 = DIRECTION('',(0.,0.,1.));
#1844 = ADVANCED_FACE('',(#1845),#1851,.T.);
#1845 = FACE_BOUND('',#1846,.F.);
#1846 = EDGE_LOOP('',(#1847,#1848,#1849,#1850));
#1847 = ORIENTED_EDGE('',*,*,#1810,.T.);
#1848 = ORIENTED_EDGE('',*,*,#940,.T.);
#1849 = ORIENTED_EDGE('',*,*,#1333,.F.);
#1850 = ORIENTED_EDGE('',*,*,#1053,.F.);
#1851 = CYLINDRICAL_SURFACE('',#1852,8.2);
#1852 = AXIS2_PLACEMENT_3D('',#1853,#1854,#1855);
#1853 = CARTESIAN_POINT('',(-41.901,11.6,-1.8));
#1854 = DIRECTION('',(1.,0.,0.));
#1855 = DIRECTION('',(0.,-1.,0.));
#1856 = ADVANCED_FACE('',(#1857),#1889,.F.);
#1857 = FACE_BOUND('',#1858,.F.);
#1858 = EDGE_LOOP('',(#1859,#1867,#1868,#1876,#1882,#1883));
#1859 = ORIENTED_EDGE('',*,*,#1860,.F.);
#1860 = EDGE_CURVE('',#1795,#1861,#1863,.T.);
#1861 = VERTEX_POINT('',#1862);
#1862 = CARTESIAN_POINT('',(-46.601,6.086654428197,4.516662295785));
#1863 = LINE('',#1864,#1865);
#1864 = CARTESIAN_POINT('',(-46.601,6.6,4.7));
#1865 = VECTOR('',#1866,1.);
#1866 = DIRECTION('',(0.,-0.941741911595,-0.336336396998));
#1867 = ORIENTED_EDGE('',*,*,#1834,.T.);
#1868 = ORIENTED_EDGE('',*,*,#1869,.T.);
#1869 = EDGE_CURVE('',#1827,#1870,#1872,.T.);
#1870 = VERTEX_POINT('',#1871);
#1871 = CARTESIAN_POINT('',(-42.301,6.086654428197,4.516662295785));
#1872 = LINE('',#1873,#1874);
#1873 = CARTESIAN_POINT('',(-42.301,6.6,4.7));
#1874 = VECTOR('',#1875,1.);
#1875 = DIRECTION('',(0.,-0.941741911595,-0.336336396998));
#1876 = ORIENTED_EDGE('',*,*,#1877,.F.);
#1877 = EDGE_CURVE('',#967,#1870,#1878,.T.);
#1878 = LINE('',#1879,#1880);
#1879 = CARTESIAN_POINT('',(-43.26112700663,5.077378710119,
    4.156206682185));
#1880 = VECTOR('',#1881,1.);
#1881 = DIRECTION('',(0.667268387369,0.701425724054,0.250509187162));
#1882 = ORIENTED_EDGE('',*,*,#964,.F.);
#1883 = ORIENTED_EDGE('',*,*,#1884,.T.);
#1884 = EDGE_CURVE('',#965,#1861,#1885,.T.);
#1885 = LINE('',#1886,#1887);
#1886 = CARTESIAN_POINT('',(-46.98671082968,6.49210971891,4.661467756754
    ));
#1887 = VECTOR('',#1888,1.);
#1888 = DIRECTION('',(-0.667268387369,0.701425724054,0.250509187162));
#1889 = PLANE('',#1890);
#1890 = AXIS2_PLACEMENT_3D('',#1891,#1892,#1893);
#1891 = CARTESIAN_POINT('',(-47.001,6.6,4.7));
#1892 = DIRECTION('',(0.,0.336336396998,-0.941741911595));
#1893 = DIRECTION('',(0.,-0.941741911595,-0.336336396998));
#1894 = ADVANCED_FACE('',(#1895),#1906,.F.);
#1895 = FACE_BOUND('',#1896,.T.);
#1896 = EDGE_LOOP('',(#1897,#1898,#1899,#1900));
#1897 = ORIENTED_EDGE('',*,*,#1802,.F.);
#1898 = ORIENTED_EDGE('',*,*,#997,.T.);
#1899 = ORIENTED_EDGE('',*,*,#1884,.T.);
#1900 = ORIENTED_EDGE('',*,*,#1901,.F.);
#1901 = EDGE_CURVE('',#1793,#1861,#1902,.T.);
#1902 = LINE('',#1903,#1904);
#1903 = CARTESIAN_POINT('',(-46.93167111774,6.578232385115,
    4.341098739743));
#1904 = VECTOR('',#1905,1.);
#1905 = DIRECTION('',(0.535143016628,-0.795547287484,0.284124031244));
#1906 = PLANE('',#1907);
#1907 = AXIS2_PLACEMENT_3D('',#1908,#1909,#1910);
#1908 = CARTESIAN_POINT('',(-46.90297844815,6.574235063063,
    4.275864058976));
#1909 = DIRECTION('',(0.742988698169,0.603297826176,0.28982671948));
#1910 = DIRECTION('',(-0.535143016628,0.795547287484,-0.284124031244));
#1911 = ADVANCED_FACE('',(#1912),#1923,.F.);
#1912 = FACE_BOUND('',#1913,.T.);
#1913 = EDGE_LOOP('',(#1914,#1915,#1916,#1917));
#1914 = ORIENTED_EDGE('',*,*,#1877,.F.);
#1915 = ORIENTED_EDGE('',*,*,#974,.T.);
#1916 = ORIENTED_EDGE('',*,*,#1818,.T.);
#1917 = ORIENTED_EDGE('',*,*,#1918,.F.);
#1918 = EDGE_CURVE('',#1870,#1819,#1919,.T.);
#1919 = LINE('',#1920,#1921);
#1920 = CARTESIAN_POINT('',(-42.37032888225,5.983589635222,
    4.553471150419));
#1921 = VECTOR('',#1922,1.);
#1922 = DIRECTION('',(0.535143016628,0.795547287484,-0.284124031244));
#1923 = PLANE('',#1924);
#1924 = AXIS2_PLACEMENT_3D('',#1925,#1926,#1927);
#1925 = CARTESIAN_POINT('',(-42.39902155184,5.97959231317,4.488236469652
    ));
#1926 = DIRECTION('',(-0.742988698169,0.603297826176,0.28982671948));
#1927 = DIRECTION('',(-0.535143016628,-0.795547287484,0.284124031244));
#1928 = ADVANCED_FACE('',(#1929),#1940,.F.);
#1929 = FACE_BOUND('',#1930,.F.);
#1930 = EDGE_LOOP('',(#1931,#1937,#1938,#1939));
#1931 = ORIENTED_EDGE('',*,*,#1932,.T.);
#1932 = EDGE_CURVE('',#1194,#1291,#1933,.T.);
#1933 = LINE('',#1934,#1935);
#1934 = CARTESIAN_POINT('',(-43.501,10.615147186258,6.184852813742));
#1935 = VECTOR('',#1936,1.);
#1936 = DIRECTION('',(-1.,-0.,-0.));
#1937 = ORIENTED_EDGE('',*,*,#1298,.T.);
#1938 = ORIENTED_EDGE('',*,*,#1161,.F.);
#1939 = ORIENTED_EDGE('',*,*,#1193,.F.);
#1940 = PLANE('',#1941);
#1941 = AXIS2_PLACEMENT_3D('',#1942,#1943,#1944);
#1942 = CARTESIAN_POINT('',(-43.501,10.615147186258,6.184852813742));
#1943 = DIRECTION('',(0.,-0.98549479958,-0.169705627485));
#1944 = DIRECTION('',(0.,0.169705627485,-0.98549479958));
#1945 = ADVANCED_FACE('',(#1946),#1957,.T.);
#1946 = FACE_BOUND('',#1947,.T.);
#1947 = EDGE_LOOP('',(#1948,#1949,#1950,#1956));
#1948 = ORIENTED_EDGE('',*,*,#1932,.T.);
#1949 = ORIENTED_EDGE('',*,*,#1290,.T.);
#1950 = ORIENTED_EDGE('',*,*,#1951,.F.);
#1951 = EDGE_CURVE('',#1202,#1283,#1952,.T.);
#1952 = LINE('',#1953,#1954);
#1953 = CARTESIAN_POINT('',(-43.501,11.107894586048,6.1));
#1954 = VECTOR('',#1955,1.);
#1955 = DIRECTION('',(-1.,-0.,-0.));
#1956 = ORIENTED_EDGE('',*,*,#1201,.F.);
#1957 = PLANE('',#1958);
#1958 = AXIS2_PLACEMENT_3D('',#1959,#1960,#1961);
#1959 = CARTESIAN_POINT('',(-43.501,10.615147186258,6.184852813742));
#1960 = DIRECTION('',(0.,-0.169705627485,-0.98549479958));
#1961 = DIRECTION('',(0.,0.98549479958,-0.169705627485));
#1962 = ADVANCED_FACE('',(#1963),#1974,.F.);
#1963 = FACE_BOUND('',#1964,.F.);
#1964 = EDGE_LOOP('',(#1965,#1971,#1972,#1973));
#1965 = ORIENTED_EDGE('',*,*,#1966,.T.);
#1966 = EDGE_CURVE('',#1210,#1275,#1967,.T.);
#1967 = LINE('',#1968,#1969);
#1968 = CARTESIAN_POINT('',(-43.501,12.092105413952,6.1));
#1969 = VECTOR('',#1970,1.);
#1970 = DIRECTION('',(-1.,-0.,-0.));
#1971 = ORIENTED_EDGE('',*,*,#1282,.F.);
#1972 = ORIENTED_EDGE('',*,*,#1951,.F.);
#1973 = ORIENTED_EDGE('',*,*,#1209,.F.);
#1974 = PLANE('',#1975);
#1975 = AXIS2_PLACEMENT_3D('',#1976,#1977,#1978);
#1976 = CARTESIAN_POINT('',(-44.451,11.6,6.1));
#1977 = DIRECTION('',(0.,0.,1.));
#1978 = DIRECTION('',(1.,0.,0.));
#1979 = ADVANCED_FACE('',(#1980),#1991,.F.);
#1980 = FACE_BOUND('',#1981,.F.);
#1981 = EDGE_LOOP('',(#1982,#1988,#1989,#1990));
#1982 = ORIENTED_EDGE('',*,*,#1983,.T.);
#1983 = EDGE_CURVE('',#1218,#1267,#1984,.T.);
#1984 = LINE('',#1985,#1986);
#1985 = CARTESIAN_POINT('',(-43.501,12.584852813742,6.184852813742));
#1986 = VECTOR('',#1987,1.);
#1987 = DIRECTION('',(-1.,-0.,-0.));
#1988 = ORIENTED_EDGE('',*,*,#1274,.T.);
#1989 = ORIENTED_EDGE('',*,*,#1966,.F.);
#1990 = ORIENTED_EDGE('',*,*,#1217,.F.);
#1991 = PLANE('',#1992);
#1992 = AXIS2_PLACEMENT_3D('',#1993,#1994,#1995);
#1993 = CARTESIAN_POINT('',(-43.501,12.584852813742,6.184852813742));
#1994 = DIRECTION('',(0.,-0.169705627485,0.98549479958));
#1995 = DIRECTION('',(0.,-0.98549479958,-0.169705627485));
#1996 = ADVANCED_FACE('',(#1997),#2003,.T.);
#1997 = FACE_BOUND('',#1998,.T.);
#1998 = EDGE_LOOP('',(#1999,#2000,#2001,#2002));
#1999 = ORIENTED_EDGE('',*,*,#1983,.T.);
#2000 = ORIENTED_EDGE('',*,*,#1266,.T.);
#2001 = ORIENTED_EDGE('',*,*,#1248,.F.);
#2002 = ORIENTED_EDGE('',*,*,#1225,.F.);
#2003 = PLANE('',#2004);
#2004 = AXIS2_PLACEMENT_3D('',#2005,#2006,#2007);
#2005 = CARTESIAN_POINT('',(-43.501,12.584852813742,6.184852813742));
#2006 = DIRECTION('',(0.,-0.98549479958,0.169705627485));
#2007 = DIRECTION('',(0.,-0.169705627485,-0.98549479958));
#2008 = ADVANCED_FACE('',(#2009),#2020,.T.);
#2009 = FACE_BOUND('',#2010,.T.);
#2010 = EDGE_LOOP('',(#2011,#2012,#2013,#2014));
#2011 = ORIENTED_EDGE('',*,*,#1397,.T.);
#2012 = ORIENTED_EDGE('',*,*,#1381,.T.);
#2013 = ORIENTED_EDGE('',*,*,#1312,.F.);
#2014 = ORIENTED_EDGE('',*,*,#2015,.F.);
#2015 = EDGE_CURVE('',#1398,#1313,#2016,.T.);
#2016 = LINE('',#2017,#2018);
#2017 = CARTESIAN_POINT('',(-47.001,8.316025278378,7.070576934633));
#2018 = VECTOR('',#2019,1.);
#2019 = DIRECTION('',(0.,-0.866025628186,-0.499999611325));
#2020 = PLANE('',#2021);
#2021 = AXIS2_PLACEMENT_3D('',#2022,#2023,#2024);
#2022 = CARTESIAN_POINT('',(-47.001,8.316025278378,7.070576934633));
#2023 = DIRECTION('',(2.05E-15,-0.499999611325,0.866025628186));
#2024 = DIRECTION('',(-9.860761315263E-32,-0.866025628186,
    -0.499999611325));
#2025 = ADVANCED_FACE('',(#2026),#2037,.T.);
#2026 = FACE_BOUND('',#2027,.F.);
#2027 = EDGE_LOOP('',(#2028,#2029,#2035,#2036));
#2028 = ORIENTED_EDGE('',*,*,#1405,.F.);
#2029 = ORIENTED_EDGE('',*,*,#2030,.T.);
#2030 = EDGE_CURVE('',#1406,#1350,#2031,.T.);
#2031 = LINE('',#2032,#2033);
#2032 = CARTESIAN_POINT('',(-46.101,7.866025628186,7.85));
#2033 = VECTOR('',#2034,1.);
#2034 = DIRECTION('',(0.,-0.866025628186,-0.499999611325));
#2035 = ORIENTED_EDGE('',*,*,#1357,.T.);
#2036 = ORIENTED_EDGE('',*,*,#2015,.F.);
#2037 = PLANE('',#2038);
#2038 = AXIS2_PLACEMENT_3D('',#2039,#2040,#2041);
#2039 = CARTESIAN_POINT('',(-46.551,8.091025453282,7.460288467316));
#2040 = DIRECTION('',(-0.707106781187,-0.353553115758,0.612372594372));
#2041 = DIRECTION('',(1.221245327088E-15,0.866025628186,0.499999611325)
  );
#2042 = ADVANCED_FACE('',(#2043),#2049,.T.);
#2043 = FACE_BOUND('',#2044,.T.);
#2044 = EDGE_LOOP('',(#2045,#2046,#2047,#2048));
#2045 = ORIENTED_EDGE('',*,*,#1413,.T.);
#2046 = ORIENTED_EDGE('',*,*,#2030,.T.);
#2047 = ORIENTED_EDGE('',*,*,#1349,.F.);
#2048 = ORIENTED_EDGE('',*,*,#1638,.F.);
#2049 = PLANE('',#2050);
#2050 = AXIS2_PLACEMENT_3D('',#2051,#2052,#2053);
#2051 = CARTESIAN_POINT('',(-41.901,7.866025628186,7.85));
#2052 = DIRECTION('',(0.,-0.499999611325,0.866025628186));
#2053 = DIRECTION('',(0.,-0.866025628186,-0.499999611325));
#2054 = ADVANCED_FACE('',(#2055),#2067,.T.);
#2055 = FACE_BOUND('',#2056,.T.);
#2056 = EDGE_LOOP('',(#2057,#2058,#2059,#2066));
#2057 = ORIENTED_EDGE('',*,*,#1450,.T.);
#2058 = ORIENTED_EDGE('',*,*,#1603,.T.);
#2059 = ORIENTED_EDGE('',*,*,#2060,.F.);
#2060 = EDGE_CURVE('',#1508,#1596,#2061,.T.);
#2061 = CIRCLE('',#2062,3.900000000023);
#2062 = AXIS2_PLACEMENT_3D('',#2063,#2064,#2065);
#2063 = CARTESIAN_POINT('',(-47.001,11.6,2.6));
#2064 = DIRECTION('',(-1.,0.,0.));
#2065 = DIRECTION('',(0.,-0.589901237104,0.807475405485));
#2066 = ORIENTED_EDGE('',*,*,#1526,.F.);
#2067 = CONICAL_SURFACE('',#2068,4.4,0.785398163375);
#2068 = AXIS2_PLACEMENT_3D('',#2069,#2070,#2071);
#2069 = CARTESIAN_POINT('',(-46.501,11.6,2.6));
#2070 = DIRECTION('',(1.,0.,0.));
#2071 = DIRECTION('',(0.,-0.589901237104,0.807475405485));
#2072 = ADVANCED_FACE('',(#2073),#2079,.T.);
#2073 = FACE_BOUND('',#2074,.F.);
#2074 = EDGE_LOOP('',(#2075,#2076,#2077,#2078));
#2075 = ORIENTED_EDGE('',*,*,#1507,.T.);
#2076 = ORIENTED_EDGE('',*,*,#1580,.T.);
#2077 = ORIENTED_EDGE('',*,*,#1595,.F.);
#2078 = ORIENTED_EDGE('',*,*,#2060,.F.);
#2079 = CYLINDRICAL_SURFACE('',#2080,3.900000000023);
#2080 = AXIS2_PLACEMENT_3D('',#2081,#2082,#2083);
#2081 = CARTESIAN_POINT('',(-47.001,11.6,2.6));
#2082 = DIRECTION('',(1.,0.,0.));
#2083 = DIRECTION('',(0.,-0.589901237104,0.807475405485));
#2084 = ADVANCED_FACE('',(#2085),#2088,.F.);
#2085 = FACE_BOUND('',#2086,.T.);
#2086 = EDGE_LOOP('',(#2087));
#2087 = ORIENTED_EDGE('',*,*,#1552,.T.);
#2088 = PLANE('',#2089);
#2089 = AXIS2_PLACEMENT_3D('',#2090,#2091,#2092);
#2090 = CARTESIAN_POINT('',(-48.501,11.6,4.));
#2091 = DIRECTION('',(1.,0.,0.));
#2092 = DIRECTION('',(0.,0.,1.));
#2093 = ADVANCED_FACE('',(#2094),#2099,.T.);
#2094 = FACE_BOUND('',#2095,.T.);
#2095 = EDGE_LOOP('',(#2096,#2097,#2098));
#2096 = ORIENTED_EDGE('',*,*,#1792,.F.);
#2097 = ORIENTED_EDGE('',*,*,#1901,.T.);
#2098 = ORIENTED_EDGE('',*,*,#1860,.F.);
#2099 = PLANE('',#2100);
#2100 = AXIS2_PLACEMENT_3D('',#2101,#2102,#2103);
#2101 = CARTESIAN_POINT('',(-46.801,6.6672672794,4.511651617681));
#2102 = DIRECTION('',(-0.707106781187,-0.237825747077,0.665912091816));
#2103 = DIRECTION('',(2.775557561563E-17,-0.941741911595,-0.336336396998
    ));
#2104 = ADVANCED_FACE('',(#2105),#2110,.F.);
#2105 = FACE_BOUND('',#2106,.T.);
#2106 = EDGE_LOOP('',(#2107,#2108,#2109));
#2107 = ORIENTED_EDGE('',*,*,#1826,.F.);
#2108 = ORIENTED_EDGE('',*,*,#1869,.T.);
#2109 = ORIENTED_EDGE('',*,*,#1918,.T.);
#2110 = PLANE('',#2111);
#2111 = AXIS2_PLACEMENT_3D('',#2112,#2113,#2114);
#2112 = CARTESIAN_POINT('',(-42.101,6.6672672794,4.511651617681));
#2113 = DIRECTION('',(-0.707106781187,0.237825747077,-0.665912091816));
#2114 = DIRECTION('',(-2.775557561563E-17,0.941741911595,0.336336396998)
  );
#2115 = ( GEOMETRIC_REPRESENTATION_CONTEXT(3) 
GLOBAL_UNCERTAINTY_ASSIGNED_CONTEXT((#2119)) 
GLOBAL_UNIT_ASSIGNED_CONTEXT((#2116,#2117,#2118)) REPRESENTATION_CONTEXT
('Context #1','3D Context with UNIT and UNCERTAINTY') );
#2116 = ( LENGTH_UNIT() NAMED_UNIT(*) SI_UNIT(.MILLI.,.METRE.) );
#2117 = ( NAMED_UNIT(*) PLANE_ANGLE_UNIT() SI_UNIT($,.RADIAN.) );
#2118 = ( NAMED_UNIT(*) SI_UNIT($,.STERADIAN.) SOLID_ANGLE_UNIT() );
#2119 = UNCERTAINTY_MEASURE_WITH_UNIT(LENGTH_MEASURE(5.E-07),#2116,
  'distance_accuracy_value','confusion accuracy');
#2120 = PRODUCT_RELATED_PRODUCT_CATEGORY('part',$,(#7));
#2121 = MECHANICAL_DESIGN_GEOMETRIC_PRESENTATION_REPRESENTATION('',(
    #2122),#2115);
#2122 = STYLED_ITEM('color',(#2123),#15);
#2123 = PRESENTATION_STYLE_ASSIGNMENT((#2124,#2130));
#2124 = SURFACE_STYLE_USAGE(.BOTH.,#2125);
#2125 = SURFACE_SIDE_STYLE('',(#2126));
#2126 = SURFACE_STYLE_FILL_AREA(#2127);
#2127 = FILL_AREA_STYLE('',(#2128));
#2128 = FILL_AREA_STYLE_COLOUR('',#2129);
#2129 = COLOUR_RGB('',0.678431390124,0.709803936702,0.741176476869);
#2130 = CURVE_STYLE('',#2131,POSITIVE_LENGTH_MEASURE(0.1),#2132);
#2131 = DRAUGHTING_PRE_DEFINED_CURVE_FONT('continuous');
#2132 = COLOUR_RGB('',9.803921802644E-02,9.803921802644E-02,
  9.803921802644E-02);
ENDSEC;
END-ISO-10303-21;
