ISO-10303-21;
HEADER;
FILE_DESCRIPTION(('FreeCAD Model'),'2;1');
FILE_NAME('Open CASCADE Shape Model','2026-08-29T12:42:29',(''),(''),
  'Open CASCADE STEP processor 7.8','FreeCAD','Unknown');
FILE_SCHEMA(('AUTOMOTIVE_DESIGN { 1 0 10303 214 1 1 1 1 }'));
ENDSEC;
DATA;
#1 = APPLICATION_PROTOCOL_DEFINITION('international standard',
  'automotive_design',2000,#2);
#2 = APPLICATION_CONTEXT(
  'core data for automotive mechanical design processes');
#3 = SHAPE_DEFINITION_REPRESENTATION(#4,#10);
#4 = PRODUCT_DEFINITION_SHAPE('','',#5);
#5 = PRODUCT_DEFINITION('design','',#6,#9);
#6 = PRODUCT_DEFINITION_FORMATION('','',#7);
#7 = PRODUCT('page_button','page_button','',(#8));
#8 = PRODUCT_CONTEXT('',#2,'mechanical');
#9 = PRODUCT_DEFINITION_CONTEXT('part definition',#2,'design');
#10 = ADVANCED_BREP_SHAPE_REPRESENTATION('',(#11,#15),#1155);
#11 = AXIS2_PLACEMENT_3D('',#12,#13,#14);
#12 = CARTESIAN_POINT('',(0.,0.,0.));
#13 = DIRECTION('',(0.,0.,1.));
#14 = DIRECTION('',(1.,0.,-0.));
#15 = MANIFOLD_SOLID_BREP('',#16);
#16 = CLOSED_SHELL('',(#17,#57,#90,#153,#220,#245,#269,#294,#404,#436,
    #553,#570,#595,#619,#644,#677,#695,#712,#736,#761,#803,#828,#845,
    #870,#899,#922,#945,#962,#979,#996,#1013,#1031,#1048,#1067,#1084,
    #1097,#1109,#1134,#1146));
#17 = ADVANCED_FACE('',(#18),#52,.F.);
#18 = FACE_BOUND('',#19,.F.);
#19 = EDGE_LOOP('',(#20,#30,#38,#46));
#20 = ORIENTED_EDGE('',*,*,#21,.F.);
#21 = EDGE_CURVE('',#22,#24,#26,.T.);
#22 = VERTEX_POINT('',#23);
#23 = CARTESIAN_POINT('',(-99.10099999999,10.599999999996,5.7));
#24 = VERTEX_POINT('',#25);
#25 = CARTESIAN_POINT('',(-98.30099999999,10.599999999999,6.5));
#26 = LINE('',#27,#28);
#27 = CARTESIAN_POINT('',(-99.10099999999,10.599999999996,5.7));
#28 = VECTOR('',#29,1.);
#29 = DIRECTION('',(0.707106781187,2.94616E-12,0.707106781187));
#30 = ORIENTED_EDGE('',*,*,#31,.T.);
#31 = EDGE_CURVE('',#22,#32,#34,.T.);
#32 = VERTEX_POINT('',#33);
#33 = CARTESIAN_POINT('',(-99.101,12.599999999996,5.7));
#34 = LINE('',#35,#36);
#35 = CARTESIAN_POINT('',(-99.10099999999,10.599999999996,5.7));
#36 = VECTOR('',#37,1.);
#37 = DIRECTION('',(-4.17089E-12,1.,0.));
#38 = ORIENTED_EDGE('',*,*,#39,.T.);
#39 = EDGE_CURVE('',#32,#40,#42,.T.);
#40 = VERTEX_POINT('',#41);
#41 = CARTESIAN_POINT('',(-98.301,12.599999999999,6.5));
#42 = LINE('',#43,#44);
#43 = CARTESIAN_POINT('',(-98.701,12.599999999998,6.1));
#44 = VECTOR('',#45,1.);
#45 = DIRECTION('',(0.707106781187,2.94926E-12,0.707106781187));
#46 = ORIENTED_EDGE('',*,*,#47,.F.);
#47 = EDGE_CURVE('',#24,#40,#48,.T.);
#48 = LINE('',#49,#50);
#49 = CARTESIAN_POINT('',(-98.30099999999,10.599999999999,6.5));
#50 = VECTOR('',#51,1.);
#51 = DIRECTION('',(-4.17089E-12,1.,0.));
#52 = PLANE('',#53);
#53 = AXIS2_PLACEMENT_3D('',#54,#55,#56);
#54 = CARTESIAN_POINT('',(-98.70099999999,10.599999999997,6.1));
#55 = DIRECTION('',(0.707106781187,2.94926E-12,-0.707106781187));
#56 = DIRECTION('',(-4.170886745482E-12,1.,-3.254517766326E-18));
#57 = ADVANCED_FACE('',(#58),#85,.T.);
#58 = FACE_BOUND('',#59,.F.);
#59 = EDGE_LOOP('',(#60,#70,#77,#78));
#60 = ORIENTED_EDGE('',*,*,#61,.F.);
#61 = EDGE_CURVE('',#62,#64,#66,.T.);
#62 = VERTEX_POINT('',#63);
#63 = CARTESIAN_POINT('',(-98.101,9.600000000008,5.7));
#64 = VERTEX_POINT('',#65);
#65 = CARTESIAN_POINT('',(-98.101,10.400000000008,6.5));
#66 = LINE('',#67,#68);
#67 = CARTESIAN_POINT('',(-98.101,10.000000000008,6.1));
#68 = VECTOR('',#69,1.);
#69 = DIRECTION('',(-1.8E-16,0.707106781187,0.707106781187));
#70 = ORIENTED_EDGE('',*,*,#71,.T.);
#71 = EDGE_CURVE('',#62,#22,#72,.T.);
#72 = CIRCLE('',#73,0.999999999992);
#73 = AXIS2_PLACEMENT_3D('',#74,#75,#76);
#74 = CARTESIAN_POINT('',(-98.101,10.6,5.7));
#75 = DIRECTION('',(-0.,-0.,-1.));
#76 = DIRECTION('',(0.,-1.,0.));
#77 = ORIENTED_EDGE('',*,*,#21,.T.);
#78 = ORIENTED_EDGE('',*,*,#79,.F.);
#79 = EDGE_CURVE('',#64,#24,#80,.T.);
#80 = CIRCLE('',#81,0.199999999992);
#81 = AXIS2_PLACEMENT_3D('',#82,#83,#84);
#82 = CARTESIAN_POINT('',(-98.101,10.6,6.5));
#83 = DIRECTION('',(-0.,-0.,-1.));
#84 = DIRECTION('',(0.,-1.,0.));
#85 = CONICAL_SURFACE('',#86,0.999999999992,0.785398163397);
#86 = AXIS2_PLACEMENT_3D('',#87,#88,#89);
#87 = CARTESIAN_POINT('',(-98.101,10.6,5.7));
#88 = DIRECTION('',(-0.,-0.,-1.));
#89 = DIRECTION('',(0.,-1.,0.));
#90 = ADVANCED_FACE('',(#91),#148,.T.);
#91 = FACE_BOUND('',#92,.T.);
#92 = EDGE_LOOP('',(#93,#103,#111,#119,#125,#126,#134,#142));
#93 = ORIENTED_EDGE('',*,*,#94,.T.);
#94 = EDGE_CURVE('',#95,#97,#99,.T.);
#95 = VERTEX_POINT('',#96);
#96 = CARTESIAN_POINT('',(-99.101,14.985735931288,3.8));
#97 = VERTEX_POINT('',#98);
#98 = CARTESIAN_POINT('',(-99.101,8.214264068712,3.8));
#99 = LINE('',#100,#101);
#100 = CARTESIAN_POINT('',(-99.101,11.6,3.8));
#101 = VECTOR('',#102,1.);
#102 = DIRECTION('',(0.,-1.,0.));
#103 = ORIENTED_EDGE('',*,*,#104,.T.);
#104 = EDGE_CURVE('',#97,#105,#107,.T.);
#105 = VERTEX_POINT('',#106);
#106 = CARTESIAN_POINT('',(-99.101,9.314264068712,4.9));
#107 = LINE('',#108,#109);
#108 = CARTESIAN_POINT('',(-99.101,8.012132034356,3.597867965644));
#109 = VECTOR('',#110,1.);
#110 = DIRECTION('',(0.,0.707106781187,0.707106781187));
#111 = ORIENTED_EDGE('',*,*,#112,.F.);
#112 = EDGE_CURVE('',#113,#105,#115,.T.);
#113 = VERTEX_POINT('',#114);
#114 = CARTESIAN_POINT('',(-99.10099999999,10.599999999996,4.9));
#115 = LINE('',#116,#117);
#116 = CARTESIAN_POINT('',(-99.101,11.6,4.9));
#117 = VECTOR('',#118,1.);
#118 = DIRECTION('',(0.,-1.,0.));
#119 = ORIENTED_EDGE('',*,*,#120,.T.);
#120 = EDGE_CURVE('',#113,#22,#121,.T.);
#121 = LINE('',#122,#123);
#122 = CARTESIAN_POINT('',(-99.10099999999,10.599999999996,4.9));
#123 = VECTOR('',#124,1.);
#124 = DIRECTION('',(0.,0.,1.));
#125 = ORIENTED_EDGE('',*,*,#31,.T.);
#126 = ORIENTED_EDGE('',*,*,#127,.F.);
#127 = EDGE_CURVE('',#128,#32,#130,.T.);
#128 = VERTEX_POINT('',#129);
#129 = CARTESIAN_POINT('',(-99.101,12.599999999996,4.9));
#130 = LINE('',#131,#132);
#131 = CARTESIAN_POINT('',(-99.101,12.599999999996,4.9));
#132 = VECTOR('',#133,1.);
#133 = DIRECTION('',(0.,0.,1.));
#134 = ORIENTED_EDGE('',*,*,#135,.T.);
#135 = EDGE_CURVE('',#128,#136,#138,.T.);
#136 = VERTEX_POINT('',#137);
#137 = CARTESIAN_POINT('',(-99.101,13.885735931288,4.9));
#138 = LINE('',#139,#140);
#139 = CARTESIAN_POINT('',(-99.101,11.6,4.9));
#140 = VECTOR('',#141,1.);
#141 = DIRECTION('',(0.,1.,0.));
#142 = ORIENTED_EDGE('',*,*,#143,.F.);
#143 = EDGE_CURVE('',#95,#136,#144,.T.);
#144 = LINE('',#145,#146);
#145 = CARTESIAN_POINT('',(-99.101,15.187867965644,3.597867965644));
#146 = VECTOR('',#147,1.);
#147 = DIRECTION('',(0.,-0.707106781187,0.707106781187));
#148 = PLANE('',#149);
#149 = AXIS2_PLACEMENT_3D('',#150,#151,#152);
#150 = CARTESIAN_POINT('',(-99.10099999999,11.6,4.468971881904));
#151 = DIRECTION('',(-1.,-1.966E-13,1.75171E-12));
#152 = DIRECTION('',(-1.75171E-12,0.,-1.));
#153 = ADVANCED_FACE('',(#154),#215,.T.);
#154 = FACE_BOUND('',#155,.T.);
#155 = EDGE_LOOP('',(#156,#166,#173,#174,#175,#183,#192,#200,#208));
#156 = ORIENTED_EDGE('',*,*,#157,.F.);
#157 = EDGE_CURVE('',#158,#160,#162,.T.);
#158 = VERTEX_POINT('',#159);
#159 = CARTESIAN_POINT('',(-98.101,12.8,6.5));
#160 = VERTEX_POINT('',#161);
#161 = CARTESIAN_POINT('',(-91.301,12.8,6.5));
#162 = LINE('',#163,#164);
#163 = CARTESIAN_POINT('',(-98.101,12.8,6.5));
#164 = VECTOR('',#165,1.);
#165 = DIRECTION('',(1.,2.6E-16,0.));
#166 = ORIENTED_EDGE('',*,*,#167,.F.);
#167 = EDGE_CURVE('',#40,#158,#168,.T.);
#168 = CIRCLE('',#169,0.2);
#169 = AXIS2_PLACEMENT_3D('',#170,#171,#172);
#170 = CARTESIAN_POINT('',(-98.101,12.6,6.5));
#171 = DIRECTION('',(-0.,0.,-1.));
#172 = DIRECTION('',(-1.,-4.16733E-12,0.));
#173 = ORIENTED_EDGE('',*,*,#47,.F.);
#174 = ORIENTED_EDGE('',*,*,#79,.F.);
#175 = ORIENTED_EDGE('',*,*,#176,.F.);
#176 = EDGE_CURVE('',#177,#64,#179,.T.);
#177 = VERTEX_POINT('',#178);
#178 = CARTESIAN_POINT('',(-91.301,10.400000000008,6.5));
#179 = LINE('',#180,#181);
#180 = CARTESIAN_POINT('',(-91.301,10.400000000008,6.5));
#181 = VECTOR('',#182,1.);
#182 = DIRECTION('',(-1.,-2.6E-16,-0.));
#183 = ORIENTED_EDGE('',*,*,#184,.F.);
#184 = EDGE_CURVE('',#185,#177,#187,.T.);
#185 = VERTEX_POINT('',#186);
#186 = CARTESIAN_POINT('',(-91.101,10.600000000007,6.5));
#187 = CIRCLE('',#188,0.199999999992);
#188 = AXIS2_PLACEMENT_3D('',#189,#190,#191);
#189 = CARTESIAN_POINT('',(-91.301,10.6,6.5));
#190 = DIRECTION('',(0.,0.,-1.));
#191 = DIRECTION('',(1.,1.421E-14,0.));
#192 = ORIENTED_EDGE('',*,*,#193,.F.);
#193 = EDGE_CURVE('',#194,#185,#196,.T.);
#194 = VERTEX_POINT('',#195);
#195 = CARTESIAN_POINT('',(-91.101,11.6,6.5));
#196 = LINE('',#197,#198);
#197 = CARTESIAN_POINT('',(-91.101,11.600000000007,6.5));
#198 = VECTOR('',#199,1.);
#199 = DIRECTION('',(-8.32756E-12,-1.,0.));
#200 = ORIENTED_EDGE('',*,*,#201,.F.);
#201 = EDGE_CURVE('',#202,#194,#204,.T.);
#202 = VERTEX_POINT('',#203);
#203 = CARTESIAN_POINT('',(-91.101,12.6,6.5));
#204 = LINE('',#205,#206);
#205 = CARTESIAN_POINT('',(-91.101,12.6,6.5));
#206 = VECTOR('',#207,1.);
#207 = DIRECTION('',(-0.,-1.,-0.));
#208 = ORIENTED_EDGE('',*,*,#209,.F.);
#209 = EDGE_CURVE('',#160,#202,#210,.T.);
#210 = CIRCLE('',#211,0.2);
#211 = AXIS2_PLACEMENT_3D('',#212,#213,#214);
#212 = CARTESIAN_POINT('',(-91.301,12.6,6.5));
#213 = DIRECTION('',(0.,0.,-1.));
#214 = DIRECTION('',(0.,1.,0.));
#215 = PLANE('',#216);
#216 = AXIS2_PLACEMENT_3D('',#217,#218,#219);
#217 = CARTESIAN_POINT('',(-94.701,11.600000000005,6.5));
#218 = DIRECTION('',(0.,0.,1.));
#219 = DIRECTION('',(1.,0.,0.));
#220 = ADVANCED_FACE('',(#221),#240,.T.);
#221 = FACE_BOUND('',#222,.F.);
#222 = EDGE_LOOP('',(#223,#224,#233,#239));
#223 = ORIENTED_EDGE('',*,*,#39,.F.);
#224 = ORIENTED_EDGE('',*,*,#225,.T.);
#225 = EDGE_CURVE('',#32,#226,#228,.T.);
#226 = VERTEX_POINT('',#227);
#227 = CARTESIAN_POINT('',(-98.101,13.6,5.7));
#228 = CIRCLE('',#229,1.);
#229 = AXIS2_PLACEMENT_3D('',#230,#231,#232);
#230 = CARTESIAN_POINT('',(-98.101,12.6,5.7));
#231 = DIRECTION('',(-0.,0.,-1.));
#232 = DIRECTION('',(-1.,-4.16733E-12,0.));
#233 = ORIENTED_EDGE('',*,*,#234,.T.);
#234 = EDGE_CURVE('',#226,#158,#235,.T.);
#235 = LINE('',#236,#237);
#236 = CARTESIAN_POINT('',(-98.101,13.2,6.1));
#237 = VECTOR('',#238,1.);
#238 = DIRECTION('',(1.8E-16,-0.707106781187,0.707106781187));
#239 = ORIENTED_EDGE('',*,*,#167,.F.);
#240 = CONICAL_SURFACE('',#241,1.,0.785398163397);
#241 = AXIS2_PLACEMENT_3D('',#242,#243,#244);
#242 = CARTESIAN_POINT('',(-98.101,12.6,5.7));
#243 = DIRECTION('',(-0.,-0.,-1.));
#244 = DIRECTION('',(-1.,-4.16733E-12,0.));
#245 = ADVANCED_FACE('',(#246),#264,.F.);
#246 = FACE_BOUND('',#247,.F.);
#247 = EDGE_LOOP('',(#248,#256,#262,#263));
#248 = ORIENTED_EDGE('',*,*,#249,.F.);
#249 = EDGE_CURVE('',#250,#177,#252,.T.);
#250 = VERTEX_POINT('',#251);
#251 = CARTESIAN_POINT('',(-91.301,9.600000000008,5.7));
#252 = LINE('',#253,#254);
#253 = CARTESIAN_POINT('',(-91.301,9.600000000008,5.7));
#254 = VECTOR('',#255,1.);
#255 = DIRECTION('',(-4.E-17,0.707106781187,0.707106781187));
#256 = ORIENTED_EDGE('',*,*,#257,.T.);
#257 = EDGE_CURVE('',#250,#62,#258,.T.);
#258 = LINE('',#259,#260);
#259 = CARTESIAN_POINT('',(-91.301,9.600000000008,5.7));
#260 = VECTOR('',#261,1.);
#261 = DIRECTION('',(-1.,-2.6E-16,-0.));
#262 = ORIENTED_EDGE('',*,*,#61,.T.);
#263 = ORIENTED_EDGE('',*,*,#176,.F.);
#264 = PLANE('',#265);
#265 = AXIS2_PLACEMENT_3D('',#266,#267,#268);
#266 = CARTESIAN_POINT('',(-91.301,10.000000000008,6.1));
#267 = DIRECTION('',(-1.3E-16,0.707106781187,-0.707106781187));
#268 = DIRECTION('',(-1.,-2.219238815543E-16,-3.807611844575E-17));
#269 = ADVANCED_FACE('',(#270),#289,.T.);
#270 = FACE_BOUND('',#271,.F.);
#271 = EDGE_LOOP('',(#272,#273,#274,#282));
#272 = ORIENTED_EDGE('',*,*,#120,.T.);
#273 = ORIENTED_EDGE('',*,*,#71,.F.);
#274 = ORIENTED_EDGE('',*,*,#275,.F.);
#275 = EDGE_CURVE('',#276,#62,#278,.T.);
#276 = VERTEX_POINT('',#277);
#277 = CARTESIAN_POINT('',(-98.101,9.600000000008,4.9));
#278 = LINE('',#279,#280);
#279 = CARTESIAN_POINT('',(-98.101,9.600000000008,4.9));
#280 = VECTOR('',#281,1.);
#281 = DIRECTION('',(0.,0.,1.));
#282 = ORIENTED_EDGE('',*,*,#283,.F.);
#283 = EDGE_CURVE('',#113,#276,#284,.T.);
#284 = CIRCLE('',#285,0.999999999992);
#285 = AXIS2_PLACEMENT_3D('',#286,#287,#288);
#286 = CARTESIAN_POINT('',(-98.101,10.6,4.9));
#287 = DIRECTION('',(0.,0.,1.));
#288 = DIRECTION('',(1.,0.,0.));
#289 = CYLINDRICAL_SURFACE('',#290,0.999999999992);
#290 = AXIS2_PLACEMENT_3D('',#291,#292,#293);
#291 = CARTESIAN_POINT('',(-98.101,10.6,4.9));
#292 = DIRECTION('',(-0.,-0.,-1.));
#293 = DIRECTION('',(1.,0.,0.));
#294 = ADVANCED_FACE('',(#295,#354,#365),#399,.F.);
#295 = FACE_BOUND('',#296,.F.);
#296 = EDGE_LOOP('',(#297,#307,#316,#324,#333,#341,#347,#348));
#297 = ORIENTED_EDGE('',*,*,#298,.T.);
#298 = EDGE_CURVE('',#299,#301,#303,.T.);
#299 = VERTEX_POINT('',#300);
#300 = CARTESIAN_POINT('',(-98.80807106781,7.8,3.8));
#301 = VERTEX_POINT('',#302);
#302 = CARTESIAN_POINT('',(-91.301,7.8,3.8));
#303 = LINE('',#304,#305);
#304 = CARTESIAN_POINT('',(-99.101,7.8,3.8));
#305 = VECTOR('',#306,1.);
#306 = DIRECTION('',(1.,1.1E-16,0.));
#307 = ORIENTED_EDGE('',*,*,#308,.F.);
#308 = EDGE_CURVE('',#309,#301,#311,.T.);
#309 = VERTEX_POINT('',#310);
#310 = CARTESIAN_POINT('',(-89.301,8.640408205773,3.8));
#311 = CIRCLE('',#312,2.8);
#312 = AXIS2_PLACEMENT_3D('',#313,#314,#315);
#313 = CARTESIAN_POINT('',(-91.301,10.6,3.8));
#314 = DIRECTION('',(0.,0.,-1.));
#315 = DIRECTION('',(1.,0.,0.));
#316 = ORIENTED_EDGE('',*,*,#317,.T.);
#317 = EDGE_CURVE('',#309,#318,#320,.T.);
#318 = VERTEX_POINT('',#319);
#319 = CARTESIAN_POINT('',(-89.301,14.559591794227,3.8));
#320 = LINE('',#321,#322);
#321 = CARTESIAN_POINT('',(-89.301,8.640408205773,3.8));
#322 = VECTOR('',#323,1.);
#323 = DIRECTION('',(0.,1.,0.));
#324 = ORIENTED_EDGE('',*,*,#325,.F.);
#325 = EDGE_CURVE('',#326,#318,#328,.T.);
#326 = VERTEX_POINT('',#327);
#327 = CARTESIAN_POINT('',(-91.301,15.4,3.8));
#328 = CIRCLE('',#329,2.8);
#329 = AXIS2_PLACEMENT_3D('',#330,#331,#332);
#330 = CARTESIAN_POINT('',(-91.301,12.6,3.8));
#331 = DIRECTION('',(0.,0.,-1.));
#332 = DIRECTION('',(1.,0.,0.));
#333 = ORIENTED_EDGE('',*,*,#334,.F.);
#334 = EDGE_CURVE('',#335,#326,#337,.T.);
#335 = VERTEX_POINT('',#336);
#336 = CARTESIAN_POINT('',(-98.80807106781,15.4,3.8));
#337 = LINE('',#338,#339);
#338 = CARTESIAN_POINT('',(-99.101,15.4,3.8));
#339 = VECTOR('',#340,1.);
#340 = DIRECTION('',(1.,0.,0.));
#341 = ORIENTED_EDGE('',*,*,#342,.F.);
#342 = EDGE_CURVE('',#95,#335,#343,.T.);
#343 = LINE('',#344,#345);
#344 = CARTESIAN_POINT('',(-98.99000147441,15.142711551575,3.8));
#345 = VECTOR('',#346,1.);
#346 = DIRECTION('',(0.57735026919,0.816496580928,0.));
#347 = ORIENTED_EDGE('',*,*,#94,.T.);
#348 = ORIENTED_EDGE('',*,*,#349,.T.);
#349 = EDGE_CURVE('',#97,#299,#350,.T.);
#350 = LINE('',#351,#352);
#351 = CARTESIAN_POINT('',(-98.99000147441,8.057288448425,3.8));
#352 = VECTOR('',#353,1.);
#353 = DIRECTION('',(0.57735026919,-0.816496580928,0.));
#354 = FACE_BOUND('',#355,.F.);
#355 = EDGE_LOOP('',(#356));
#356 = ORIENTED_EDGE('',*,*,#357,.T.);
#357 = EDGE_CURVE('',#358,#358,#360,.T.);
#358 = VERTEX_POINT('',#359);
#359 = CARTESIAN_POINT('',(-93.611,11.600000000005,3.8));
#360 = CIRCLE('',#361,2.19);
#361 = AXIS2_PLACEMENT_3D('',#362,#363,#364);
#362 = CARTESIAN_POINT('',(-95.801,11.600000000005,3.8));
#363 = DIRECTION('',(0.,0.,-1.));
#364 = DIRECTION('',(1.,0.,0.));
#365 = FACE_BOUND('',#366,.F.);
#366 = EDGE_LOOP('',(#367,#377,#385,#393));
#367 = ORIENTED_EDGE('',*,*,#368,.T.);
#368 = EDGE_CURVE('',#369,#371,#373,.T.);
#369 = VERTEX_POINT('',#370);
#370 = CARTESIAN_POINT('',(-92.801,9.100000000005,3.8));
#371 = VERTEX_POINT('',#372);
#372 = CARTESIAN_POINT('',(-92.801,14.100000000005,3.8));
#373 = LINE('',#374,#375);
#374 = CARTESIAN_POINT('',(-92.801,9.100000000005,3.8));
#375 = VECTOR('',#376,1.);
#376 = DIRECTION('',(0.,1.,0.));
#377 = ORIENTED_EDGE('',*,*,#378,.T.);
#378 = EDGE_CURVE('',#371,#379,#381,.T.);
#379 = VERTEX_POINT('',#380);
#380 = CARTESIAN_POINT('',(-89.801,14.100000000005,3.8));
#381 = LINE('',#382,#383);
#382 = CARTESIAN_POINT('',(-92.801,14.100000000005,3.8));
#383 = VECTOR('',#384,1.);
#384 = DIRECTION('',(1.,0.,0.));
#385 = ORIENTED_EDGE('',*,*,#386,.T.);
#386 = EDGE_CURVE('',#379,#387,#389,.T.);
#387 = VERTEX_POINT('',#388);
#388 = CARTESIAN_POINT('',(-89.801,9.100000000005,3.8));
#389 = LINE('',#390,#391);
#390 = CARTESIAN_POINT('',(-89.801,14.100000000005,3.8));
#391 = VECTOR('',#392,1.);
#392 = DIRECTION('',(0.,-1.,0.));
#393 = ORIENTED_EDGE('',*,*,#394,.T.);
#394 = EDGE_CURVE('',#387,#369,#395,.T.);
#395 = LINE('',#396,#397);
#396 = CARTESIAN_POINT('',(-89.801,9.100000000005,3.8));
#397 = VECTOR('',#398,1.);
#398 = DIRECTION('',(-1.,0.,0.));
#399 = PLANE('',#400);
#400 = AXIS2_PLACEMENT_3D('',#401,#402,#403);
#401 = CARTESIAN_POINT('',(-94.23271303822,11.6,3.8));
#402 = DIRECTION('',(0.,0.,1.));
#403 = DIRECTION('',(1.,0.,0.));
#404 = ADVANCED_FACE('',(#405),#431,.T.);
#405 = FACE_BOUND('',#406,.F.);
#406 = EDGE_LOOP('',(#407,#408,#409,#417,#425));
#407 = ORIENTED_EDGE('',*,*,#349,.F.);
#408 = ORIENTED_EDGE('',*,*,#104,.T.);
#409 = ORIENTED_EDGE('',*,*,#410,.T.);
#410 = EDGE_CURVE('',#105,#411,#413,.T.);
#411 = VERTEX_POINT('',#412);
#412 = CARTESIAN_POINT('',(-98.801,8.89,4.9));
#413 = LINE('',#414,#415);
#414 = CARTESIAN_POINT('',(-98.47145650154,8.423955115092,4.9));
#415 = VECTOR('',#416,1.);
#416 = DIRECTION('',(0.57735026919,-0.816496580928,0.));
#417 = ORIENTED_EDGE('',*,*,#418,.F.);
#418 = EDGE_CURVE('',#419,#411,#421,.T.);
#419 = VERTEX_POINT('',#420);
#420 = CARTESIAN_POINT('',(-98.801,7.8,3.81));
#421 = LINE('',#422,#423);
#422 = CARTESIAN_POINT('',(-98.801,7.8,3.81));
#423 = VECTOR('',#424,1.);
#424 = DIRECTION('',(0.,0.707106781187,0.707106781187));
#425 = ORIENTED_EDGE('',*,*,#426,.F.);
#426 = EDGE_CURVE('',#299,#419,#427,.T.);
#427 = LINE('',#428,#429);
#428 = CARTESIAN_POINT('',(-98.9033570226,7.8,3.665245310429));
#429 = VECTOR('',#430,1.);
#430 = DIRECTION('',(0.57735026919,7.E-17,0.816496580928));
#431 = PLANE('',#432);
#432 = AXIS2_PLACEMENT_3D('',#433,#434,#435);
#433 = CARTESIAN_POINT('',(-98.951,7.906066017178,3.703933982822));
#434 = DIRECTION('',(-0.707106781187,-0.5,0.5));
#435 = DIRECTION('',(-0.,-0.707106781187,-0.707106781187));
#436 = ADVANCED_FACE('',(#437),#548,.T.);
#437 = FACE_BOUND('',#438,.T.);
#438 = EDGE_LOOP('',(#439,#440,#449,#457,#466,#474,#482,#491,#497,#498,
    #499,#500,#508,#517,#525,#534,#542));
#439 = ORIENTED_EDGE('',*,*,#135,.F.);
#440 = ORIENTED_EDGE('',*,*,#441,.F.);
#441 = EDGE_CURVE('',#442,#128,#444,.T.);
#442 = VERTEX_POINT('',#443);
#443 = CARTESIAN_POINT('',(-98.101,13.6,4.9));
#444 = CIRCLE('',#445,1.);
#445 = AXIS2_PLACEMENT_3D('',#446,#447,#448);
#446 = CARTESIAN_POINT('',(-98.101,12.6,4.9));
#447 = DIRECTION('',(0.,0.,1.));
#448 = DIRECTION('',(1.,0.,0.));
#449 = ORIENTED_EDGE('',*,*,#450,.T.);
#450 = EDGE_CURVE('',#442,#451,#453,.T.);
#451 = VERTEX_POINT('',#452);
#452 = CARTESIAN_POINT('',(-91.301,13.6,4.9));
#453 = LINE('',#454,#455);
#454 = CARTESIAN_POINT('',(-98.101,13.6,4.9));
#455 = VECTOR('',#456,1.);
#456 = DIRECTION('',(1.,2.6E-16,0.));
#457 = ORIENTED_EDGE('',*,*,#458,.F.);
#458 = EDGE_CURVE('',#459,#451,#461,.T.);
#459 = VERTEX_POINT('',#460);
#460 = CARTESIAN_POINT('',(-90.301,12.6,4.9));
#461 = CIRCLE('',#462,1.);
#462 = AXIS2_PLACEMENT_3D('',#463,#464,#465);
#463 = CARTESIAN_POINT('',(-91.301,12.6,4.9));
#464 = DIRECTION('',(0.,0.,1.));
#465 = DIRECTION('',(1.,0.,0.));
#466 = ORIENTED_EDGE('',*,*,#467,.F.);
#467 = EDGE_CURVE('',#468,#459,#470,.T.);
#468 = VERTEX_POINT('',#469);
#469 = CARTESIAN_POINT('',(-90.301,11.6,4.9));
#470 = LINE('',#471,#472);
#471 = CARTESIAN_POINT('',(-90.301,11.6,4.9));
#472 = VECTOR('',#473,1.);
#473 = DIRECTION('',(0.,1.,0.));
#474 = ORIENTED_EDGE('',*,*,#475,.T.);
#475 = EDGE_CURVE('',#468,#476,#478,.T.);
#476 = VERTEX_POINT('',#477);
#477 = CARTESIAN_POINT('',(-90.301,10.6,4.9));
#478 = LINE('',#479,#480);
#479 = CARTESIAN_POINT('',(-90.301,11.6,4.9));
#480 = VECTOR('',#481,1.);
#481 = DIRECTION('',(-8.32756E-12,-1.,0.));
#482 = ORIENTED_EDGE('',*,*,#483,.F.);
#483 = EDGE_CURVE('',#484,#476,#486,.T.);
#484 = VERTEX_POINT('',#485);
#485 = CARTESIAN_POINT('',(-91.301,9.600000000008,4.9));
#486 = CIRCLE('',#487,0.999999999992);
#487 = AXIS2_PLACEMENT_3D('',#488,#489,#490);
#488 = CARTESIAN_POINT('',(-91.301,10.6,4.9));
#489 = DIRECTION('',(0.,0.,1.));
#490 = DIRECTION('',(1.,0.,0.));
#491 = ORIENTED_EDGE('',*,*,#492,.F.);
#492 = EDGE_CURVE('',#276,#484,#493,.T.);
#493 = LINE('',#494,#495);
#494 = CARTESIAN_POINT('',(-98.101,9.600000000008,4.9));
#495 = VECTOR('',#496,1.);
#496 = DIRECTION('',(1.,2.6E-16,0.));
#497 = ORIENTED_EDGE('',*,*,#283,.F.);
#498 = ORIENTED_EDGE('',*,*,#112,.T.);
#499 = ORIENTED_EDGE('',*,*,#410,.T.);
#500 = ORIENTED_EDGE('',*,*,#501,.F.);
#501 = EDGE_CURVE('',#502,#411,#504,.T.);
#502 = VERTEX_POINT('',#503);
#503 = CARTESIAN_POINT('',(-91.301,8.89,4.9));
#504 = LINE('',#505,#506);
#505 = CARTESIAN_POINT('',(-91.301,8.89,4.9));
#506 = VECTOR('',#507,1.);
#507 = DIRECTION('',(-1.,-1.1E-16,-0.));
#508 = ORIENTED_EDGE('',*,*,#509,.F.);
#509 = EDGE_CURVE('',#510,#502,#512,.T.);
#510 = VERTEX_POINT('',#511);
#511 = CARTESIAN_POINT('',(-89.591,10.6,4.9));
#512 = CIRCLE('',#513,1.71);
#513 = AXIS2_PLACEMENT_3D('',#514,#515,#516);
#514 = CARTESIAN_POINT('',(-91.301,10.6,4.9));
#515 = DIRECTION('',(0.,0.,-1.));
#516 = DIRECTION('',(1.,0.,0.));
#517 = ORIENTED_EDGE('',*,*,#518,.F.);
#518 = EDGE_CURVE('',#519,#510,#521,.T.);
#519 = VERTEX_POINT('',#520);
#520 = CARTESIAN_POINT('',(-89.591,12.6,4.9));
#521 = LINE('',#522,#523);
#522 = CARTESIAN_POINT('',(-89.591,11.6,4.9));
#523 = VECTOR('',#524,1.);
#524 = DIRECTION('',(0.,-1.,0.));
#525 = ORIENTED_EDGE('',*,*,#526,.F.);
#526 = EDGE_CURVE('',#527,#519,#529,.T.);
#527 = VERTEX_POINT('',#528);
#528 = CARTESIAN_POINT('',(-91.301,14.31,4.9));
#529 = CIRCLE('',#530,1.71);
#530 = AXIS2_PLACEMENT_3D('',#531,#532,#533);
#531 = CARTESIAN_POINT('',(-91.301,12.6,4.9));
#532 = DIRECTION('',(0.,0.,-1.));
#533 = DIRECTION('',(0.,1.,0.));
#534 = ORIENTED_EDGE('',*,*,#535,.F.);
#535 = EDGE_CURVE('',#536,#527,#538,.T.);
#536 = VERTEX_POINT('',#537);
#537 = CARTESIAN_POINT('',(-98.801,14.31,4.9));
#538 = LINE('',#539,#540);
#539 = CARTESIAN_POINT('',(-99.101,14.31,4.9));
#540 = VECTOR('',#541,1.);
#541 = DIRECTION('',(1.,0.,0.));
#542 = ORIENTED_EDGE('',*,*,#543,.F.);
#543 = EDGE_CURVE('',#136,#536,#544,.T.);
#544 = LINE('',#545,#546);
#545 = CARTESIAN_POINT('',(-98.47145650154,14.776044884908,4.9));
#546 = VECTOR('',#547,1.);
#547 = DIRECTION('',(0.57735026919,0.816496580928,0.));
#548 = PLANE('',#549);
#549 = AXIS2_PLACEMENT_3D('',#550,#551,#552);
#550 = CARTESIAN_POINT('',(-94.23271303822,11.6,4.9));
#551 = DIRECTION('',(0.,0.,1.));
#552 = DIRECTION('',(1.,0.,0.));
#553 = ADVANCED_FACE('',(#554),#565,.T.);
#554 = FACE_BOUND('',#555,.F.);
#555 = EDGE_LOOP('',(#556,#562,#563,#564));
#556 = ORIENTED_EDGE('',*,*,#557,.T.);
#557 = EDGE_CURVE('',#442,#226,#558,.T.);
#558 = LINE('',#559,#560);
#559 = CARTESIAN_POINT('',(-98.101,13.6,4.9));
#560 = VECTOR('',#561,1.);
#561 = DIRECTION('',(0.,0.,1.));
#562 = ORIENTED_EDGE('',*,*,#225,.F.);
#563 = ORIENTED_EDGE('',*,*,#127,.F.);
#564 = ORIENTED_EDGE('',*,*,#441,.F.);
#565 = CYLINDRICAL_SURFACE('',#566,1.);
#566 = AXIS2_PLACEMENT_3D('',#567,#568,#569);
#567 = CARTESIAN_POINT('',(-98.101,12.6,4.9));
#568 = DIRECTION('',(-0.,-0.,-1.));
#569 = DIRECTION('',(1.,0.,0.));
#570 = ADVANCED_FACE('',(#571),#590,.F.);
#571 = FACE_BOUND('',#572,.T.);
#572 = EDGE_LOOP('',(#573,#574,#575,#576,#584));
#573 = ORIENTED_EDGE('',*,*,#342,.F.);
#574 = ORIENTED_EDGE('',*,*,#143,.T.);
#575 = ORIENTED_EDGE('',*,*,#543,.T.);
#576 = ORIENTED_EDGE('',*,*,#577,.F.);
#577 = EDGE_CURVE('',#578,#536,#580,.T.);
#578 = VERTEX_POINT('',#579);
#579 = CARTESIAN_POINT('',(-98.801,15.4,3.81));
#580 = LINE('',#581,#582);
#581 = CARTESIAN_POINT('',(-98.801,15.4,3.81));
#582 = VECTOR('',#583,1.);
#583 = DIRECTION('',(0.,-0.707106781187,0.707106781187));
#584 = ORIENTED_EDGE('',*,*,#585,.F.);
#585 = EDGE_CURVE('',#335,#578,#586,.T.);
#586 = LINE('',#587,#588);
#587 = CARTESIAN_POINT('',(-98.9033570226,15.4,3.665245310429));
#588 = VECTOR('',#589,1.);
#589 = DIRECTION('',(0.57735026919,0.,0.816496580928));
#590 = PLANE('',#591);
#591 = AXIS2_PLACEMENT_3D('',#592,#593,#594);
#592 = CARTESIAN_POINT('',(-98.951,15.293933982822,3.703933982822));
#593 = DIRECTION('',(0.707106781187,-0.5,-0.5));
#594 = DIRECTION('',(0.,0.707106781187,-0.707106781187));
#595 = ADVANCED_FACE('',(#596),#614,.T.);
#596 = FACE_BOUND('',#597,.F.);
#597 = EDGE_LOOP('',(#598,#599,#607,#613));
#598 = ORIENTED_EDGE('',*,*,#234,.F.);
#599 = ORIENTED_EDGE('',*,*,#600,.T.);
#600 = EDGE_CURVE('',#226,#601,#603,.T.);
#601 = VERTEX_POINT('',#602);
#602 = CARTESIAN_POINT('',(-91.301,13.6,5.7));
#603 = LINE('',#604,#605);
#604 = CARTESIAN_POINT('',(-98.101,13.6,5.7));
#605 = VECTOR('',#606,1.);
#606 = DIRECTION('',(1.,2.6E-16,0.));
#607 = ORIENTED_EDGE('',*,*,#608,.T.);
#608 = EDGE_CURVE('',#601,#160,#609,.T.);
#609 = LINE('',#610,#611);
#610 = CARTESIAN_POINT('',(-91.301,13.2,6.1));
#611 = VECTOR('',#612,1.);
#612 = DIRECTION('',(1.8E-16,-0.707106781187,0.707106781187));
#613 = ORIENTED_EDGE('',*,*,#157,.F.);
#614 = PLANE('',#615);
#615 = AXIS2_PLACEMENT_3D('',#616,#617,#618);
#616 = CARTESIAN_POINT('',(-98.101,13.2,6.1));
#617 = DIRECTION('',(-1.2E-16,0.707106781187,0.707106781187));
#618 = DIRECTION('',(-1.,-2.148528137424E-16,4.514718625761E-17));
#619 = ADVANCED_FACE('',(#620),#639,.T.);
#620 = FACE_BOUND('',#621,.F.);
#621 = EDGE_LOOP('',(#622,#623,#632,#638));
#622 = ORIENTED_EDGE('',*,*,#608,.F.);
#623 = ORIENTED_EDGE('',*,*,#624,.T.);
#624 = EDGE_CURVE('',#601,#625,#627,.T.);
#625 = VERTEX_POINT('',#626);
#626 = CARTESIAN_POINT('',(-90.301,12.6,5.7));
#627 = CIRCLE('',#628,1.);
#628 = AXIS2_PLACEMENT_3D('',#629,#630,#631);
#629 = CARTESIAN_POINT('',(-91.301,12.6,5.7));
#630 = DIRECTION('',(0.,0.,-1.));
#631 = DIRECTION('',(0.,1.,0.));
#632 = ORIENTED_EDGE('',*,*,#633,.T.);
#633 = EDGE_CURVE('',#625,#202,#634,.T.);
#634 = LINE('',#635,#636);
#635 = CARTESIAN_POINT('',(-90.301,12.6,5.7));
#636 = VECTOR('',#637,1.);
#637 = DIRECTION('',(-0.707106781187,-4.E-17,0.707106781187));
#638 = ORIENTED_EDGE('',*,*,#209,.F.);
#639 = CONICAL_SURFACE('',#640,1.,0.785398163397);
#640 = AXIS2_PLACEMENT_3D('',#641,#642,#643);
#641 = CARTESIAN_POINT('',(-91.301,12.6,5.7));
#642 = DIRECTION('',(-0.,-0.,-1.));
#643 = DIRECTION('',(0.,1.,0.));
#644 = ADVANCED_FACE('',(#645),#672,.T.);
#645 = FACE_BOUND('',#646,.T.);
#646 = EDGE_LOOP('',(#647,#648,#649,#650,#658,#666));
#647 = ORIENTED_EDGE('',*,*,#633,.T.);
#648 = ORIENTED_EDGE('',*,*,#201,.T.);
#649 = ORIENTED_EDGE('',*,*,#193,.T.);
#650 = ORIENTED_EDGE('',*,*,#651,.F.);
#651 = EDGE_CURVE('',#652,#185,#654,.T.);
#652 = VERTEX_POINT('',#653);
#653 = CARTESIAN_POINT('',(-90.301,10.6,5.7));
#654 = LINE('',#655,#656);
#655 = CARTESIAN_POINT('',(-90.701,10.600000000003,6.1));
#656 = VECTOR('',#657,1.);
#657 = DIRECTION('',(-0.707106781187,5.88847E-12,0.707106781187));
#658 = ORIENTED_EDGE('',*,*,#659,.F.);
#659 = EDGE_CURVE('',#660,#652,#662,.T.);
#660 = VERTEX_POINT('',#661);
#661 = CARTESIAN_POINT('',(-90.301,11.6,5.7));
#662 = LINE('',#663,#664);
#663 = CARTESIAN_POINT('',(-90.301,11.6,5.7));
#664 = VECTOR('',#665,1.);
#665 = DIRECTION('',(-8.32756E-12,-1.,0.));
#666 = ORIENTED_EDGE('',*,*,#667,.F.);
#667 = EDGE_CURVE('',#625,#660,#668,.T.);
#668 = LINE('',#669,#670);
#669 = CARTESIAN_POINT('',(-90.301,12.6,5.7));
#670 = VECTOR('',#671,1.);
#671 = DIRECTION('',(-0.,-1.,-0.));
#672 = PLANE('',#673);
#673 = AXIS2_PLACEMENT_3D('',#674,#675,#676);
#674 = CARTESIAN_POINT('',(-90.701,11.600000000002,6.1));
#675 = DIRECTION('',(0.707106781187,-2.94549E-12,0.707106781187));
#676 = DIRECTION('',(-0.707106781187,0.,0.707106781187));
#677 = ADVANCED_FACE('',(#678),#690,.T.);
#678 = FACE_BOUND('',#679,.F.);
#679 = EDGE_LOOP('',(#680,#681,#688,#689));
#680 = ORIENTED_EDGE('',*,*,#651,.F.);
#681 = ORIENTED_EDGE('',*,*,#682,.T.);
#682 = EDGE_CURVE('',#652,#250,#683,.T.);
#683 = CIRCLE('',#684,0.999999999992);
#684 = AXIS2_PLACEMENT_3D('',#685,#686,#687);
#685 = CARTESIAN_POINT('',(-91.301,10.6,5.7));
#686 = DIRECTION('',(0.,0.,-1.));
#687 = DIRECTION('',(1.,1.421E-14,0.));
#688 = ORIENTED_EDGE('',*,*,#249,.T.);
#689 = ORIENTED_EDGE('',*,*,#184,.F.);
#690 = CONICAL_SURFACE('',#691,0.999999999992,0.785398163397);
#691 = AXIS2_PLACEMENT_3D('',#692,#693,#694);
#692 = CARTESIAN_POINT('',(-91.301,10.6,5.7));
#693 = DIRECTION('',(-0.,-0.,-1.));
#694 = DIRECTION('',(1.,1.421E-14,0.));
#695 = ADVANCED_FACE('',(#696),#707,.F.);
#696 = FACE_BOUND('',#697,.F.);
#697 = EDGE_LOOP('',(#698,#699,#700,#706));
#698 = ORIENTED_EDGE('',*,*,#275,.T.);
#699 = ORIENTED_EDGE('',*,*,#257,.F.);
#700 = ORIENTED_EDGE('',*,*,#701,.F.);
#701 = EDGE_CURVE('',#484,#250,#702,.T.);
#702 = LINE('',#703,#704);
#703 = CARTESIAN_POINT('',(-91.301,9.600000000008,4.9));
#704 = VECTOR('',#705,1.);
#705 = DIRECTION('',(0.,0.,1.));
#706 = ORIENTED_EDGE('',*,*,#492,.F.);
#707 = PLANE('',#708);
#708 = AXIS2_PLACEMENT_3D('',#709,#710,#711);
#709 = CARTESIAN_POINT('',(-98.101,9.600000000008,4.9));
#710 = DIRECTION('',(-2.6E-16,1.,0.));
#711 = DIRECTION('',(1.,2.6E-16,0.));
#712 = ADVANCED_FACE('',(#713),#731,.F.);
#713 = FACE_BOUND('',#714,.F.);
#714 = EDGE_LOOP('',(#715,#723,#729,#730));
#715 = ORIENTED_EDGE('',*,*,#716,.F.);
#716 = EDGE_CURVE('',#717,#419,#719,.T.);
#717 = VERTEX_POINT('',#718);
#718 = CARTESIAN_POINT('',(-91.301,7.8,3.81));
#719 = LINE('',#720,#721);
#720 = CARTESIAN_POINT('',(-91.301,7.8,3.81));
#721 = VECTOR('',#722,1.);
#722 = DIRECTION('',(-1.,-1.1E-16,-0.));
#723 = ORIENTED_EDGE('',*,*,#724,.F.);
#724 = EDGE_CURVE('',#301,#717,#725,.T.);
#725 = LINE('',#726,#727);
#726 = CARTESIAN_POINT('',(-91.301,7.8,3.8));
#727 = VECTOR('',#728,1.);
#728 = DIRECTION('',(0.,0.,1.));
#729 = ORIENTED_EDGE('',*,*,#298,.F.);
#730 = ORIENTED_EDGE('',*,*,#426,.T.);
#731 = PLANE('',#732);
#732 = AXIS2_PLACEMENT_3D('',#733,#734,#735);
#733 = CARTESIAN_POINT('',(-99.101,7.8,3.8));
#734 = DIRECTION('',(-1.1E-16,1.,0.));
#735 = DIRECTION('',(1.,1.1E-16,0.));
#736 = ADVANCED_FACE('',(#737),#756,.T.);
#737 = FACE_BOUND('',#738,.T.);
#738 = EDGE_LOOP('',(#739,#740,#748,#755));
#739 = ORIENTED_EDGE('',*,*,#308,.F.);
#740 = ORIENTED_EDGE('',*,*,#741,.T.);
#741 = EDGE_CURVE('',#309,#742,#744,.T.);
#742 = VERTEX_POINT('',#743);
#743 = CARTESIAN_POINT('',(-89.301,8.640408205773,3.81));
#744 = LINE('',#745,#746);
#745 = CARTESIAN_POINT('',(-89.301,8.640408205773,3.8));
#746 = VECTOR('',#747,1.);
#747 = DIRECTION('',(0.,0.,1.));
#748 = ORIENTED_EDGE('',*,*,#749,.T.);
#749 = EDGE_CURVE('',#742,#717,#750,.T.);
#750 = CIRCLE('',#751,2.8);
#751 = AXIS2_PLACEMENT_3D('',#752,#753,#754);
#752 = CARTESIAN_POINT('',(-91.301,10.6,3.81));
#753 = DIRECTION('',(0.,0.,-1.));
#754 = DIRECTION('',(1.,0.,0.));
#755 = ORIENTED_EDGE('',*,*,#724,.F.);
#756 = CYLINDRICAL_SURFACE('',#757,2.8);
#757 = AXIS2_PLACEMENT_3D('',#758,#759,#760);
#758 = CARTESIAN_POINT('',(-91.301,10.6,3.8));
#759 = DIRECTION('',(0.,0.,-1.));
#760 = DIRECTION('',(1.,0.,0.));
#761 = ADVANCED_FACE('',(#762),#798,.F.);
#762 = FACE_BOUND('',#763,.F.);
#763 = EDGE_LOOP('',(#764,#765,#766,#775,#783,#792));
#764 = ORIENTED_EDGE('',*,*,#317,.F.);
#765 = ORIENTED_EDGE('',*,*,#741,.T.);
#766 = ORIENTED_EDGE('',*,*,#767,.F.);
#767 = EDGE_CURVE('',#768,#742,#770,.T.);
#768 = VERTEX_POINT('',#769);
#769 = CARTESIAN_POINT('',(-89.301,10.6,4.61));
#770 = HYPERBOLA('',#771,2.,2.);
#771 = AXIS2_PLACEMENT_3D('',#772,#773,#774);
#772 = CARTESIAN_POINT('',(-89.301,10.6,6.61));
#773 = DIRECTION('',(-1.,-0.,-0.));
#774 = DIRECTION('',(0.,0.,-1.));
#775 = ORIENTED_EDGE('',*,*,#776,.T.);
#776 = EDGE_CURVE('',#768,#777,#779,.T.);
#777 = VERTEX_POINT('',#778);
#778 = CARTESIAN_POINT('',(-89.301,12.6,4.61));
#779 = LINE('',#780,#781);
#780 = CARTESIAN_POINT('',(-89.301,10.620204102887,4.61));
#781 = VECTOR('',#782,1.);
#782 = DIRECTION('',(0.,1.,0.));
#783 = ORIENTED_EDGE('',*,*,#784,.F.);
#784 = EDGE_CURVE('',#785,#777,#787,.T.);
#785 = VERTEX_POINT('',#786);
#786 = CARTESIAN_POINT('',(-89.301,14.559591794227,3.81));
#787 = HYPERBOLA('',#788,2.,2.);
#788 = AXIS2_PLACEMENT_3D('',#789,#790,#791);
#789 = CARTESIAN_POINT('',(-89.301,12.6,6.61));
#790 = DIRECTION('',(-1.,-0.,-0.));
#791 = DIRECTION('',(0.,0.,-1.));
#792 = ORIENTED_EDGE('',*,*,#793,.F.);
#793 = EDGE_CURVE('',#318,#785,#794,.T.);
#794 = LINE('',#795,#796);
#795 = CARTESIAN_POINT('',(-89.301,14.559591794227,3.8));
#796 = VECTOR('',#797,1.);
#797 = DIRECTION('',(0.,0.,1.));
#798 = PLANE('',#799);
#799 = AXIS2_PLACEMENT_3D('',#800,#801,#802);
#800 = CARTESIAN_POINT('',(-89.301,8.640408205773,3.8));
#801 = DIRECTION('',(-1.,0.,0.));
#802 = DIRECTION('',(0.,1.,0.));
#803 = ADVANCED_FACE('',(#804),#823,.T.);
#804 = FACE_BOUND('',#805,.T.);
#805 = EDGE_LOOP('',(#806,#814,#821,#822));
#806 = ORIENTED_EDGE('',*,*,#807,.T.);
#807 = EDGE_CURVE('',#326,#808,#810,.T.);
#808 = VERTEX_POINT('',#809);
#809 = CARTESIAN_POINT('',(-91.301,15.4,3.81));
#810 = LINE('',#811,#812);
#811 = CARTESIAN_POINT('',(-91.301,15.4,3.8));
#812 = VECTOR('',#813,1.);
#813 = DIRECTION('',(0.,0.,1.));
#814 = ORIENTED_EDGE('',*,*,#815,.T.);
#815 = EDGE_CURVE('',#808,#785,#816,.T.);
#816 = CIRCLE('',#817,2.8);
#817 = AXIS2_PLACEMENT_3D('',#818,#819,#820);
#818 = CARTESIAN_POINT('',(-91.301,12.6,3.81));
#819 = DIRECTION('',(0.,0.,-1.));
#820 = DIRECTION('',(0.,1.,0.));
#821 = ORIENTED_EDGE('',*,*,#793,.F.);
#822 = ORIENTED_EDGE('',*,*,#325,.F.);
#823 = CYLINDRICAL_SURFACE('',#824,2.8);
#824 = AXIS2_PLACEMENT_3D('',#825,#826,#827);
#825 = CARTESIAN_POINT('',(-91.301,12.6,3.8));
#826 = DIRECTION('',(0.,0.,-1.));
#827 = DIRECTION('',(1.,0.,0.));
#828 = ADVANCED_FACE('',(#829),#840,.T.);
#829 = FACE_BOUND('',#830,.T.);
#830 = EDGE_LOOP('',(#831,#837,#838,#839));
#831 = ORIENTED_EDGE('',*,*,#832,.T.);
#832 = EDGE_CURVE('',#578,#808,#833,.T.);
#833 = LINE('',#834,#835);
#834 = CARTESIAN_POINT('',(-99.101,15.4,3.81));
#835 = VECTOR('',#836,1.);
#836 = DIRECTION('',(1.,0.,0.));
#837 = ORIENTED_EDGE('',*,*,#807,.F.);
#838 = ORIENTED_EDGE('',*,*,#334,.F.);
#839 = ORIENTED_EDGE('',*,*,#585,.T.);
#840 = PLANE('',#841);
#841 = AXIS2_PLACEMENT_3D('',#842,#843,#844);
#842 = CARTESIAN_POINT('',(-99.101,15.4,3.8));
#843 = DIRECTION('',(0.,1.,0.));
#844 = DIRECTION('',(1.,0.,0.));
#845 = ADVANCED_FACE('',(#846),#865,.F.);
#846 = FACE_BOUND('',#847,.T.);
#847 = EDGE_LOOP('',(#848,#856,#857,#858));
#848 = ORIENTED_EDGE('',*,*,#849,.F.);
#849 = EDGE_CURVE('',#358,#850,#852,.T.);
#850 = VERTEX_POINT('',#851);
#851 = CARTESIAN_POINT('',(-94.201,11.600000000005,4.39));
#852 = LINE('',#853,#854);
#853 = CARTESIAN_POINT('',(-94.201,11.600000000005,4.39));
#854 = VECTOR('',#855,1.);
#855 = DIRECTION('',(-0.707106781187,0.,0.707106781187));
#856 = ORIENTED_EDGE('',*,*,#357,.T.);
#857 = ORIENTED_EDGE('',*,*,#849,.T.);
#858 = ORIENTED_EDGE('',*,*,#859,.F.);
#859 = EDGE_CURVE('',#850,#850,#860,.T.);
#860 = CIRCLE('',#861,1.6);
#861 = AXIS2_PLACEMENT_3D('',#862,#863,#864);
#862 = CARTESIAN_POINT('',(-95.801,11.600000000005,4.39));
#863 = DIRECTION('',(0.,0.,-1.));
#864 = DIRECTION('',(1.,0.,0.));
#865 = CONICAL_SURFACE('',#866,1.6,0.785398163397);
#866 = AXIS2_PLACEMENT_3D('',#867,#868,#869);
#867 = CARTESIAN_POINT('',(-95.801,11.600000000005,4.39));
#868 = DIRECTION('',(-0.,-0.,-1.));
#869 = DIRECTION('',(1.,0.,0.));
#870 = ADVANCED_FACE('',(#871),#894,.T.);
#871 = FACE_BOUND('',#872,.T.);
#872 = EDGE_LOOP('',(#873,#874,#881,#889));
#873 = ORIENTED_EDGE('',*,*,#368,.T.);
#874 = ORIENTED_EDGE('',*,*,#875,.T.);
#875 = EDGE_CURVE('',#371,#876,#878,.T.);
#876 = VERTEX_POINT('',#877);
#877 = CARTESIAN_POINT('',(-92.301,13.600000000005,3.3));
#878 = B_SPLINE_CURVE_WITH_KNOTS('',1,(#879,#880),.UNSPECIFIED.,.F.,.F.,
  (2,2),(0.,1.),.PIECEWISE_BEZIER_KNOTS.);
#879 = CARTESIAN_POINT('',(-92.801,14.100000000005,3.8));
#880 = CARTESIAN_POINT('',(-92.301,13.600000000005,3.3));
#881 = ORIENTED_EDGE('',*,*,#882,.F.);
#882 = EDGE_CURVE('',#883,#876,#885,.T.);
#883 = VERTEX_POINT('',#884);
#884 = CARTESIAN_POINT('',(-92.301,9.600000000005,3.3));
#885 = LINE('',#886,#887);
#886 = CARTESIAN_POINT('',(-92.301,9.100000000005,3.3));
#887 = VECTOR('',#888,1.);
#888 = DIRECTION('',(0.,1.,0.));
#889 = ORIENTED_EDGE('',*,*,#890,.F.);
#890 = EDGE_CURVE('',#369,#883,#891,.T.);
#891 = B_SPLINE_CURVE_WITH_KNOTS('',1,(#892,#893),.UNSPECIFIED.,.F.,.F.,
  (2,2),(0.,1.),.PIECEWISE_BEZIER_KNOTS.);
#892 = CARTESIAN_POINT('',(-92.801,9.100000000005,3.8));
#893 = CARTESIAN_POINT('',(-92.301,9.600000000005,3.3));
#894 = B_SPLINE_SURFACE_WITH_KNOTS('',1,1,(
    (#895,#896)
    ,(#897,#898)),.UNSPECIFIED.,.F.,.F.,.F.,(2,2),(2,2),(0.,5.),(0.,1.),
  .PIECEWISE_BEZIER_KNOTS.);
#895 = CARTESIAN_POINT('',(-92.801,9.100000000005,3.8));
#896 = CARTESIAN_POINT('',(-92.301,9.600000000005,3.3));
#897 = CARTESIAN_POINT('',(-92.801,14.100000000005,3.8));
#898 = CARTESIAN_POINT('',(-92.301,13.600000000005,3.3));
#899 = ADVANCED_FACE('',(#900),#917,.T.);
#900 = FACE_BOUND('',#901,.T.);
#901 = EDGE_LOOP('',(#902,#903,#904,#912));
#902 = ORIENTED_EDGE('',*,*,#394,.T.);
#903 = ORIENTED_EDGE('',*,*,#890,.T.);
#904 = ORIENTED_EDGE('',*,*,#905,.F.);
#905 = EDGE_CURVE('',#906,#883,#908,.T.);
#906 = VERTEX_POINT('',#907);
#907 = CARTESIAN_POINT('',(-90.301,9.600000000005,3.3));
#908 = LINE('',#909,#910);
#909 = CARTESIAN_POINT('',(-89.801,9.600000000005,3.3));
#910 = VECTOR('',#911,1.);
#911 = DIRECTION('',(-1.,0.,0.));
#912 = ORIENTED_EDGE('',*,*,#913,.F.);
#913 = EDGE_CURVE('',#387,#906,#914,.T.);
#914 = B_SPLINE_CURVE_WITH_KNOTS('',1,(#915,#916),.UNSPECIFIED.,.F.,.F.,
  (2,2),(0.,1.),.PIECEWISE_BEZIER_KNOTS.);
#915 = CARTESIAN_POINT('',(-89.801,9.100000000005,3.8));
#916 = CARTESIAN_POINT('',(-90.301,9.600000000005,3.3));
#917 = B_SPLINE_SURFACE_WITH_KNOTS('',1,1,(
    (#918,#919)
    ,(#920,#921)),.UNSPECIFIED.,.F.,.F.,.F.,(2,2),(2,2),(0.,3.),(0.,1.),
  .PIECEWISE_BEZIER_KNOTS.);
#918 = CARTESIAN_POINT('',(-89.801,9.100000000005,3.8));
#919 = CARTESIAN_POINT('',(-90.301,9.600000000005,3.3));
#920 = CARTESIAN_POINT('',(-92.801,9.100000000005,3.8));
#921 = CARTESIAN_POINT('',(-92.301,9.600000000005,3.3));
#922 = ADVANCED_FACE('',(#923),#940,.T.);
#923 = FACE_BOUND('',#924,.T.);
#924 = EDGE_LOOP('',(#925,#926,#927,#935));
#925 = ORIENTED_EDGE('',*,*,#386,.T.);
#926 = ORIENTED_EDGE('',*,*,#913,.T.);
#927 = ORIENTED_EDGE('',*,*,#928,.F.);
#928 = EDGE_CURVE('',#929,#906,#931,.T.);
#929 = VERTEX_POINT('',#930);
#930 = CARTESIAN_POINT('',(-90.301,13.600000000005,3.3));
#931 = LINE('',#932,#933);
#932 = CARTESIAN_POINT('',(-90.301,14.100000000005,3.3));
#933 = VECTOR('',#934,1.);
#934 = DIRECTION('',(0.,-1.,0.));
#935 = ORIENTED_EDGE('',*,*,#936,.F.);
#936 = EDGE_CURVE('',#379,#929,#937,.T.);
#937 = B_SPLINE_CURVE_WITH_KNOTS('',1,(#938,#939),.UNSPECIFIED.,.F.,.F.,
  (2,2),(0.,1.),.PIECEWISE_BEZIER_KNOTS.);
#938 = CARTESIAN_POINT('',(-89.801,14.100000000005,3.8));
#939 = CARTESIAN_POINT('',(-90.301,13.600000000005,3.3));
#940 = B_SPLINE_SURFACE_WITH_KNOTS('',1,1,(
    (#941,#942)
    ,(#943,#944)),.UNSPECIFIED.,.F.,.F.,.F.,(2,2),(2,2),(0.,5.),(0.,1.),
  .PIECEWISE_BEZIER_KNOTS.);
#941 = CARTESIAN_POINT('',(-89.801,14.100000000005,3.8));
#942 = CARTESIAN_POINT('',(-90.301,13.600000000005,3.3));
#943 = CARTESIAN_POINT('',(-89.801,9.100000000005,3.8));
#944 = CARTESIAN_POINT('',(-90.301,9.600000000005,3.3));
#945 = ADVANCED_FACE('',(#946),#957,.T.);
#946 = FACE_BOUND('',#947,.T.);
#947 = EDGE_LOOP('',(#948,#949,#950,#956));
#948 = ORIENTED_EDGE('',*,*,#378,.T.);
#949 = ORIENTED_EDGE('',*,*,#936,.T.);
#950 = ORIENTED_EDGE('',*,*,#951,.F.);
#951 = EDGE_CURVE('',#876,#929,#952,.T.);
#952 = LINE('',#953,#954);
#953 = CARTESIAN_POINT('',(-92.801,13.600000000005,3.3));
#954 = VECTOR('',#955,1.);
#955 = DIRECTION('',(1.,0.,0.));
#956 = ORIENTED_EDGE('',*,*,#875,.F.);
#957 = B_SPLINE_SURFACE_WITH_KNOTS('',1,1,(
    (#958,#959)
    ,(#960,#961)),.UNSPECIFIED.,.F.,.F.,.F.,(2,2),(2,2),(0.,3.),(0.,1.),
  .PIECEWISE_BEZIER_KNOTS.);
#958 = CARTESIAN_POINT('',(-92.801,14.100000000005,3.8));
#959 = CARTESIAN_POINT('',(-92.301,13.600000000005,3.3));
#960 = CARTESIAN_POINT('',(-89.801,14.100000000005,3.8));
#961 = CARTESIAN_POINT('',(-90.301,13.600000000005,3.3));
#962 = ADVANCED_FACE('',(#963),#974,.F.);
#963 = FACE_BOUND('',#964,.F.);
#964 = EDGE_LOOP('',(#965,#966,#967,#968));
#965 = ORIENTED_EDGE('',*,*,#716,.T.);
#966 = ORIENTED_EDGE('',*,*,#418,.T.);
#967 = ORIENTED_EDGE('',*,*,#501,.F.);
#968 = ORIENTED_EDGE('',*,*,#969,.F.);
#969 = EDGE_CURVE('',#717,#502,#970,.T.);
#970 = LINE('',#971,#972);
#971 = CARTESIAN_POINT('',(-91.301,7.8,3.81));
#972 = VECTOR('',#973,1.);
#973 = DIRECTION('',(-1.3E-15,0.707106781187,0.707106781187));
#974 = PLANE('',#975);
#975 = AXIS2_PLACEMENT_3D('',#976,#977,#978);
#976 = CARTESIAN_POINT('',(-91.301,8.345,4.355));
#977 = DIRECTION('',(0.,0.707106781187,-0.707106781187));
#978 = DIRECTION('',(-1.,-6.E-17,-6.E-17));
#979 = ADVANCED_FACE('',(#980),#991,.T.);
#980 = FACE_BOUND('',#981,.F.);
#981 = EDGE_LOOP('',(#982,#983,#989,#990));
#982 = ORIENTED_EDGE('',*,*,#832,.T.);
#983 = ORIENTED_EDGE('',*,*,#984,.T.);
#984 = EDGE_CURVE('',#808,#527,#985,.T.);
#985 = LINE('',#986,#987);
#986 = CARTESIAN_POINT('',(-91.301,14.855,4.355));
#987 = VECTOR('',#988,1.);
#988 = DIRECTION('',(0.,-0.707106781187,0.707106781187));
#989 = ORIENTED_EDGE('',*,*,#535,.F.);
#990 = ORIENTED_EDGE('',*,*,#577,.F.);
#991 = PLANE('',#992);
#992 = AXIS2_PLACEMENT_3D('',#993,#994,#995);
#993 = CARTESIAN_POINT('',(-99.101,14.855,4.355));
#994 = DIRECTION('',(0.,0.707106781187,0.707106781187));
#995 = DIRECTION('',(-1.,0.,0.));
#996 = ADVANCED_FACE('',(#997),#1008,.T.);
#997 = FACE_BOUND('',#998,.T.);
#998 = EDGE_LOOP('',(#999,#1000,#1001,#1007));
#999 = ORIENTED_EDGE('',*,*,#557,.T.);
#1000 = ORIENTED_EDGE('',*,*,#600,.T.);
#1001 = ORIENTED_EDGE('',*,*,#1002,.F.);
#1002 = EDGE_CURVE('',#451,#601,#1003,.T.);
#1003 = LINE('',#1004,#1005);
#1004 = CARTESIAN_POINT('',(-91.301,13.6,4.9));
#1005 = VECTOR('',#1006,1.);
#1006 = DIRECTION('',(0.,0.,1.));
#1007 = ORIENTED_EDGE('',*,*,#450,.F.);
#1008 = PLANE('',#1009);
#1009 = AXIS2_PLACEMENT_3D('',#1010,#1011,#1012);
#1010 = CARTESIAN_POINT('',(-98.101,13.6,4.9));
#1011 = DIRECTION('',(-2.6E-16,1.,0.));
#1012 = DIRECTION('',(1.,2.6E-16,0.));
#1013 = ADVANCED_FACE('',(#1014),#1026,.T.);
#1014 = FACE_BOUND('',#1015,.F.);
#1015 = EDGE_LOOP('',(#1016,#1017,#1018,#1019,#1025));
#1016 = ORIENTED_EDGE('',*,*,#984,.F.);
#1017 = ORIENTED_EDGE('',*,*,#815,.T.);
#1018 = ORIENTED_EDGE('',*,*,#784,.T.);
#1019 = ORIENTED_EDGE('',*,*,#1020,.T.);
#1020 = EDGE_CURVE('',#777,#519,#1021,.T.);
#1021 = LINE('',#1022,#1023);
#1022 = CARTESIAN_POINT('',(-88.501,12.6,3.81));
#1023 = VECTOR('',#1024,1.);
#1024 = DIRECTION('',(-0.707106781187,-4.E-17,0.707106781187));
#1025 = ORIENTED_EDGE('',*,*,#526,.F.);
#1026 = CONICAL_SURFACE('',#1027,2.8,0.785398163397);
#1027 = AXIS2_PLACEMENT_3D('',#1028,#1029,#1030);
#1028 = CARTESIAN_POINT('',(-91.301,12.6,3.81));
#1029 = DIRECTION('',(-0.,-0.,-1.));
#1030 = DIRECTION('',(0.,1.,0.));
#1031 = ADVANCED_FACE('',(#1032),#1043,.T.);
#1032 = FACE_BOUND('',#1033,.F.);
#1033 = EDGE_LOOP('',(#1034,#1040,#1041,#1042));
#1034 = ORIENTED_EDGE('',*,*,#1035,.T.);
#1035 = EDGE_CURVE('',#459,#625,#1036,.T.);
#1036 = LINE('',#1037,#1038);
#1037 = CARTESIAN_POINT('',(-90.301,12.6,4.9));
#1038 = VECTOR('',#1039,1.);
#1039 = DIRECTION('',(0.,0.,1.));
#1040 = ORIENTED_EDGE('',*,*,#624,.F.);
#1041 = ORIENTED_EDGE('',*,*,#1002,.F.);
#1042 = ORIENTED_EDGE('',*,*,#458,.F.);
#1043 = CYLINDRICAL_SURFACE('',#1044,1.);
#1044 = AXIS2_PLACEMENT_3D('',#1045,#1046,#1047);
#1045 = CARTESIAN_POINT('',(-91.301,12.6,4.9));
#1046 = DIRECTION('',(-0.,-0.,-1.));
#1047 = DIRECTION('',(1.,0.,0.));
#1048 = ADVANCED_FACE('',(#1049),#1062,.T.);
#1049 = FACE_BOUND('',#1050,.T.);
#1050 = EDGE_LOOP('',(#1051,#1052,#1053,#1059,#1060,#1061));
#1051 = ORIENTED_EDGE('',*,*,#667,.T.);
#1052 = ORIENTED_EDGE('',*,*,#659,.T.);
#1053 = ORIENTED_EDGE('',*,*,#1054,.F.);
#1054 = EDGE_CURVE('',#476,#652,#1055,.T.);
#1055 = LINE('',#1056,#1057);
#1056 = CARTESIAN_POINT('',(-90.301,10.6,4.9));
#1057 = VECTOR('',#1058,1.);
#1058 = DIRECTION('',(0.,0.,1.));
#1059 = ORIENTED_EDGE('',*,*,#475,.F.);
#1060 = ORIENTED_EDGE('',*,*,#467,.T.);
#1061 = ORIENTED_EDGE('',*,*,#1035,.T.);
#1062 = PLANE('',#1063);
#1063 = AXIS2_PLACEMENT_3D('',#1064,#1065,#1066);
#1064 = CARTESIAN_POINT('',(-90.301,11.6,5.3));
#1065 = DIRECTION('',(1.,-4.16378E-12,0.));
#1066 = DIRECTION('',(4.16378E-12,1.,0.));
#1067 = ADVANCED_FACE('',(#1068),#1079,.T.);
#1068 = FACE_BOUND('',#1069,.T.);
#1069 = EDGE_LOOP('',(#1070,#1071,#1072,#1078));
#1070 = ORIENTED_EDGE('',*,*,#1020,.T.);
#1071 = ORIENTED_EDGE('',*,*,#518,.T.);
#1072 = ORIENTED_EDGE('',*,*,#1073,.F.);
#1073 = EDGE_CURVE('',#768,#510,#1074,.T.);
#1074 = LINE('',#1075,#1076);
#1075 = CARTESIAN_POINT('',(-89.046,10.6,4.355));
#1076 = VECTOR('',#1077,1.);
#1077 = DIRECTION('',(-0.707106781187,0.,0.707106781187));
#1078 = ORIENTED_EDGE('',*,*,#776,.T.);
#1079 = PLANE('',#1080);
#1080 = AXIS2_PLACEMENT_3D('',#1081,#1082,#1083);
#1081 = CARTESIAN_POINT('',(-89.446,11.6,4.755));
#1082 = DIRECTION('',(0.707106781187,0.,0.707106781187));
#1083 = DIRECTION('',(0.707106781187,0.,-0.707106781187));
#1084 = ADVANCED_FACE('',(#1085),#1092,.T.);
#1085 = FACE_BOUND('',#1086,.F.);
#1086 = EDGE_LOOP('',(#1087,#1088,#1089,#1090,#1091));
#1087 = ORIENTED_EDGE('',*,*,#1073,.F.);
#1088 = ORIENTED_EDGE('',*,*,#767,.T.);
#1089 = ORIENTED_EDGE('',*,*,#749,.T.);
#1090 = ORIENTED_EDGE('',*,*,#969,.T.);
#1091 = ORIENTED_EDGE('',*,*,#509,.F.);
#1092 = CONICAL_SURFACE('',#1093,2.8,0.785398163397);
#1093 = AXIS2_PLACEMENT_3D('',#1094,#1095,#1096);
#1094 = CARTESIAN_POINT('',(-91.301,10.6,3.81));
#1095 = DIRECTION('',(-0.,-0.,-1.));
#1096 = DIRECTION('',(1.,0.,0.));
#1097 = ADVANCED_FACE('',(#1098),#1104,.T.);
#1098 = FACE_BOUND('',#1099,.F.);
#1099 = EDGE_LOOP('',(#1100,#1101,#1102,#1103));
#1100 = ORIENTED_EDGE('',*,*,#701,.T.);
#1101 = ORIENTED_EDGE('',*,*,#682,.F.);
#1102 = ORIENTED_EDGE('',*,*,#1054,.F.);
#1103 = ORIENTED_EDGE('',*,*,#483,.F.);
#1104 = CYLINDRICAL_SURFACE('',#1105,0.999999999992);
#1105 = AXIS2_PLACEMENT_3D('',#1106,#1107,#1108);
#1106 = CARTESIAN_POINT('',(-91.301,10.6,4.9));
#1107 = DIRECTION('',(-0.,-0.,-1.));
#1108 = DIRECTION('',(1.,0.,0.));
#1109 = ADVANCED_FACE('',(#1110),#1129,.F.);
#1110 = FACE_BOUND('',#1111,.F.);
#1111 = EDGE_LOOP('',(#1112,#1120,#1127,#1128));
#1112 = ORIENTED_EDGE('',*,*,#1113,.T.);
#1113 = EDGE_CURVE('',#850,#1114,#1116,.T.);
#1114 = VERTEX_POINT('',#1115);
#1115 = CARTESIAN_POINT('',(-94.201,11.600000000005,4.4));
#1116 = LINE('',#1117,#1118);
#1117 = CARTESIAN_POINT('',(-94.201,11.600000000005,3.8));
#1118 = VECTOR('',#1119,1.);
#1119 = DIRECTION('',(0.,0.,1.));
#1120 = ORIENTED_EDGE('',*,*,#1121,.T.);
#1121 = EDGE_CURVE('',#1114,#1114,#1122,.T.);
#1122 = CIRCLE('',#1123,1.6);
#1123 = AXIS2_PLACEMENT_3D('',#1124,#1125,#1126);
#1124 = CARTESIAN_POINT('',(-95.801,11.600000000005,4.4));
#1125 = DIRECTION('',(0.,0.,-1.));
#1126 = DIRECTION('',(1.,0.,0.));
#1127 = ORIENTED_EDGE('',*,*,#1113,.F.);
#1128 = ORIENTED_EDGE('',*,*,#859,.F.);
#1129 = CYLINDRICAL_SURFACE('',#1130,1.6);
#1130 = AXIS2_PLACEMENT_3D('',#1131,#1132,#1133);
#1131 = CARTESIAN_POINT('',(-95.801,11.600000000005,3.8));
#1132 = DIRECTION('',(0.,0.,-1.));
#1133 = DIRECTION('',(1.,0.,0.));
#1134 = ADVANCED_FACE('',(#1135),#1141,.F.);
#1135 = FACE_BOUND('',#1136,.T.);
#1136 = EDGE_LOOP('',(#1137,#1138,#1139,#1140));
#1137 = ORIENTED_EDGE('',*,*,#951,.T.);
#1138 = ORIENTED_EDGE('',*,*,#928,.T.);
#1139 = ORIENTED_EDGE('',*,*,#905,.T.);
#1140 = ORIENTED_EDGE('',*,*,#882,.T.);
#1141 = PLANE('',#1142);
#1142 = AXIS2_PLACEMENT_3D('',#1143,#1144,#1145);
#1143 = CARTESIAN_POINT('',(-92.301,13.600000000005,3.3));
#1144 = DIRECTION('',(0.,0.,1.));
#1145 = DIRECTION('',(0.4472135955,-0.894427191,0.));
#1146 = ADVANCED_FACE('',(#1147),#1150,.F.);
#1147 = FACE_BOUND('',#1148,.T.);
#1148 = EDGE_LOOP('',(#1149));
#1149 = ORIENTED_EDGE('',*,*,#1121,.T.);
#1150 = PLANE('',#1151);
#1151 = AXIS2_PLACEMENT_3D('',#1152,#1153,#1154);
#1152 = CARTESIAN_POINT('',(-95.801,11.600000000005,4.4));
#1153 = DIRECTION('',(0.,0.,1.));
#1154 = DIRECTION('',(1.,0.,0.));
#1155 = ( GEOMETRIC_REPRESENTATION_CONTEXT(3) 
GLOBAL_UNCERTAINTY_ASSIGNED_CONTEXT((#1159)) 
GLOBAL_UNIT_ASSIGNED_CONTEXT((#1156,#1157,#1158)) REPRESENTATION_CONTEXT
('Context #1','3D Context with UNIT and UNCERTAINTY') );
#1156 = ( LENGTH_UNIT() NAMED_UNIT(*) SI_UNIT(.MILLI.,.METRE.) );
#1157 = ( NAMED_UNIT(*) PLANE_ANGLE_UNIT() SI_UNIT($,.RADIAN.) );
#1158 = ( NAMED_UNIT(*) SI_UNIT($,.STERADIAN.) SOLID_ANGLE_UNIT() );
#1159 = UNCERTAINTY_MEASURE_WITH_UNIT(LENGTH_MEASURE(5.E-07),#1156,
  'distance_accuracy_value','confusion accuracy');
#1160 = PRODUCT_RELATED_PRODUCT_CATEGORY('part',$,(#7));
#1161 = MECHANICAL_DESIGN_GEOMETRIC_PRESENTATION_REPRESENTATION('',(
    #1162),#1155);
#1162 = STYLED_ITEM('color',(#1163),#15);
#1163 = PRESENTATION_STYLE_ASSIGNMENT((#1164,#1170));
#1164 = SURFACE_STYLE_USAGE(.BOTH.,#1165);
#1165 = SURFACE_SIDE_STYLE('',(#1166));
#1166 = SURFACE_STYLE_FILL_AREA(#1167);
#1167 = FILL_AREA_STYLE('',(#1168));
#1168 = FILL_AREA_STYLE_COLOUR('',#1169);
#1169 = COLOUR_RGB('',0.678431390124,0.709803936702,0.741176476869);
#1170 = CURVE_STYLE('',#1171,POSITIVE_LENGTH_MEASURE(0.1),#1172);
#1171 = DRAUGHTING_PRE_DEFINED_CURVE_FONT('continuous');
#1172 = COLOUR_RGB('',9.803921802644E-02,9.803921802644E-02,
  9.803921802644E-02);
ENDSEC;
END-ISO-10303-21;
