ISO-10303-21;
HEADER;
FILE_DESCRIPTION(('FreeCAD Model'),'2;1');
FILE_NAME('Open CASCADE Shape Model','2026-08-29T12:42:18',(''),(''),
  'Open CASCADE STEP processor 7.8','FreeCAD','Unknown');
FILE_SCHEMA(('AUTOMOTIVE_DESIGN { 1 0 10303 214 1 1 1 1 }'));
ENDSEC;
DATA;
#1 = APPLICATION_PROTOCOL_DEFINITION('international standard',
  'automotive_design',2000,#2);
#2 = APPLICATION_CONTEXT(
  'core data for automotive mechanical design processes');
#3 = SHAPE_DEFINITION_REPRESENTATION(#4,#10);
#4 = PRODUCT_DEFINITION_SHAPE('','',#5);
#5 = PRODUCT_DEFINITION('design','',#6,#9);
#6 = PRODUCT_DEFINITION_FORMATION('','',#7);
#7 = PRODUCT('power_button','power_button','',(#8));
#8 = PRODUCT_CONTEXT('',#2,'mechanical');
#9 = PRODUCT_DEFINITION_CONTEXT('part definition',#2,'design');
#10 = ADVANCED_BREP_SHAPE_REPRESENTATION('',(#11,#15),#1233);
#11 = AXIS2_PLACEMENT_3D('',#12,#13,#14);
#12 = CARTESIAN_POINT('',(0.,0.,0.));
#13 = DIRECTION('',(0.,0.,1.));
#14 = DIRECTION('',(1.,0.,-0.));
#15 = MANIFOLD_SOLID_BREP('',#16);
#16 = CLOSED_SHELL('',(#17,#189,#230,#254,#288,#312,#360,#464,#512,#537,
    #570,#594,#628,#652,#692,#708,#733,#757,#789,#805,#838,#855,#872,
    #918,#930,#1027,#1044,#1061,#1078,#1095,#1112,#1129,#1146,#1163,
    #1180,#1197,#1209,#1221));
#17 = ADVANCED_FACE('',(#18),#184,.F.);
#18 = FACE_BOUND('',#19,.F.);
#19 = EDGE_LOOP('',(#20,#31,#39,#47,#55,#63,#71,#79,#87,#95,#103,#112,
    #120,#129,#137,#145,#153,#161,#169,#178));
#20 = ORIENTED_EDGE('',*,*,#21,.F.);
#21 = EDGE_CURVE('',#22,#24,#26,.T.);
#22 = VERTEX_POINT('',#23);
#23 = CARTESIAN_POINT('',(44.712497948557,10.9977,1.6));
#24 = VERTEX_POINT('',#25);
#25 = CARTESIAN_POINT('',(44.7226,10.8977,1.6));
#26 = CIRCLE('',#27,0.5);
#27 = AXIS2_PLACEMENT_3D('',#28,#29,#30);
#28 = CARTESIAN_POINT('',(44.2226,10.8977,1.6));
#29 = DIRECTION('',(-0.,-0.,-1.));
#30 = DIRECTION('',(0.,-1.,0.));
#31 = ORIENTED_EDGE('',*,*,#32,.F.);
#32 = EDGE_CURVE('',#33,#22,#35,.T.);
#33 = VERTEX_POINT('',#34);
#34 = CARTESIAN_POINT('',(42.7226,10.9977,1.6));
#35 = LINE('',#36,#37);
#36 = CARTESIAN_POINT('',(42.7226,10.9977,1.6));
#37 = VECTOR('',#38,1.);
#38 = DIRECTION('',(1.,0.,0.));
#39 = ORIENTED_EDGE('',*,*,#40,.F.);
#40 = EDGE_CURVE('',#41,#33,#43,.T.);
#41 = VERTEX_POINT('',#42);
#42 = CARTESIAN_POINT('',(42.7226,11.0977,1.6));
#43 = LINE('',#44,#45);
#44 = CARTESIAN_POINT('',(42.7226,9.040631988214,1.6));
#45 = VECTOR('',#46,1.);
#46 = DIRECTION('',(-0.,-1.,-0.));
#47 = ORIENTED_EDGE('',*,*,#48,.F.);
#48 = EDGE_CURVE('',#49,#41,#51,.T.);
#49 = VERTEX_POINT('',#50);
#50 = CARTESIAN_POINT('',(42.3226,11.0977,1.6));
#51 = LINE('',#52,#53);
#52 = CARTESIAN_POINT('',(35.1226,11.0977,1.6));
#53 = VECTOR('',#54,1.);
#54 = DIRECTION('',(1.,0.,0.));
#55 = ORIENTED_EDGE('',*,*,#56,.F.);
#56 = EDGE_CURVE('',#57,#49,#59,.T.);
#57 = VERTEX_POINT('',#58);
#58 = CARTESIAN_POINT('',(42.1226,10.8977,1.6));
#59 = LINE('',#60,#61);
#60 = CARTESIAN_POINT('',(40.244065994107,9.019165994107,1.6));
#61 = VECTOR('',#62,1.);
#62 = DIRECTION('',(0.707106781187,0.707106781187,0.));
#63 = ORIENTED_EDGE('',*,*,#64,.F.);
#64 = EDGE_CURVE('',#65,#57,#67,.T.);
#65 = VERTEX_POINT('',#66);
#66 = CARTESIAN_POINT('',(35.7226,10.8977,1.6));
#67 = LINE('',#68,#69);
#68 = CARTESIAN_POINT('',(37.3226,10.8977,1.6));
#69 = VECTOR('',#70,1.);
#70 = DIRECTION('',(1.,0.,0.));
#71 = ORIENTED_EDGE('',*,*,#72,.F.);
#72 = EDGE_CURVE('',#73,#65,#75,.T.);
#73 = VERTEX_POINT('',#74);
#74 = CARTESIAN_POINT('',(35.5226,11.0977,1.6));
#75 = LINE('',#76,#77);
#76 = CARTESIAN_POINT('',(37.301134005893,9.319165994107,1.6));
#77 = VECTOR('',#78,1.);
#78 = DIRECTION('',(0.707106781187,-0.707106781187,0.));
#79 = ORIENTED_EDGE('',*,*,#80,.F.);
#80 = EDGE_CURVE('',#81,#73,#83,.T.);
#81 = VERTEX_POINT('',#82);
#82 = CARTESIAN_POINT('',(35.1226,11.0977,1.6));
#83 = LINE('',#84,#85);
#84 = CARTESIAN_POINT('',(35.1226,11.0977,1.6));
#85 = VECTOR('',#86,1.);
#86 = DIRECTION('',(1.,0.,0.));
#87 = ORIENTED_EDGE('',*,*,#88,.T.);
#88 = EDGE_CURVE('',#81,#89,#91,.T.);
#89 = VERTEX_POINT('',#90);
#90 = CARTESIAN_POINT('',(35.1226,10.9977,1.6));
#91 = LINE('',#92,#93);
#92 = CARTESIAN_POINT('',(35.1226,9.040631988214,1.6));
#93 = VECTOR('',#94,1.);
#94 = DIRECTION('',(-0.,-1.,-0.));
#95 = ORIENTED_EDGE('',*,*,#96,.T.);
#96 = EDGE_CURVE('',#89,#97,#99,.T.);
#97 = VERTEX_POINT('',#98);
#98 = CARTESIAN_POINT('',(33.132702051443,10.9977,1.6));
#99 = LINE('',#100,#101);
#100 = CARTESIAN_POINT('',(35.1226,10.9977,1.6));
#101 = VECTOR('',#102,1.);
#102 = DIRECTION('',(-1.,0.,0.));
#103 = ORIENTED_EDGE('',*,*,#104,.F.);
#104 = EDGE_CURVE('',#105,#97,#107,.T.);
#105 = VERTEX_POINT('',#106);
#106 = CARTESIAN_POINT('',(33.1226,10.8977,1.6));
#107 = CIRCLE('',#108,0.5);
#108 = AXIS2_PLACEMENT_3D('',#109,#110,#111);
#109 = CARTESIAN_POINT('',(33.6226,10.8977,1.6));
#110 = DIRECTION('',(-0.,-0.,-1.));
#111 = DIRECTION('',(0.,-1.,0.));
#112 = ORIENTED_EDGE('',*,*,#113,.T.);
#113 = EDGE_CURVE('',#105,#114,#116,.T.);
#114 = VERTEX_POINT('',#115);
#115 = CARTESIAN_POINT('',(33.1226,8.7977,1.6));
#116 = LINE('',#117,#118);
#117 = CARTESIAN_POINT('',(33.1226,11.3977,1.6));
#118 = VECTOR('',#119,1.);
#119 = DIRECTION('',(0.,-1.,0.));
#120 = ORIENTED_EDGE('',*,*,#121,.T.);
#121 = EDGE_CURVE('',#114,#122,#124,.T.);
#122 = VERTEX_POINT('',#123);
#123 = CARTESIAN_POINT('',(33.132702051443,8.6977,1.6));
#124 = CIRCLE('',#125,0.5);
#125 = AXIS2_PLACEMENT_3D('',#126,#127,#128);
#126 = CARTESIAN_POINT('',(33.6226,8.7977,1.6));
#127 = DIRECTION('',(-0.,0.,1.));
#128 = DIRECTION('',(0.,-1.,0.));
#129 = ORIENTED_EDGE('',*,*,#130,.T.);
#130 = EDGE_CURVE('',#122,#131,#133,.T.);
#131 = VERTEX_POINT('',#132);
#132 = CARTESIAN_POINT('',(36.1226,8.6977,1.6));
#133 = LINE('',#134,#135);
#134 = CARTESIAN_POINT('',(33.1226,8.6977,1.6));
#135 = VECTOR('',#136,1.);
#136 = DIRECTION('',(1.,0.,0.));
#137 = ORIENTED_EDGE('',*,*,#138,.T.);
#138 = EDGE_CURVE('',#131,#139,#141,.T.);
#139 = VERTEX_POINT('',#140);
#140 = CARTESIAN_POINT('',(36.1226,8.333333333333E-02,1.6));
#141 = LINE('',#142,#143);
#142 = CARTESIAN_POINT('',(36.1226,8.2977,1.6));
#143 = VECTOR('',#144,1.);
#144 = DIRECTION('',(0.,-1.,0.));
#145 = ORIENTED_EDGE('',*,*,#146,.F.);
#146 = EDGE_CURVE('',#147,#139,#149,.T.);
#147 = VERTEX_POINT('',#148);
#148 = CARTESIAN_POINT('',(41.7226,8.333333333333E-02,1.6));
#149 = LINE('',#150,#151);
#150 = CARTESIAN_POINT('',(41.205933333333,8.333333333333E-02,1.6));
#151 = VECTOR('',#152,1.);
#152 = DIRECTION('',(-1.,0.,0.));
#153 = ORIENTED_EDGE('',*,*,#154,.T.);
#154 = EDGE_CURVE('',#147,#155,#157,.T.);
#155 = VERTEX_POINT('',#156);
#156 = CARTESIAN_POINT('',(41.7226,8.6977,1.6));
#157 = LINE('',#158,#159);
#158 = CARTESIAN_POINT('',(41.7226,7.440631988214,1.6));
#159 = VECTOR('',#160,1.);
#160 = DIRECTION('',(0.,1.,0.));
#161 = ORIENTED_EDGE('',*,*,#162,.F.);
#162 = EDGE_CURVE('',#163,#155,#165,.T.);
#163 = VERTEX_POINT('',#164);
#164 = CARTESIAN_POINT('',(44.712497948557,8.6977,1.6));
#165 = LINE('',#166,#167);
#166 = CARTESIAN_POINT('',(44.7226,8.6977,1.6));
#167 = VECTOR('',#168,1.);
#168 = DIRECTION('',(-1.,0.,0.));
#169 = ORIENTED_EDGE('',*,*,#170,.F.);
#170 = EDGE_CURVE('',#171,#163,#173,.T.);
#171 = VERTEX_POINT('',#172);
#172 = CARTESIAN_POINT('',(44.7226,8.7977,1.6));
#173 = CIRCLE('',#174,0.5);
#174 = AXIS2_PLACEMENT_3D('',#175,#176,#177);
#175 = CARTESIAN_POINT('',(44.2226,8.7977,1.6));
#176 = DIRECTION('',(-0.,-0.,-1.));
#177 = DIRECTION('',(0.,-1.,0.));
#178 = ORIENTED_EDGE('',*,*,#179,.F.);
#179 = EDGE_CURVE('',#24,#171,#180,.T.);
#180 = LINE('',#181,#182);
#181 = CARTESIAN_POINT('',(44.7226,11.3977,1.6));
#182 = VECTOR('',#183,1.);
#183 = DIRECTION('',(0.,-1.,0.));
#184 = PLANE('',#185);
#185 = AXIS2_PLACEMENT_3D('',#186,#187,#188);
#186 = CARTESIAN_POINT('',(38.9226,6.583563976427,1.6));
#187 = DIRECTION('',(0.,0.,1.));
#188 = DIRECTION('',(1.,0.,0.));
#189 = ADVANCED_FACE('',(#190),#225,.T.);
#190 = FACE_BOUND('',#191,.F.);
#191 = EDGE_LOOP('',(#192,#201,#202,#210,#219));
#192 = ORIENTED_EDGE('',*,*,#193,.T.);
#193 = EDGE_CURVE('',#194,#22,#196,.T.);
#194 = VERTEX_POINT('',#195);
#195 = CARTESIAN_POINT('',(44.2226,11.3977,2.));
#196 = ELLIPSE('',#197,0.707106781187,0.5);
#197 = AXIS2_PLACEMENT_3D('',#198,#199,#200);
#198 = CARTESIAN_POINT('',(44.2226,10.8977,1.5));
#199 = DIRECTION('',(0.,0.707106781187,-0.707106781187));
#200 = DIRECTION('',(0.,0.707106781187,0.707106781187));
#201 = ORIENTED_EDGE('',*,*,#21,.T.);
#202 = ORIENTED_EDGE('',*,*,#203,.T.);
#203 = EDGE_CURVE('',#24,#204,#206,.T.);
#204 = VERTEX_POINT('',#205);
#205 = CARTESIAN_POINT('',(44.7226,10.8977,4.7));
#206 = LINE('',#207,#208);
#207 = CARTESIAN_POINT('',(44.7226,10.8977,2.));
#208 = VECTOR('',#209,1.);
#209 = DIRECTION('',(0.,0.,1.));
#210 = ORIENTED_EDGE('',*,*,#211,.F.);
#211 = EDGE_CURVE('',#212,#204,#214,.T.);
#212 = VERTEX_POINT('',#213);
#213 = CARTESIAN_POINT('',(44.2226,11.3977,4.7));
#214 = CIRCLE('',#215,0.5);
#215 = AXIS2_PLACEMENT_3D('',#216,#217,#218);
#216 = CARTESIAN_POINT('',(44.2226,10.8977,4.7));
#217 = DIRECTION('',(-0.,-0.,-1.));
#218 = DIRECTION('',(0.,-1.,0.));
#219 = ORIENTED_EDGE('',*,*,#220,.F.);
#220 = EDGE_CURVE('',#194,#212,#221,.T.);
#221 = LINE('',#222,#223);
#222 = CARTESIAN_POINT('',(44.2226,11.3977,2.));
#223 = VECTOR('',#224,1.);
#224 = DIRECTION('',(0.,0.,1.));
#225 = CYLINDRICAL_SURFACE('',#226,0.5);
#226 = AXIS2_PLACEMENT_3D('',#227,#228,#229);
#227 = CARTESIAN_POINT('',(44.2226,10.8977,2.));
#228 = DIRECTION('',(0.,0.,1.));
#229 = DIRECTION('',(0.,1.,0.));
#230 = ADVANCED_FACE('',(#231),#249,.T.);
#231 = FACE_BOUND('',#232,.T.);
#232 = EDGE_LOOP('',(#233,#241,#247,#248));
#233 = ORIENTED_EDGE('',*,*,#234,.T.);
#234 = EDGE_CURVE('',#204,#235,#237,.T.);
#235 = VERTEX_POINT('',#236);
#236 = CARTESIAN_POINT('',(44.7226,8.7977,4.7));
#237 = LINE('',#238,#239);
#238 = CARTESIAN_POINT('',(44.7226,11.3977,4.7));
#239 = VECTOR('',#240,1.);
#240 = DIRECTION('',(0.,-1.,0.));
#241 = ORIENTED_EDGE('',*,*,#242,.F.);
#242 = EDGE_CURVE('',#171,#235,#243,.T.);
#243 = LINE('',#244,#245);
#244 = CARTESIAN_POINT('',(44.7226,8.7977,2.));
#245 = VECTOR('',#246,1.);
#246 = DIRECTION('',(0.,0.,1.));
#247 = ORIENTED_EDGE('',*,*,#179,.F.);
#248 = ORIENTED_EDGE('',*,*,#203,.T.);
#249 = PLANE('',#250);
#250 = AXIS2_PLACEMENT_3D('',#251,#252,#253);
#251 = CARTESIAN_POINT('',(44.7226,11.3977,1.6));
#252 = DIRECTION('',(1.,0.,0.));
#253 = DIRECTION('',(0.,-1.,0.));
#254 = ADVANCED_FACE('',(#255),#283,.T.);
#255 = FACE_BOUND('',#256,.F.);
#256 = EDGE_LOOP('',(#257,#258,#267,#275,#282));
#257 = ORIENTED_EDGE('',*,*,#170,.T.);
#258 = ORIENTED_EDGE('',*,*,#259,.T.);
#259 = EDGE_CURVE('',#163,#260,#262,.T.);
#260 = VERTEX_POINT('',#261);
#261 = CARTESIAN_POINT('',(44.2226,8.2977,2.));
#262 = ELLIPSE('',#263,0.707106781187,0.5);
#263 = AXIS2_PLACEMENT_3D('',#264,#265,#266);
#264 = CARTESIAN_POINT('',(44.2226,8.7977,1.5));
#265 = DIRECTION('',(-0.,-0.707106781187,-0.707106781187));
#266 = DIRECTION('',(0.,-0.707106781187,0.707106781187));
#267 = ORIENTED_EDGE('',*,*,#268,.T.);
#268 = EDGE_CURVE('',#260,#269,#271,.T.);
#269 = VERTEX_POINT('',#270);
#270 = CARTESIAN_POINT('',(44.2226,8.2977,4.7));
#271 = LINE('',#272,#273);
#272 = CARTESIAN_POINT('',(44.2226,8.2977,2.));
#273 = VECTOR('',#274,1.);
#274 = DIRECTION('',(0.,0.,1.));
#275 = ORIENTED_EDGE('',*,*,#276,.F.);
#276 = EDGE_CURVE('',#235,#269,#277,.T.);
#277 = CIRCLE('',#278,0.5);
#278 = AXIS2_PLACEMENT_3D('',#279,#280,#281);
#279 = CARTESIAN_POINT('',(44.2226,8.7977,4.7));
#280 = DIRECTION('',(-0.,-0.,-1.));
#281 = DIRECTION('',(0.,-1.,0.));
#282 = ORIENTED_EDGE('',*,*,#242,.F.);
#283 = CYLINDRICAL_SURFACE('',#284,0.5);
#284 = AXIS2_PLACEMENT_3D('',#285,#286,#287);
#285 = CARTESIAN_POINT('',(44.2226,8.7977,2.));
#286 = DIRECTION('',(0.,0.,1.));
#287 = DIRECTION('',(1.,0.,0.));
#288 = ADVANCED_FACE('',(#289),#307,.F.);
#289 = FACE_BOUND('',#290,.T.);
#290 = EDGE_LOOP('',(#291,#299,#305,#306));
#291 = ORIENTED_EDGE('',*,*,#292,.T.);
#292 = EDGE_CURVE('',#260,#293,#295,.T.);
#293 = VERTEX_POINT('',#294);
#294 = CARTESIAN_POINT('',(41.7226,8.2977,2.));
#295 = LINE('',#296,#297);
#296 = CARTESIAN_POINT('',(44.7226,8.2977,2.));
#297 = VECTOR('',#298,1.);
#298 = DIRECTION('',(-1.,0.,0.));
#299 = ORIENTED_EDGE('',*,*,#300,.T.);
#300 = EDGE_CURVE('',#293,#155,#301,.T.);
#301 = LINE('',#302,#303);
#302 = CARTESIAN_POINT('',(41.7226,8.4977,1.8));
#303 = VECTOR('',#304,1.);
#304 = DIRECTION('',(0.,0.707106781187,-0.707106781187));
#305 = ORIENTED_EDGE('',*,*,#162,.F.);
#306 = ORIENTED_EDGE('',*,*,#259,.T.);
#307 = PLANE('',#308);
#308 = AXIS2_PLACEMENT_3D('',#309,#310,#311);
#309 = CARTESIAN_POINT('',(44.7226,8.4977,1.8));
#310 = DIRECTION('',(0.,0.707106781187,0.707106781187));
#311 = DIRECTION('',(1.,0.,0.));
#312 = ADVANCED_FACE('',(#313),#355,.T.);
#313 = FACE_BOUND('',#314,.T.);
#314 = EDGE_LOOP('',(#315,#325,#333,#341,#347,#348,#349));
#315 = ORIENTED_EDGE('',*,*,#316,.T.);
#316 = EDGE_CURVE('',#317,#319,#321,.T.);
#317 = VERTEX_POINT('',#318);
#318 = CARTESIAN_POINT('',(41.7226,8.2977,4.7));
#319 = VERTEX_POINT('',#320);
#320 = CARTESIAN_POINT('',(41.7226,8.333333333333E-02,4.7));
#321 = LINE('',#322,#323);
#322 = CARTESIAN_POINT('',(41.7226,8.2977,4.7));
#323 = VECTOR('',#324,1.);
#324 = DIRECTION('',(0.,-1.,0.));
#325 = ORIENTED_EDGE('',*,*,#326,.T.);
#326 = EDGE_CURVE('',#319,#327,#329,.T.);
#327 = VERTEX_POINT('',#328);
#328 = CARTESIAN_POINT('',(41.7226,0.,4.616666666667));
#329 = LINE('',#330,#331);
#330 = CARTESIAN_POINT('',(41.7226,1.211925,5.828591666667));
#331 = VECTOR('',#332,1.);
#332 = DIRECTION('',(0.,-0.707106781187,-0.707106781187));
#333 = ORIENTED_EDGE('',*,*,#334,.F.);
#334 = EDGE_CURVE('',#335,#327,#337,.T.);
#335 = VERTEX_POINT('',#336);
#336 = CARTESIAN_POINT('',(41.7226,0.,1.683333333333));
#337 = LINE('',#338,#339);
#338 = CARTESIAN_POINT('',(41.7226,0.,1.6));
#339 = VECTOR('',#340,1.);
#340 = DIRECTION('',(0.,0.,1.));
#341 = ORIENTED_EDGE('',*,*,#342,.F.);
#342 = EDGE_CURVE('',#147,#335,#343,.T.);
#343 = LINE('',#344,#345);
#344 = CARTESIAN_POINT('',(41.7226,1.986925,-0.303591666667));
#345 = VECTOR('',#346,1.);
#346 = DIRECTION('',(0.,-0.707106781187,0.707106781187));
#347 = ORIENTED_EDGE('',*,*,#154,.T.);
#348 = ORIENTED_EDGE('',*,*,#300,.F.);
#349 = ORIENTED_EDGE('',*,*,#350,.T.);
#350 = EDGE_CURVE('',#293,#317,#351,.T.);
#351 = LINE('',#352,#353);
#352 = CARTESIAN_POINT('',(41.7226,8.2977,1.6));
#353 = VECTOR('',#354,1.);
#354 = DIRECTION('',(0.,0.,1.));
#355 = PLANE('',#356);
#356 = AXIS2_PLACEMENT_3D('',#357,#358,#359);
#357 = CARTESIAN_POINT('',(41.7226,8.2977,1.6));
#358 = DIRECTION('',(1.,0.,0.));
#359 = DIRECTION('',(0.,-1.,0.));
#360 = ADVANCED_FACE('',(#361),#459,.F.);
#361 = FACE_BOUND('',#362,.F.);
#362 = EDGE_LOOP('',(#363,#364,#365,#373,#381,#389,#397,#405,#413,#421,
    #429,#437,#445,#453));
#363 = ORIENTED_EDGE('',*,*,#342,.F.);
#364 = ORIENTED_EDGE('',*,*,#146,.T.);
#365 = ORIENTED_EDGE('',*,*,#366,.T.);
#366 = EDGE_CURVE('',#139,#367,#369,.T.);
#367 = VERTEX_POINT('',#368);
#368 = CARTESIAN_POINT('',(36.1226,0.,1.683333333333));
#369 = LINE('',#370,#371);
#370 = CARTESIAN_POINT('',(36.1226,1.986925,-0.303591666667));
#371 = VECTOR('',#372,1.);
#372 = DIRECTION('',(0.,-0.707106781187,0.707106781187));
#373 = ORIENTED_EDGE('',*,*,#374,.T.);
#374 = EDGE_CURVE('',#367,#375,#377,.T.);
#375 = VERTEX_POINT('',#376);
#376 = CARTESIAN_POINT('',(36.639266666667,-0.516666666667,2.2));
#377 = LINE('',#378,#379);
#378 = CARTESIAN_POINT('',(37.200377777778,-1.077777777778,
    2.761111111111));
#379 = VECTOR('',#380,1.);
#380 = DIRECTION('',(0.57735026919,-0.57735026919,0.57735026919));
#381 = ORIENTED_EDGE('',*,*,#382,.T.);
#382 = EDGE_CURVE('',#375,#383,#385,.T.);
#383 = VERTEX_POINT('',#384);
#384 = CARTESIAN_POINT('',(37.439266666667,-0.516666666667,2.2));
#385 = LINE('',#386,#387);
#386 = CARTESIAN_POINT('',(39.3226,-0.516666666667,2.2));
#387 = VECTOR('',#388,1.);
#388 = DIRECTION('',(1.,0.,1.E-17));
#389 = ORIENTED_EDGE('',*,*,#390,.T.);
#390 = EDGE_CURVE('',#383,#391,#393,.T.);
#391 = VERTEX_POINT('',#392);
#392 = CARTESIAN_POINT('',(37.955933333333,0.,1.683333333333));
#393 = LINE('',#394,#395);
#394 = CARTESIAN_POINT('',(38.439266666667,0.483333333333,1.2));
#395 = VECTOR('',#396,1.);
#396 = DIRECTION('',(0.57735026919,0.57735026919,-0.57735026919));
#397 = ORIENTED_EDGE('',*,*,#398,.T.);
#398 = EDGE_CURVE('',#391,#399,#401,.T.);
#399 = VERTEX_POINT('',#400);
#400 = CARTESIAN_POINT('',(38.005933333333,0.,1.683333333333));
#401 = LINE('',#402,#403);
#402 = CARTESIAN_POINT('',(39.605933333333,0.,1.683333333333));
#403 = VECTOR('',#404,1.);
#404 = DIRECTION('',(1.,0.,1.E-17));
#405 = ORIENTED_EDGE('',*,*,#406,.T.);
#406 = EDGE_CURVE('',#399,#407,#409,.T.);
#407 = VERTEX_POINT('',#408);
#408 = CARTESIAN_POINT('',(38.5226,-0.516666666667,2.2));
#409 = LINE('',#410,#411);
#410 = CARTESIAN_POINT('',(38.769822222222,-0.763888888889,
    2.447222222222));
#411 = VECTOR('',#412,1.);
#412 = DIRECTION('',(0.57735026919,-0.57735026919,0.57735026919));
#413 = ORIENTED_EDGE('',*,*,#414,.T.);
#414 = EDGE_CURVE('',#407,#415,#417,.T.);
#415 = VERTEX_POINT('',#416);
#416 = CARTESIAN_POINT('',(39.3226,-0.516666666667,2.2));
#417 = LINE('',#418,#419);
#418 = CARTESIAN_POINT('',(39.864266666667,-0.516666666667,2.2));
#419 = VECTOR('',#420,1.);
#420 = DIRECTION('',(1.,0.,1.E-17));
#421 = ORIENTED_EDGE('',*,*,#422,.T.);
#422 = EDGE_CURVE('',#415,#423,#425,.T.);
#423 = VERTEX_POINT('',#424);
#424 = CARTESIAN_POINT('',(39.839266666667,-1.E-15,1.683333333333));
#425 = LINE('',#426,#427);
#426 = CARTESIAN_POINT('',(39.836488888889,-2.777777777777E-03,
    1.686111111111));
#427 = VECTOR('',#428,1.);
#428 = DIRECTION('',(0.57735026919,0.57735026919,-0.57735026919));
#429 = ORIENTED_EDGE('',*,*,#430,.T.);
#430 = EDGE_CURVE('',#423,#431,#433,.T.);
#431 = VERTEX_POINT('',#432);
#432 = CARTESIAN_POINT('',(39.889266666667,0.,1.683333333333));
#433 = LINE('',#434,#435);
#434 = CARTESIAN_POINT('',(40.5226,0.,1.683333333333));
#435 = VECTOR('',#436,1.);
#436 = DIRECTION('',(1.,0.,1.E-17));
#437 = ORIENTED_EDGE('',*,*,#438,.T.);
#438 = EDGE_CURVE('',#431,#439,#441,.T.);
#439 = VERTEX_POINT('',#440);
#440 = CARTESIAN_POINT('',(40.405933333333,-0.516666666667,2.2));
#441 = LINE('',#442,#443);
#442 = CARTESIAN_POINT('',(40.167044444444,-0.277777777778,
    1.961111111111));
#443 = VECTOR('',#444,1.);
#444 = DIRECTION('',(0.57735026919,-0.57735026919,0.57735026919));
#445 = ORIENTED_EDGE('',*,*,#446,.F.);
#446 = EDGE_CURVE('',#447,#439,#449,.T.);
#447 = VERTEX_POINT('',#448);
#448 = CARTESIAN_POINT('',(41.205933333333,-0.516666666667,2.2));
#449 = LINE('',#450,#451);
#450 = CARTESIAN_POINT('',(41.205933333333,-0.516666666667,2.2));
#451 = VECTOR('',#452,1.);
#452 = DIRECTION('',(-1.,0.,0.));
#453 = ORIENTED_EDGE('',*,*,#454,.F.);
#454 = EDGE_CURVE('',#335,#447,#455,.T.);
#455 = LINE('',#456,#457);
#456 = CARTESIAN_POINT('',(41.405933333333,-0.316666666667,2.));
#457 = VECTOR('',#458,1.);
#458 = DIRECTION('',(-0.57735026919,-0.57735026919,0.57735026919));
#459 = PLANE('',#460);
#460 = AXIS2_PLACEMENT_3D('',#461,#462,#463);
#461 = CARTESIAN_POINT('',(41.205933333333,-0.216666666667,1.9));
#462 = DIRECTION('',(-1.E-17,0.707106781187,0.707106781187));
#463 = DIRECTION('',(-1.,-7.071067811865E-18,-7.071067811865E-18));
#464 = ADVANCED_FACE('',(#465),#507,.F.);
#465 = FACE_BOUND('',#466,.F.);
#466 = EDGE_LOOP('',(#467,#477,#485,#491,#492,#493,#501));
#467 = ORIENTED_EDGE('',*,*,#468,.T.);
#468 = EDGE_CURVE('',#469,#471,#473,.T.);
#469 = VERTEX_POINT('',#470);
#470 = CARTESIAN_POINT('',(36.1226,8.2977,4.7));
#471 = VERTEX_POINT('',#472);
#472 = CARTESIAN_POINT('',(36.1226,8.333333333333E-02,4.7));
#473 = LINE('',#474,#475);
#474 = CARTESIAN_POINT('',(36.1226,8.2977,4.7));
#475 = VECTOR('',#476,1.);
#476 = DIRECTION('',(0.,-1.,0.));
#477 = ORIENTED_EDGE('',*,*,#478,.T.);
#478 = EDGE_CURVE('',#471,#479,#481,.T.);
#479 = VERTEX_POINT('',#480);
#480 = CARTESIAN_POINT('',(36.1226,0.,4.616666666667));
#481 = LINE('',#482,#483);
#482 = CARTESIAN_POINT('',(36.1226,1.211925,5.828591666667));
#483 = VECTOR('',#484,1.);
#484 = DIRECTION('',(0.,-0.707106781187,-0.707106781187));
#485 = ORIENTED_EDGE('',*,*,#486,.F.);
#486 = EDGE_CURVE('',#367,#479,#487,.T.);
#487 = LINE('',#488,#489);
#488 = CARTESIAN_POINT('',(36.1226,0.,1.6));
#489 = VECTOR('',#490,1.);
#490 = DIRECTION('',(0.,0.,1.));
#491 = ORIENTED_EDGE('',*,*,#366,.F.);
#492 = ORIENTED_EDGE('',*,*,#138,.F.);
#493 = ORIENTED_EDGE('',*,*,#494,.F.);
#494 = EDGE_CURVE('',#495,#131,#497,.T.);
#495 = VERTEX_POINT('',#496);
#496 = CARTESIAN_POINT('',(36.1226,8.2977,2.));
#497 = LINE('',#498,#499);
#498 = CARTESIAN_POINT('',(36.1226,8.4977,1.8));
#499 = VECTOR('',#500,1.);
#500 = DIRECTION('',(0.,0.707106781187,-0.707106781187));
#501 = ORIENTED_EDGE('',*,*,#502,.T.);
#502 = EDGE_CURVE('',#495,#469,#503,.T.);
#503 = LINE('',#504,#505);
#504 = CARTESIAN_POINT('',(36.1226,8.2977,1.6));
#505 = VECTOR('',#506,1.);
#506 = DIRECTION('',(0.,0.,1.));
#507 = PLANE('',#508);
#508 = AXIS2_PLACEMENT_3D('',#509,#510,#511);
#509 = CARTESIAN_POINT('',(36.1226,8.2977,1.6));
#510 = DIRECTION('',(1.,0.,0.));
#511 = DIRECTION('',(0.,-1.,0.));
#512 = ADVANCED_FACE('',(#513),#532,.T.);
#513 = FACE_BOUND('',#514,.F.);
#514 = EDGE_LOOP('',(#515,#523,#524,#525));
#515 = ORIENTED_EDGE('',*,*,#516,.T.);
#516 = EDGE_CURVE('',#517,#495,#519,.T.);
#517 = VERTEX_POINT('',#518);
#518 = CARTESIAN_POINT('',(33.6226,8.2977,2.));
#519 = LINE('',#520,#521);
#520 = CARTESIAN_POINT('',(33.1226,8.2977,2.));
#521 = VECTOR('',#522,1.);
#522 = DIRECTION('',(1.,0.,0.));
#523 = ORIENTED_EDGE('',*,*,#494,.T.);
#524 = ORIENTED_EDGE('',*,*,#130,.F.);
#525 = ORIENTED_EDGE('',*,*,#526,.T.);
#526 = EDGE_CURVE('',#122,#517,#527,.T.);
#527 = ELLIPSE('',#528,0.707106781187,0.5);
#528 = AXIS2_PLACEMENT_3D('',#529,#530,#531);
#529 = CARTESIAN_POINT('',(33.6226,8.7977,1.5));
#530 = DIRECTION('',(-0.,0.707106781187,0.707106781187));
#531 = DIRECTION('',(0.,-0.707106781187,0.707106781187));
#532 = PLANE('',#533);
#533 = AXIS2_PLACEMENT_3D('',#534,#535,#536);
#534 = CARTESIAN_POINT('',(33.1226,8.4977,1.8));
#535 = DIRECTION('',(0.,-0.707106781187,-0.707106781187));
#536 = DIRECTION('',(-1.,-0.,-0.));
#537 = ADVANCED_FACE('',(#538),#565,.T.);
#538 = FACE_BOUND('',#539,.T.);
#539 = EDGE_LOOP('',(#540,#541,#542,#550,#559));
#540 = ORIENTED_EDGE('',*,*,#121,.T.);
#541 = ORIENTED_EDGE('',*,*,#526,.T.);
#542 = ORIENTED_EDGE('',*,*,#543,.T.);
#543 = EDGE_CURVE('',#517,#544,#546,.T.);
#544 = VERTEX_POINT('',#545);
#545 = CARTESIAN_POINT('',(33.6226,8.2977,4.7));
#546 = LINE('',#547,#548);
#547 = CARTESIAN_POINT('',(33.6226,8.2977,2.));
#548 = VECTOR('',#549,1.);
#549 = DIRECTION('',(0.,0.,1.));
#550 = ORIENTED_EDGE('',*,*,#551,.F.);
#551 = EDGE_CURVE('',#552,#544,#554,.T.);
#552 = VERTEX_POINT('',#553);
#553 = CARTESIAN_POINT('',(33.1226,8.7977,4.7));
#554 = CIRCLE('',#555,0.5);
#555 = AXIS2_PLACEMENT_3D('',#556,#557,#558);
#556 = CARTESIAN_POINT('',(33.6226,8.7977,4.7));
#557 = DIRECTION('',(-0.,0.,1.));
#558 = DIRECTION('',(0.,-1.,0.));
#559 = ORIENTED_EDGE('',*,*,#560,.F.);
#560 = EDGE_CURVE('',#114,#552,#561,.T.);
#561 = LINE('',#562,#563);
#562 = CARTESIAN_POINT('',(33.1226,8.7977,2.));
#563 = VECTOR('',#564,1.);
#564 = DIRECTION('',(0.,0.,1.));
#565 = CYLINDRICAL_SURFACE('',#566,0.5);
#566 = AXIS2_PLACEMENT_3D('',#567,#568,#569);
#567 = CARTESIAN_POINT('',(33.6226,8.7977,2.));
#568 = DIRECTION('',(0.,0.,1.));
#569 = DIRECTION('',(-1.,0.,0.));
#570 = ADVANCED_FACE('',(#571),#589,.F.);
#571 = FACE_BOUND('',#572,.F.);
#572 = EDGE_LOOP('',(#573,#581,#582,#583));
#573 = ORIENTED_EDGE('',*,*,#574,.T.);
#574 = EDGE_CURVE('',#575,#552,#577,.T.);
#575 = VERTEX_POINT('',#576);
#576 = CARTESIAN_POINT('',(33.1226,10.8977,4.7));
#577 = LINE('',#578,#579);
#578 = CARTESIAN_POINT('',(33.1226,11.3977,4.7));
#579 = VECTOR('',#580,1.);
#580 = DIRECTION('',(0.,-1.,0.));
#581 = ORIENTED_EDGE('',*,*,#560,.F.);
#582 = ORIENTED_EDGE('',*,*,#113,.F.);
#583 = ORIENTED_EDGE('',*,*,#584,.T.);
#584 = EDGE_CURVE('',#105,#575,#585,.T.);
#585 = LINE('',#586,#587);
#586 = CARTESIAN_POINT('',(33.1226,10.8977,2.));
#587 = VECTOR('',#588,1.);
#588 = DIRECTION('',(0.,0.,1.));
#589 = PLANE('',#590);
#590 = AXIS2_PLACEMENT_3D('',#591,#592,#593);
#591 = CARTESIAN_POINT('',(33.1226,11.3977,1.6));
#592 = DIRECTION('',(1.,0.,0.));
#593 = DIRECTION('',(0.,-1.,0.));
#594 = ADVANCED_FACE('',(#595),#623,.T.);
#595 = FACE_BOUND('',#596,.F.);
#596 = EDGE_LOOP('',(#597,#598,#607,#615,#622));
#597 = ORIENTED_EDGE('',*,*,#104,.T.);
#598 = ORIENTED_EDGE('',*,*,#599,.T.);
#599 = EDGE_CURVE('',#97,#600,#602,.T.);
#600 = VERTEX_POINT('',#601);
#601 = CARTESIAN_POINT('',(33.6226,11.3977,2.));
#602 = ELLIPSE('',#603,0.707106781187,0.5);
#603 = AXIS2_PLACEMENT_3D('',#604,#605,#606);
#604 = CARTESIAN_POINT('',(33.6226,10.8977,1.5));
#605 = DIRECTION('',(0.,0.707106781187,-0.707106781187));
#606 = DIRECTION('',(0.,0.707106781187,0.707106781187));
#607 = ORIENTED_EDGE('',*,*,#608,.T.);
#608 = EDGE_CURVE('',#600,#609,#611,.T.);
#609 = VERTEX_POINT('',#610);
#610 = CARTESIAN_POINT('',(33.6226,11.3977,4.7));
#611 = LINE('',#612,#613);
#612 = CARTESIAN_POINT('',(33.6226,11.3977,2.));
#613 = VECTOR('',#614,1.);
#614 = DIRECTION('',(0.,0.,1.));
#615 = ORIENTED_EDGE('',*,*,#616,.F.);
#616 = EDGE_CURVE('',#575,#609,#617,.T.);
#617 = CIRCLE('',#618,0.5);
#618 = AXIS2_PLACEMENT_3D('',#619,#620,#621);
#619 = CARTESIAN_POINT('',(33.6226,10.8977,4.7));
#620 = DIRECTION('',(-0.,-0.,-1.));
#621 = DIRECTION('',(0.,-1.,0.));
#622 = ORIENTED_EDGE('',*,*,#584,.F.);
#623 = CYLINDRICAL_SURFACE('',#624,0.5);
#624 = AXIS2_PLACEMENT_3D('',#625,#626,#627);
#625 = CARTESIAN_POINT('',(33.6226,10.8977,2.));
#626 = DIRECTION('',(0.,0.,1.));
#627 = DIRECTION('',(-1.,0.,0.));
#628 = ADVANCED_FACE('',(#629),#647,.T.);
#629 = FACE_BOUND('',#630,.F.);
#630 = EDGE_LOOP('',(#631,#639,#640,#641));
#631 = ORIENTED_EDGE('',*,*,#632,.T.);
#632 = EDGE_CURVE('',#633,#600,#635,.T.);
#633 = VERTEX_POINT('',#634);
#634 = CARTESIAN_POINT('',(35.1226,11.3977,2.));
#635 = LINE('',#636,#637);
#636 = CARTESIAN_POINT('',(35.1226,11.3977,2.));
#637 = VECTOR('',#638,1.);
#638 = DIRECTION('',(-1.,0.,0.));
#639 = ORIENTED_EDGE('',*,*,#599,.F.);
#640 = ORIENTED_EDGE('',*,*,#96,.F.);
#641 = ORIENTED_EDGE('',*,*,#642,.F.);
#642 = EDGE_CURVE('',#633,#89,#643,.T.);
#643 = LINE('',#644,#645);
#644 = CARTESIAN_POINT('',(35.1226,11.2227,1.825));
#645 = VECTOR('',#646,1.);
#646 = DIRECTION('',(0.,-0.707106781187,-0.707106781187));
#647 = PLANE('',#648);
#648 = AXIS2_PLACEMENT_3D('',#649,#650,#651);
#649 = CARTESIAN_POINT('',(35.1226,11.1977,1.8));
#650 = DIRECTION('',(0.,0.707106781187,-0.707106781187));
#651 = DIRECTION('',(1.,0.,0.));
#652 = ADVANCED_FACE('',(#653),#687,.F.);
#653 = FACE_BOUND('',#654,.F.);
#654 = EDGE_LOOP('',(#655,#656,#664,#672,#680,#686));
#655 = ORIENTED_EDGE('',*,*,#88,.F.);
#656 = ORIENTED_EDGE('',*,*,#657,.F.);
#657 = EDGE_CURVE('',#658,#81,#660,.T.);
#658 = VERTEX_POINT('',#659);
#659 = CARTESIAN_POINT('',(35.1226,11.4977,2.));
#660 = LINE('',#661,#662);
#661 = CARTESIAN_POINT('',(35.1226,11.2977,1.8));
#662 = VECTOR('',#663,1.);
#663 = DIRECTION('',(0.,-0.707106781187,-0.707106781187));
#664 = ORIENTED_EDGE('',*,*,#665,.T.);
#665 = EDGE_CURVE('',#658,#666,#668,.T.);
#666 = VERTEX_POINT('',#667);
#667 = CARTESIAN_POINT('',(35.1226,11.4977,4.7));
#668 = LINE('',#669,#670);
#669 = CARTESIAN_POINT('',(35.1226,11.4977,1.6));
#670 = VECTOR('',#671,1.);
#671 = DIRECTION('',(0.,0.,1.));
#672 = ORIENTED_EDGE('',*,*,#673,.T.);
#673 = EDGE_CURVE('',#666,#674,#676,.T.);
#674 = VERTEX_POINT('',#675);
#675 = CARTESIAN_POINT('',(35.1226,11.3977,4.7));
#676 = LINE('',#677,#678);
#677 = CARTESIAN_POINT('',(35.1226,11.4977,4.7));
#678 = VECTOR('',#679,1.);
#679 = DIRECTION('',(0.,-1.,0.));
#680 = ORIENTED_EDGE('',*,*,#681,.F.);
#681 = EDGE_CURVE('',#633,#674,#682,.T.);
#682 = LINE('',#683,#684);
#683 = CARTESIAN_POINT('',(35.1226,11.3977,1.6));
#684 = VECTOR('',#685,1.);
#685 = DIRECTION('',(0.,0.,1.));
#686 = ORIENTED_EDGE('',*,*,#642,.T.);
#687 = PLANE('',#688);
#688 = AXIS2_PLACEMENT_3D('',#689,#690,#691);
#689 = CARTESIAN_POINT('',(35.1226,11.4977,1.6));
#690 = DIRECTION('',(1.,0.,0.));
#691 = DIRECTION('',(0.,-1.,0.));
#692 = ADVANCED_FACE('',(#693),#703,.F.);
#693 = FACE_BOUND('',#694,.T.);
#694 = EDGE_LOOP('',(#695,#696,#702));
#695 = ORIENTED_EDGE('',*,*,#657,.F.);
#696 = ORIENTED_EDGE('',*,*,#697,.F.);
#697 = EDGE_CURVE('',#73,#658,#698,.T.);
#698 = LINE('',#699,#700);
#699 = CARTESIAN_POINT('',(34.739266666667,11.881033333333,
    2.383333333333));
#700 = VECTOR('',#701,1.);
#701 = DIRECTION('',(-0.57735026919,0.57735026919,0.57735026919));
#702 = ORIENTED_EDGE('',*,*,#80,.F.);
#703 = PLANE('',#704);
#704 = AXIS2_PLACEMENT_3D('',#705,#706,#707);
#705 = CARTESIAN_POINT('',(35.1226,11.2977,1.8));
#706 = DIRECTION('',(0.,-0.707106781187,0.707106781187));
#707 = DIRECTION('',(-1.,-0.,-0.));
#708 = ADVANCED_FACE('',(#709),#728,.F.);
#709 = FACE_BOUND('',#710,.F.);
#710 = EDGE_LOOP('',(#711,#712,#713,#714,#722));
#711 = ORIENTED_EDGE('',*,*,#665,.F.);
#712 = ORIENTED_EDGE('',*,*,#697,.F.);
#713 = ORIENTED_EDGE('',*,*,#72,.T.);
#714 = ORIENTED_EDGE('',*,*,#715,.F.);
#715 = EDGE_CURVE('',#716,#65,#718,.T.);
#716 = VERTEX_POINT('',#717);
#717 = CARTESIAN_POINT('',(35.7226,10.8977,4.7));
#718 = LINE('',#719,#720);
#719 = CARTESIAN_POINT('',(35.7226,10.8977,4.7));
#720 = VECTOR('',#721,1.);
#721 = DIRECTION('',(-0.,-0.,-1.));
#722 = ORIENTED_EDGE('',*,*,#723,.F.);
#723 = EDGE_CURVE('',#666,#716,#724,.T.);
#724 = LINE('',#725,#726);
#725 = CARTESIAN_POINT('',(35.1226,11.4977,4.7));
#726 = VECTOR('',#727,1.);
#727 = DIRECTION('',(0.707106781187,-0.707106781187,0.));
#728 = PLANE('',#729);
#729 = AXIS2_PLACEMENT_3D('',#730,#731,#732);
#730 = CARTESIAN_POINT('',(35.1226,11.4977,4.7));
#731 = DIRECTION('',(-0.707106781187,-0.707106781187,0.));
#732 = DIRECTION('',(0.707106781187,-0.707106781187,0.));
#733 = ADVANCED_FACE('',(#734),#752,.F.);
#734 = FACE_BOUND('',#735,.F.);
#735 = EDGE_LOOP('',(#736,#744,#745,#746));
#736 = ORIENTED_EDGE('',*,*,#737,.F.);
#737 = EDGE_CURVE('',#716,#738,#740,.T.);
#738 = VERTEX_POINT('',#739);
#739 = CARTESIAN_POINT('',(42.1226,10.8977,4.7));
#740 = LINE('',#741,#742);
#741 = CARTESIAN_POINT('',(35.7226,10.8977,4.7));
#742 = VECTOR('',#743,1.);
#743 = DIRECTION('',(1.,0.,0.));
#744 = ORIENTED_EDGE('',*,*,#715,.T.);
#745 = ORIENTED_EDGE('',*,*,#64,.T.);
#746 = ORIENTED_EDGE('',*,*,#747,.F.);
#747 = EDGE_CURVE('',#738,#57,#748,.T.);
#748 = LINE('',#749,#750);
#749 = CARTESIAN_POINT('',(42.1226,10.8977,4.7));
#750 = VECTOR('',#751,1.);
#751 = DIRECTION('',(-0.,-0.,-1.));
#752 = PLANE('',#753);
#753 = AXIS2_PLACEMENT_3D('',#754,#755,#756);
#754 = CARTESIAN_POINT('',(35.7226,10.8977,4.7));
#755 = DIRECTION('',(0.,-1.,0.));
#756 = DIRECTION('',(1.,0.,0.));
#757 = ADVANCED_FACE('',(#758),#784,.F.);
#758 = FACE_BOUND('',#759,.F.);
#759 = EDGE_LOOP('',(#760,#768,#769,#770,#778));
#760 = ORIENTED_EDGE('',*,*,#761,.F.);
#761 = EDGE_CURVE('',#738,#762,#764,.T.);
#762 = VERTEX_POINT('',#763);
#763 = CARTESIAN_POINT('',(42.7226,11.4977,4.7));
#764 = LINE('',#765,#766);
#765 = CARTESIAN_POINT('',(42.1226,10.8977,4.7));
#766 = VECTOR('',#767,1.);
#767 = DIRECTION('',(0.707106781187,0.707106781187,0.));
#768 = ORIENTED_EDGE('',*,*,#747,.T.);
#769 = ORIENTED_EDGE('',*,*,#56,.T.);
#770 = ORIENTED_EDGE('',*,*,#771,.F.);
#771 = EDGE_CURVE('',#772,#49,#774,.T.);
#772 = VERTEX_POINT('',#773);
#773 = CARTESIAN_POINT('',(42.7226,11.4977,2.));
#774 = LINE('',#775,#776);
#775 = CARTESIAN_POINT('',(41.639266666667,10.414366666667,
    0.916666666667));
#776 = VECTOR('',#777,1.);
#777 = DIRECTION('',(-0.57735026919,-0.57735026919,-0.57735026919));
#778 = ORIENTED_EDGE('',*,*,#779,.T.);
#779 = EDGE_CURVE('',#772,#762,#780,.T.);
#780 = LINE('',#781,#782);
#781 = CARTESIAN_POINT('',(42.7226,11.4977,1.6));
#782 = VECTOR('',#783,1.);
#783 = DIRECTION('',(0.,0.,1.));
#784 = PLANE('',#785);
#785 = AXIS2_PLACEMENT_3D('',#786,#787,#788);
#786 = CARTESIAN_POINT('',(42.1226,10.8977,4.7));
#787 = DIRECTION('',(0.707106781187,-0.707106781187,0.));
#788 = DIRECTION('',(0.707106781187,0.707106781187,0.));
#789 = ADVANCED_FACE('',(#790),#800,.F.);
#790 = FACE_BOUND('',#791,.T.);
#791 = EDGE_LOOP('',(#792,#793,#799));
#792 = ORIENTED_EDGE('',*,*,#771,.F.);
#793 = ORIENTED_EDGE('',*,*,#794,.T.);
#794 = EDGE_CURVE('',#772,#41,#795,.T.);
#795 = LINE('',#796,#797);
#796 = CARTESIAN_POINT('',(42.7226,11.2977,1.8));
#797 = VECTOR('',#798,1.);
#798 = DIRECTION('',(0.,-0.707106781187,-0.707106781187));
#799 = ORIENTED_EDGE('',*,*,#48,.F.);
#800 = PLANE('',#801);
#801 = AXIS2_PLACEMENT_3D('',#802,#803,#804);
#802 = CARTESIAN_POINT('',(35.1226,11.2977,1.8));
#803 = DIRECTION('',(0.,-0.707106781187,0.707106781187));
#804 = DIRECTION('',(-1.,-0.,-0.));
#805 = ADVANCED_FACE('',(#806),#833,.T.);
#806 = FACE_BOUND('',#807,.T.);
#807 = EDGE_LOOP('',(#808,#809,#810,#811,#819,#827));
#808 = ORIENTED_EDGE('',*,*,#40,.F.);
#809 = ORIENTED_EDGE('',*,*,#794,.F.);
#810 = ORIENTED_EDGE('',*,*,#779,.T.);
#811 = ORIENTED_EDGE('',*,*,#812,.T.);
#812 = EDGE_CURVE('',#762,#813,#815,.T.);
#813 = VERTEX_POINT('',#814);
#814 = CARTESIAN_POINT('',(42.7226,11.3977,4.7));
#815 = LINE('',#816,#817);
#816 = CARTESIAN_POINT('',(42.7226,11.4977,4.7));
#817 = VECTOR('',#818,1.);
#818 = DIRECTION('',(0.,-1.,0.));
#819 = ORIENTED_EDGE('',*,*,#820,.F.);
#820 = EDGE_CURVE('',#821,#813,#823,.T.);
#821 = VERTEX_POINT('',#822);
#822 = CARTESIAN_POINT('',(42.7226,11.3977,2.));
#823 = LINE('',#824,#825);
#824 = CARTESIAN_POINT('',(42.7226,11.3977,1.6));
#825 = VECTOR('',#826,1.);
#826 = DIRECTION('',(0.,0.,1.));
#827 = ORIENTED_EDGE('',*,*,#828,.T.);
#828 = EDGE_CURVE('',#821,#33,#829,.T.);
#829 = LINE('',#830,#831);
#830 = CARTESIAN_POINT('',(42.7226,11.2227,1.825));
#831 = VECTOR('',#832,1.);
#832 = DIRECTION('',(0.,-0.707106781187,-0.707106781187));
#833 = PLANE('',#834);
#834 = AXIS2_PLACEMENT_3D('',#835,#836,#837);
#835 = CARTESIAN_POINT('',(42.7226,11.4977,1.6));
#836 = DIRECTION('',(1.,0.,0.));
#837 = DIRECTION('',(0.,-1.,0.));
#838 = ADVANCED_FACE('',(#839),#850,.F.);
#839 = FACE_BOUND('',#840,.T.);
#840 = EDGE_LOOP('',(#841,#847,#848,#849));
#841 = ORIENTED_EDGE('',*,*,#842,.T.);
#842 = EDGE_CURVE('',#821,#194,#843,.T.);
#843 = LINE('',#844,#845);
#844 = CARTESIAN_POINT('',(42.7226,11.3977,2.));
#845 = VECTOR('',#846,1.);
#846 = DIRECTION('',(1.,0.,0.));
#847 = ORIENTED_EDGE('',*,*,#193,.T.);
#848 = ORIENTED_EDGE('',*,*,#32,.F.);
#849 = ORIENTED_EDGE('',*,*,#828,.F.);
#850 = PLANE('',#851);
#851 = AXIS2_PLACEMENT_3D('',#852,#853,#854);
#852 = CARTESIAN_POINT('',(42.7226,11.1977,1.8));
#853 = DIRECTION('',(0.,-0.707106781187,0.707106781187));
#854 = DIRECTION('',(-1.,-0.,-0.));
#855 = ADVANCED_FACE('',(#856),#867,.T.);
#856 = FACE_BOUND('',#857,.T.);
#857 = EDGE_LOOP('',(#858,#859,#860,#866));
#858 = ORIENTED_EDGE('',*,*,#842,.F.);
#859 = ORIENTED_EDGE('',*,*,#820,.T.);
#860 = ORIENTED_EDGE('',*,*,#861,.T.);
#861 = EDGE_CURVE('',#813,#212,#862,.T.);
#862 = LINE('',#863,#864);
#863 = CARTESIAN_POINT('',(42.7226,11.3977,4.7));
#864 = VECTOR('',#865,1.);
#865 = DIRECTION('',(1.,0.,0.));
#866 = ORIENTED_EDGE('',*,*,#220,.F.);
#867 = PLANE('',#868);
#868 = AXIS2_PLACEMENT_3D('',#869,#870,#871);
#869 = CARTESIAN_POINT('',(42.7226,11.3977,1.6));
#870 = DIRECTION('',(0.,1.,0.));
#871 = DIRECTION('',(1.,0.,0.));
#872 = ADVANCED_FACE('',(#873),#913,.T.);
#873 = FACE_BOUND('',#874,.T.);
#874 = EDGE_LOOP('',(#875,#881,#882,#883,#884,#885,#886,#887,#888,#889,
    #890,#896,#897,#898,#899,#905,#906,#912));
#875 = ORIENTED_EDGE('',*,*,#876,.F.);
#876 = EDGE_CURVE('',#269,#317,#877,.T.);
#877 = LINE('',#878,#879);
#878 = CARTESIAN_POINT('',(44.7226,8.2977,4.7));
#879 = VECTOR('',#880,1.);
#880 = DIRECTION('',(-1.,0.,0.));
#881 = ORIENTED_EDGE('',*,*,#276,.F.);
#882 = ORIENTED_EDGE('',*,*,#234,.F.);
#883 = ORIENTED_EDGE('',*,*,#211,.F.);
#884 = ORIENTED_EDGE('',*,*,#861,.F.);
#885 = ORIENTED_EDGE('',*,*,#812,.F.);
#886 = ORIENTED_EDGE('',*,*,#761,.F.);
#887 = ORIENTED_EDGE('',*,*,#737,.F.);
#888 = ORIENTED_EDGE('',*,*,#723,.F.);
#889 = ORIENTED_EDGE('',*,*,#673,.T.);
#890 = ORIENTED_EDGE('',*,*,#891,.T.);
#891 = EDGE_CURVE('',#674,#609,#892,.T.);
#892 = LINE('',#893,#894);
#893 = CARTESIAN_POINT('',(35.1226,11.3977,4.7));
#894 = VECTOR('',#895,1.);
#895 = DIRECTION('',(-1.,0.,0.));
#896 = ORIENTED_EDGE('',*,*,#616,.F.);
#897 = ORIENTED_EDGE('',*,*,#574,.T.);
#898 = ORIENTED_EDGE('',*,*,#551,.T.);
#899 = ORIENTED_EDGE('',*,*,#900,.T.);
#900 = EDGE_CURVE('',#544,#469,#901,.T.);
#901 = LINE('',#902,#903);
#902 = CARTESIAN_POINT('',(33.1226,8.2977,4.7));
#903 = VECTOR('',#904,1.);
#904 = DIRECTION('',(1.,0.,0.));
#905 = ORIENTED_EDGE('',*,*,#468,.T.);
#906 = ORIENTED_EDGE('',*,*,#907,.F.);
#907 = EDGE_CURVE('',#319,#471,#908,.T.);
#908 = LINE('',#909,#910);
#909 = CARTESIAN_POINT('',(41.205933333333,8.333333333333E-02,4.7));
#910 = VECTOR('',#911,1.);
#911 = DIRECTION('',(-1.,0.,0.));
#912 = ORIENTED_EDGE('',*,*,#316,.F.);
#913 = PLANE('',#914);
#914 = AXIS2_PLACEMENT_3D('',#915,#916,#917);
#915 = CARTESIAN_POINT('',(38.9226,6.583563976427,4.7));
#916 = DIRECTION('',(0.,0.,1.));
#917 = DIRECTION('',(1.,0.,0.));
#918 = ADVANCED_FACE('',(#919),#925,.T.);
#919 = FACE_BOUND('',#920,.T.);
#920 = EDGE_LOOP('',(#921,#922,#923,#924));
#921 = ORIENTED_EDGE('',*,*,#292,.F.);
#922 = ORIENTED_EDGE('',*,*,#268,.T.);
#923 = ORIENTED_EDGE('',*,*,#876,.T.);
#924 = ORIENTED_EDGE('',*,*,#350,.F.);
#925 = PLANE('',#926);
#926 = AXIS2_PLACEMENT_3D('',#927,#928,#929);
#927 = CARTESIAN_POINT('',(44.7226,8.2977,1.6));
#928 = DIRECTION('',(0.,-1.,0.));
#929 = DIRECTION('',(-1.,0.,0.));
#930 = ADVANCED_FACE('',(#931),#1022,.T.);
#931 = FACE_BOUND('',#932,.T.);
#932 = EDGE_LOOP('',(#933,#934,#935,#936,#944,#952,#960,#968,#976,#984,
    #992,#1000,#1008,#1016));
#933 = ORIENTED_EDGE('',*,*,#326,.F.);
#934 = ORIENTED_EDGE('',*,*,#907,.T.);
#935 = ORIENTED_EDGE('',*,*,#478,.T.);
#936 = ORIENTED_EDGE('',*,*,#937,.T.);
#937 = EDGE_CURVE('',#479,#938,#940,.T.);
#938 = VERTEX_POINT('',#939);
#939 = CARTESIAN_POINT('',(36.639266666667,-0.516666666667,4.1));
#940 = LINE('',#941,#942);
#941 = CARTESIAN_POINT('',(37.717044444444,-1.594444444444,
    3.022222222222));
#942 = VECTOR('',#943,1.);
#943 = DIRECTION('',(0.57735026919,-0.57735026919,-0.57735026919));
#944 = ORIENTED_EDGE('',*,*,#945,.T.);
#945 = EDGE_CURVE('',#938,#946,#948,.T.);
#946 = VERTEX_POINT('',#947);
#947 = CARTESIAN_POINT('',(37.439266666667,-0.516666666667,4.1));
#948 = LINE('',#949,#950);
#949 = CARTESIAN_POINT('',(39.3226,-0.516666666667,4.1));
#950 = VECTOR('',#951,1.);
#951 = DIRECTION('',(1.,0.,0.));
#952 = ORIENTED_EDGE('',*,*,#953,.T.);
#953 = EDGE_CURVE('',#946,#954,#956,.T.);
#954 = VERTEX_POINT('',#955);
#955 = CARTESIAN_POINT('',(37.955933333333,0.,4.616666666667));
#956 = LINE('',#957,#958);
#957 = CARTESIAN_POINT('',(37.9226,-3.333333333333E-02,4.583333333333));
#958 = VECTOR('',#959,1.);
#959 = DIRECTION('',(0.57735026919,0.57735026919,0.57735026919));
#960 = ORIENTED_EDGE('',*,*,#961,.T.);
#961 = EDGE_CURVE('',#954,#962,#964,.T.);
#962 = VERTEX_POINT('',#963);
#963 = CARTESIAN_POINT('',(38.005933333333,0.,4.616666666667));
#964 = LINE('',#965,#966);
#965 = CARTESIAN_POINT('',(39.605933333333,0.,4.616666666667));
#966 = VECTOR('',#967,1.);
#967 = DIRECTION('',(1.,0.,0.));
#968 = ORIENTED_EDGE('',*,*,#969,.T.);
#969 = EDGE_CURVE('',#962,#970,#972,.T.);
#970 = VERTEX_POINT('',#971);
#971 = CARTESIAN_POINT('',(38.5226,-0.516666666667,4.1));
#972 = LINE('',#973,#974);
#973 = CARTESIAN_POINT('',(39.286488888889,-1.280555555556,
    3.336111111111));
#974 = VECTOR('',#975,1.);
#975 = DIRECTION('',(0.57735026919,-0.57735026919,-0.57735026919));
#976 = ORIENTED_EDGE('',*,*,#977,.T.);
#977 = EDGE_CURVE('',#970,#978,#980,.T.);
#978 = VERTEX_POINT('',#979);
#979 = CARTESIAN_POINT('',(39.3226,-0.516666666667,4.1));
#980 = LINE('',#981,#982);
#981 = CARTESIAN_POINT('',(39.864266666667,-0.516666666667,4.1));
#982 = VECTOR('',#983,1.);
#983 = DIRECTION('',(1.,0.,0.));
#984 = ORIENTED_EDGE('',*,*,#985,.T.);
#985 = EDGE_CURVE('',#978,#986,#988,.T.);
#986 = VERTEX_POINT('',#987);
#987 = CARTESIAN_POINT('',(39.839266666667,1.E-15,4.616666666667));
#988 = LINE('',#989,#990);
#989 = CARTESIAN_POINT('',(39.319822222222,-0.519444444444,
    4.097222222222));
#990 = VECTOR('',#991,1.);
#991 = DIRECTION('',(0.57735026919,0.57735026919,0.57735026919));
#992 = ORIENTED_EDGE('',*,*,#993,.T.);
#993 = EDGE_CURVE('',#986,#994,#996,.T.);
#994 = VERTEX_POINT('',#995);
#995 = CARTESIAN_POINT('',(39.889266666667,0.,4.616666666667));
#996 = LINE('',#997,#998);
#997 = CARTESIAN_POINT('',(40.5226,0.,4.616666666667));
#998 = VECTOR('',#999,1.);
#999 = DIRECTION('',(1.,0.,0.));
#1000 = ORIENTED_EDGE('',*,*,#1001,.T.);
#1001 = EDGE_CURVE('',#994,#1002,#1004,.T.);
#1002 = VERTEX_POINT('',#1003);
#1003 = CARTESIAN_POINT('',(40.405933333333,-0.516666666667,4.1));
#1004 = LINE('',#1005,#1006);
#1005 = CARTESIAN_POINT('',(40.683711111111,-0.794444444444,
    3.822222222222));
#1006 = VECTOR('',#1007,1.);
#1007 = DIRECTION('',(0.57735026919,-0.57735026919,-0.57735026919));
#1008 = ORIENTED_EDGE('',*,*,#1009,.F.);
#1009 = EDGE_CURVE('',#1010,#1002,#1012,.T.);
#1010 = VERTEX_POINT('',#1011);
#1011 = CARTESIAN_POINT('',(41.205933333333,-0.516666666667,4.1));
#1012 = LINE('',#1013,#1014);
#1013 = CARTESIAN_POINT('',(41.205933333333,-0.516666666667,4.1));
#1014 = VECTOR('',#1015,1.);
#1015 = DIRECTION('',(-1.,0.,0.));
#1016 = ORIENTED_EDGE('',*,*,#1017,.F.);
#1017 = EDGE_CURVE('',#327,#1010,#1018,.T.);
#1018 = LINE('',#1019,#1020);
#1019 = CARTESIAN_POINT('',(40.889266666667,-0.833333333333,
    3.783333333333));
#1020 = VECTOR('',#1021,1.);
#1021 = DIRECTION('',(-0.57735026919,-0.57735026919,-0.57735026919));
#1022 = PLANE('',#1023);
#1023 = AXIS2_PLACEMENT_3D('',#1024,#1025,#1026);
#1024 = CARTESIAN_POINT('',(41.205933333333,-0.216666666667,4.4));
#1025 = DIRECTION('',(0.,-0.707106781187,0.707106781187));
#1026 = DIRECTION('',(-1.,0.,0.));
#1027 = ADVANCED_FACE('',(#1028),#1039,.F.);
#1028 = FACE_BOUND('',#1029,.F.);
#1029 = EDGE_LOOP('',(#1030,#1036,#1037,#1038));
#1030 = ORIENTED_EDGE('',*,*,#1031,.T.);
#1031 = EDGE_CURVE('',#447,#1010,#1032,.T.);
#1032 = LINE('',#1033,#1034);
#1033 = CARTESIAN_POINT('',(41.205933333333,-0.516666666667,1.6));
#1034 = VECTOR('',#1035,1.);
#1035 = DIRECTION('',(0.,0.,1.));
#1036 = ORIENTED_EDGE('',*,*,#1017,.F.);
#1037 = ORIENTED_EDGE('',*,*,#334,.F.);
#1038 = ORIENTED_EDGE('',*,*,#454,.T.);
#1039 = PLANE('',#1040);
#1040 = AXIS2_PLACEMENT_3D('',#1041,#1042,#1043);
#1041 = CARTESIAN_POINT('',(41.205933333333,-0.516666666667,1.6));
#1042 = DIRECTION('',(-0.707106781187,0.707106781187,0.));
#1043 = DIRECTION('',(0.707106781187,0.707106781187,0.));
#1044 = ADVANCED_FACE('',(#1045),#1056,.T.);
#1045 = FACE_BOUND('',#1046,.T.);
#1046 = EDGE_LOOP('',(#1047,#1048,#1049,#1055));
#1047 = ORIENTED_EDGE('',*,*,#1031,.T.);
#1048 = ORIENTED_EDGE('',*,*,#1009,.T.);
#1049 = ORIENTED_EDGE('',*,*,#1050,.F.);
#1050 = EDGE_CURVE('',#439,#1002,#1051,.T.);
#1051 = LINE('',#1052,#1053);
#1052 = CARTESIAN_POINT('',(40.405933333333,-0.516666666667,1.6));
#1053 = VECTOR('',#1054,1.);
#1054 = DIRECTION('',(0.,0.,1.));
#1055 = ORIENTED_EDGE('',*,*,#446,.F.);
#1056 = PLANE('',#1057);
#1057 = AXIS2_PLACEMENT_3D('',#1058,#1059,#1060);
#1058 = CARTESIAN_POINT('',(41.205933333333,-0.516666666667,1.6));
#1059 = DIRECTION('',(0.,-1.,0.));
#1060 = DIRECTION('',(-1.,0.,0.));
#1061 = ADVANCED_FACE('',(#1062),#1073,.T.);
#1062 = FACE_BOUND('',#1063,.T.);
#1063 = EDGE_LOOP('',(#1064,#1070,#1071,#1072));
#1064 = ORIENTED_EDGE('',*,*,#1065,.T.);
#1065 = EDGE_CURVE('',#375,#938,#1066,.T.);
#1066 = LINE('',#1067,#1068);
#1067 = CARTESIAN_POINT('',(36.639266666667,-0.516666666667,1.6));
#1068 = VECTOR('',#1069,1.);
#1069 = DIRECTION('',(0.,0.,1.));
#1070 = ORIENTED_EDGE('',*,*,#937,.F.);
#1071 = ORIENTED_EDGE('',*,*,#486,.F.);
#1072 = ORIENTED_EDGE('',*,*,#374,.T.);
#1073 = PLANE('',#1074);
#1074 = AXIS2_PLACEMENT_3D('',#1075,#1076,#1077);
#1075 = CARTESIAN_POINT('',(36.639266666667,-0.516666666667,1.6));
#1076 = DIRECTION('',(-0.707106781187,-0.707106781187,0.));
#1077 = DIRECTION('',(-0.707106781187,0.707106781187,0.));
#1078 = ADVANCED_FACE('',(#1079),#1090,.F.);
#1079 = FACE_BOUND('',#1080,.F.);
#1080 = EDGE_LOOP('',(#1081,#1087,#1088,#1089));
#1081 = ORIENTED_EDGE('',*,*,#1082,.T.);
#1082 = EDGE_CURVE('',#431,#994,#1083,.T.);
#1083 = LINE('',#1084,#1085);
#1084 = CARTESIAN_POINT('',(39.889266666667,0.,1.6));
#1085 = VECTOR('',#1086,1.);
#1086 = DIRECTION('',(0.,0.,1.));
#1087 = ORIENTED_EDGE('',*,*,#1001,.T.);
#1088 = ORIENTED_EDGE('',*,*,#1050,.F.);
#1089 = ORIENTED_EDGE('',*,*,#438,.F.);
#1090 = PLANE('',#1091);
#1091 = AXIS2_PLACEMENT_3D('',#1092,#1093,#1094);
#1092 = CARTESIAN_POINT('',(39.889266666667,0.,1.6));
#1093 = DIRECTION('',(0.707106781187,0.707106781187,0.));
#1094 = DIRECTION('',(0.707106781187,-0.707106781187,0.));
#1095 = ADVANCED_FACE('',(#1096),#1107,.T.);
#1096 = FACE_BOUND('',#1097,.T.);
#1097 = EDGE_LOOP('',(#1098,#1104,#1105,#1106));
#1098 = ORIENTED_EDGE('',*,*,#1099,.T.);
#1099 = EDGE_CURVE('',#383,#946,#1100,.T.);
#1100 = LINE('',#1101,#1102);
#1101 = CARTESIAN_POINT('',(37.439266666667,-0.516666666667,1.6));
#1102 = VECTOR('',#1103,1.);
#1103 = DIRECTION('',(0.,0.,1.));
#1104 = ORIENTED_EDGE('',*,*,#945,.F.);
#1105 = ORIENTED_EDGE('',*,*,#1065,.F.);
#1106 = ORIENTED_EDGE('',*,*,#382,.T.);
#1107 = PLANE('',#1108);
#1108 = AXIS2_PLACEMENT_3D('',#1109,#1110,#1111);
#1109 = CARTESIAN_POINT('',(37.439266666667,-0.516666666667,1.6));
#1110 = DIRECTION('',(0.,-1.,0.));
#1111 = DIRECTION('',(-1.,0.,0.));
#1112 = ADVANCED_FACE('',(#1113),#1124,.F.);
#1113 = FACE_BOUND('',#1114,.F.);
#1114 = EDGE_LOOP('',(#1115,#1121,#1122,#1123));
#1115 = ORIENTED_EDGE('',*,*,#1116,.T.);
#1116 = EDGE_CURVE('',#423,#986,#1117,.T.);
#1117 = LINE('',#1118,#1119);
#1118 = CARTESIAN_POINT('',(39.839266666667,0.,1.6));
#1119 = VECTOR('',#1120,1.);
#1120 = DIRECTION('',(0.,0.,1.));
#1121 = ORIENTED_EDGE('',*,*,#993,.T.);
#1122 = ORIENTED_EDGE('',*,*,#1082,.F.);
#1123 = ORIENTED_EDGE('',*,*,#430,.F.);
#1124 = PLANE('',#1125);
#1125 = AXIS2_PLACEMENT_3D('',#1126,#1127,#1128);
#1126 = CARTESIAN_POINT('',(39.839266666667,0.,1.6));
#1127 = DIRECTION('',(0.,1.,0.));
#1128 = DIRECTION('',(1.,0.,0.));
#1129 = ADVANCED_FACE('',(#1130),#1141,.T.);
#1130 = FACE_BOUND('',#1131,.T.);
#1131 = EDGE_LOOP('',(#1132,#1138,#1139,#1140));
#1132 = ORIENTED_EDGE('',*,*,#1133,.T.);
#1133 = EDGE_CURVE('',#391,#954,#1134,.T.);
#1134 = LINE('',#1135,#1136);
#1135 = CARTESIAN_POINT('',(37.955933333333,0.,1.6));
#1136 = VECTOR('',#1137,1.);
#1137 = DIRECTION('',(0.,0.,1.));
#1138 = ORIENTED_EDGE('',*,*,#953,.F.);
#1139 = ORIENTED_EDGE('',*,*,#1099,.F.);
#1140 = ORIENTED_EDGE('',*,*,#390,.T.);
#1141 = PLANE('',#1142);
#1142 = AXIS2_PLACEMENT_3D('',#1143,#1144,#1145);
#1143 = CARTESIAN_POINT('',(37.955933333333,0.,1.6));
#1144 = DIRECTION('',(0.707106781187,-0.707106781187,0.));
#1145 = DIRECTION('',(-0.707106781187,-0.707106781187,0.));
#1146 = ADVANCED_FACE('',(#1147),#1158,.F.);
#1147 = FACE_BOUND('',#1148,.F.);
#1148 = EDGE_LOOP('',(#1149,#1155,#1156,#1157));
#1149 = ORIENTED_EDGE('',*,*,#1150,.T.);
#1150 = EDGE_CURVE('',#415,#978,#1151,.T.);
#1151 = LINE('',#1152,#1153);
#1152 = CARTESIAN_POINT('',(39.3226,-0.516666666667,1.6));
#1153 = VECTOR('',#1154,1.);
#1154 = DIRECTION('',(0.,0.,1.));
#1155 = ORIENTED_EDGE('',*,*,#985,.T.);
#1156 = ORIENTED_EDGE('',*,*,#1116,.F.);
#1157 = ORIENTED_EDGE('',*,*,#422,.F.);
#1158 = PLANE('',#1159);
#1159 = AXIS2_PLACEMENT_3D('',#1160,#1161,#1162);
#1160 = CARTESIAN_POINT('',(39.3226,-0.516666666667,1.6));
#1161 = DIRECTION('',(-0.707106781187,0.707106781187,0.));
#1162 = DIRECTION('',(0.707106781187,0.707106781187,0.));
#1163 = ADVANCED_FACE('',(#1164),#1175,.T.);
#1164 = FACE_BOUND('',#1165,.T.);
#1165 = EDGE_LOOP('',(#1166,#1172,#1173,#1174));
#1166 = ORIENTED_EDGE('',*,*,#1167,.T.);
#1167 = EDGE_CURVE('',#399,#962,#1168,.T.);
#1168 = LINE('',#1169,#1170);
#1169 = CARTESIAN_POINT('',(38.005933333333,0.,1.6));
#1170 = VECTOR('',#1171,1.);
#1171 = DIRECTION('',(0.,0.,1.));
#1172 = ORIENTED_EDGE('',*,*,#961,.F.);
#1173 = ORIENTED_EDGE('',*,*,#1133,.F.);
#1174 = ORIENTED_EDGE('',*,*,#398,.T.);
#1175 = PLANE('',#1176);
#1176 = AXIS2_PLACEMENT_3D('',#1177,#1178,#1179);
#1177 = CARTESIAN_POINT('',(38.005933333333,0.,1.6));
#1178 = DIRECTION('',(0.,-1.,0.));
#1179 = DIRECTION('',(-1.,0.,0.));
#1180 = ADVANCED_FACE('',(#1181),#1192,.F.);
#1181 = FACE_BOUND('',#1182,.F.);
#1182 = EDGE_LOOP('',(#1183,#1189,#1190,#1191));
#1183 = ORIENTED_EDGE('',*,*,#1184,.T.);
#1184 = EDGE_CURVE('',#407,#970,#1185,.T.);
#1185 = LINE('',#1186,#1187);
#1186 = CARTESIAN_POINT('',(38.5226,-0.516666666667,1.6));
#1187 = VECTOR('',#1188,1.);
#1188 = DIRECTION('',(0.,0.,1.));
#1189 = ORIENTED_EDGE('',*,*,#977,.T.);
#1190 = ORIENTED_EDGE('',*,*,#1150,.F.);
#1191 = ORIENTED_EDGE('',*,*,#414,.F.);
#1192 = PLANE('',#1193);
#1193 = AXIS2_PLACEMENT_3D('',#1194,#1195,#1196);
#1194 = CARTESIAN_POINT('',(38.5226,-0.516666666667,1.6));
#1195 = DIRECTION('',(0.,1.,0.));
#1196 = DIRECTION('',(1.,0.,0.));
#1197 = ADVANCED_FACE('',(#1198),#1204,.T.);
#1198 = FACE_BOUND('',#1199,.T.);
#1199 = EDGE_LOOP('',(#1200,#1201,#1202,#1203));
#1200 = ORIENTED_EDGE('',*,*,#1184,.T.);
#1201 = ORIENTED_EDGE('',*,*,#969,.F.);
#1202 = ORIENTED_EDGE('',*,*,#1167,.F.);
#1203 = ORIENTED_EDGE('',*,*,#406,.T.);
#1204 = PLANE('',#1205);
#1205 = AXIS2_PLACEMENT_3D('',#1206,#1207,#1208);
#1206 = CARTESIAN_POINT('',(38.5226,-0.516666666667,1.6));
#1207 = DIRECTION('',(-0.707106781187,-0.707106781187,0.));
#1208 = DIRECTION('',(-0.707106781187,0.707106781187,0.));
#1209 = ADVANCED_FACE('',(#1210),#1216,.F.);
#1210 = FACE_BOUND('',#1211,.F.);
#1211 = EDGE_LOOP('',(#1212,#1213,#1214,#1215));
#1212 = ORIENTED_EDGE('',*,*,#516,.F.);
#1213 = ORIENTED_EDGE('',*,*,#543,.T.);
#1214 = ORIENTED_EDGE('',*,*,#900,.T.);
#1215 = ORIENTED_EDGE('',*,*,#502,.F.);
#1216 = PLANE('',#1217);
#1217 = AXIS2_PLACEMENT_3D('',#1218,#1219,#1220);
#1218 = CARTESIAN_POINT('',(33.1226,8.2977,1.6));
#1219 = DIRECTION('',(0.,1.,0.));
#1220 = DIRECTION('',(1.,0.,0.));
#1221 = ADVANCED_FACE('',(#1222),#1228,.F.);
#1222 = FACE_BOUND('',#1223,.F.);
#1223 = EDGE_LOOP('',(#1224,#1225,#1226,#1227));
#1224 = ORIENTED_EDGE('',*,*,#632,.F.);
#1225 = ORIENTED_EDGE('',*,*,#681,.T.);
#1226 = ORIENTED_EDGE('',*,*,#891,.T.);
#1227 = ORIENTED_EDGE('',*,*,#608,.F.);
#1228 = PLANE('',#1229);
#1229 = AXIS2_PLACEMENT_3D('',#1230,#1231,#1232);
#1230 = CARTESIAN_POINT('',(35.1226,11.3977,1.6));
#1231 = DIRECTION('',(0.,-1.,0.));
#1232 = DIRECTION('',(-1.,0.,0.));
#1233 = ( GEOMETRIC_REPRESENTATION_CONTEXT(3) 
GLOBAL_UNCERTAINTY_ASSIGNED_CONTEXT((#1237)) 
GLOBAL_UNIT_ASSIGNED_CONTEXT((#1234,#1235,#1236)) REPRESENTATION_CONTEXT
('Context #1','3D Context with UNIT and UNCERTAINTY') );
#1234 = ( LENGTH_UNIT() NAMED_UNIT(*) SI_UNIT(.MILLI.,.METRE.) );
#1235 = ( NAMED_UNIT(*) PLANE_ANGLE_UNIT() SI_UNIT($,.RADIAN.) );
#1236 = ( NAMED_UNIT(*) SI_UNIT($,.STERADIAN.) SOLID_ANGLE_UNIT() );
#1237 = UNCERTAINTY_MEASURE_WITH_UNIT(LENGTH_MEASURE(2.E-06),#1234,
  'distance_accuracy_value','confusion accuracy');
#1238 = PRODUCT_RELATED_PRODUCT_CATEGORY('part',$,(#7));
#1239 = MECHANICAL_DESIGN_GEOMETRIC_PRESENTATION_REPRESENTATION('',(
    #1240),#1233);
#1240 = STYLED_ITEM('color',(#1241),#15);
#1241 = PRESENTATION_STYLE_ASSIGNMENT((#1242,#1248));
#1242 = SURFACE_STYLE_USAGE(.BOTH.,#1243);
#1243 = SURFACE_SIDE_STYLE('',(#1244));
#1244 = SURFACE_STYLE_FILL_AREA(#1245);
#1245 = FILL_AREA_STYLE('',(#1246));
#1246 = FILL_AREA_STYLE_COLOUR('',#1247);
#1247 = COLOUR_RGB('',0.678431390124,0.709803936702,0.741176476869);
#1248 = CURVE_STYLE('',#1249,POSITIVE_LENGTH_MEASURE(0.1),#1250);
#1249 = DRAUGHTING_PRE_DEFINED_CURVE_FONT('continuous');
#1250 = COLOUR_RGB('',9.803921802644E-02,9.803921802644E-02,
  9.803921802644E-02);
ENDSEC;
END-ISO-10303-21;
